M48
INCH,LZ
;FILE_FORMAT=2:4
;TYPE=PLATED
;Layer: PTH_Through_Via
;EasyEDA v6.5.22, 2022-12-05 22:01:04
;d1a99e3ffb4d45b387634f4a3d5e2a22,8bbad783b4b447a482771b0ae512d992,10
;Gerber Generator version 0.2
;Holesize 1 = 0.0080 inch
T01C0.0080
;Holesize 2 = 0.0120 inch
T02C0.0120
;Holesize 3 = 0.0120 inch
T03C0.0120
%
G05
G90
T01
X009900Y-013950
X010150Y-013950
X009550Y-013950
X009300Y-013950
X013600Y-013950
X013850Y-013950
X014150Y-013950
X014400Y-013950
X005050Y-013950
X005300Y-013950
X005600Y-013950
X005850Y-013950
X017200Y-011300
X017200Y-011700
X017200Y-012050
X018150Y-011300
X018050Y-011700
X017000Y-012400
X003800Y-012950
X008100Y-012950
X012350Y-012950
X005250Y-013500
X005650Y-013500
X005100Y-014500
X005450Y-014500
X005800Y-014500
X009750Y-014500
X010100Y-014500
X009400Y-014500
X014000Y-014500
X013700Y-014500
X014300Y-014500
X009550Y-013450
X009950Y-013450
X013750Y-013450
X014200Y-013450
X005950Y-012150
X010250Y-012150
X014500Y-012150
X006250Y-011000
X010750Y-011000
X013350Y-011100
X013350Y-011450
X008850Y-011100
X008850Y-011450
X015750Y-012650
X012350Y-011100
X008700Y-011700
X007250Y-011000
X007100Y-011850
X013550Y-007450
X013850Y-007450
X010500Y-008550
X010500Y-008250
X009050Y-007450
X009350Y-007450
X006000Y-008250
X006000Y-008550
X003400Y-005350
X002050Y-005150
X005150Y-003300
X005150Y-003700
X012450Y-001300
X013050Y-003600
X013050Y-004250
X013050Y-003950
X004350Y-006550
X004350Y-006850
X010350Y-006850
X010100Y-006850
X009850Y-005800
X012800Y-007000
X012800Y-007350
X007800Y-003300
X007800Y-003600
X012750Y-003750
X012400Y-003600
X009800Y-003600
X007700Y-006700
X011150Y-006850
X013350Y-006150
X012750Y-005850
X013250Y-008050
X012750Y-008200
X012100Y-005750
X012450Y-006800
X009250Y-004900
X009700Y-004850
X009800Y-005200
X007750Y-008000
X015000Y-008000
X014200Y-004950
X014850Y-005300
X010850Y-003850
X011150Y-003600
X015400Y-005000
X011800Y-007500
X009200Y-006200
X009800Y-006450
X011950Y-005350
X011750Y-005050
X014750Y-003950
X019250Y-005800
X010800Y-007850
X009700Y-007400
X015000Y-008500
T02
X016000Y-010550
X010200Y-011200
X019150Y-003800
X019150Y-004750
X019200Y-005300
X007400Y-002000
X005000Y-004850
X004500Y-005400
X008500Y-004850
X008500Y-005400
X013047Y-000500
X018950Y-013650
X018950Y-013200
X018500Y-012800
X018507Y-013227
X018950Y-012800
X018050Y-012800
X018100Y-013200
X018500Y-013650
X018100Y-013600
T03
X018950Y-015150
X018950Y-014300
X018100Y-014300
X018100Y-015150
X018507Y-014727
X018500Y-014300
X018500Y-015150
X018950Y-014750
X018100Y-014750
M30
