G04 Layer: TopPasteMaskLayer*
G04 EasyEDA v6.5.22, 2022-12-05 22:01:04*
G04 d1a99e3ffb4d45b387634f4a3d5e2a22,8bbad783b4b447a482771b0ae512d992,10*
G04 Gerber Generator version 0.2*
G04 Scale: 100 percent, Rotated: No, Reflected: No *
G04 Dimensions in inches *
G04 leading zeros omitted , absolute positions ,3 integer and 6 decimal *
%FSLAX36Y36*%
%MOIN*%

%AMMACRO1*4,1,4,-0.0049,0.0118,0.0049,0.0118,0.0049,-0.0118,-0.0049,-0.0118,-0.0049,0.0118,0*%
%AMMACRO2*4,1,4,0.0266,0.0079,0.0266,-0.0079,-0.0266,-0.0079,-0.0266,0.0079,0.0266,0.0079,0*%
%ADD10R,0.1181X0.1181*%
%ADD11R,0.0315X0.0354*%
%ADD12R,0.0236X0.0098*%
%ADD13R,0.1378X0.0197*%
%ADD14R,0.0659X0.0197*%
%ADD15R,0.1378X0.0551*%
%ADD16MACRO1*%
%ADD17R,0.0354X0.0315*%
%ADD18R,0.0374X0.0413*%
%ADD19R,0.1181X0.0354*%
%ADD20R,0.0240X0.0810*%
%ADD21R,0.0315X0.0315*%
%ADD22O,0.017638X0.066299*%
%ADD23O,0.066299X0.017638*%
%ADD24R,0.0394X0.0276*%
%ADD25MACRO2*%
%ADD26R,0.0551X0.0630*%
%ADD27R,0.0748X0.0748*%
%ADD28R,0.0156X0.0748*%

%LPD*%
G36*
X921040Y-1442960D02*
G01*
X921040Y-1445900D01*
X909240Y-1445900D01*
X907260Y-1447880D01*
X907260Y-1453779D01*
X909240Y-1455740D01*
X921040Y-1455740D01*
X921040Y-1458700D01*
X939760Y-1458700D01*
X939760Y-1492160D01*
X941720Y-1494139D01*
X947620Y-1494139D01*
X949580Y-1492160D01*
X949580Y-1458700D01*
X959440Y-1458700D01*
X959440Y-1492160D01*
X961400Y-1494139D01*
X967300Y-1494139D01*
X969280Y-1492160D01*
X969280Y-1458700D01*
X979120Y-1458700D01*
X979120Y-1492160D01*
X981100Y-1494139D01*
X987000Y-1494139D01*
X988960Y-1492160D01*
X988960Y-1458700D01*
X998820Y-1458700D01*
X998820Y-1492160D01*
X1000780Y-1494139D01*
X1006680Y-1494139D01*
X1008640Y-1492160D01*
X1008640Y-1458700D01*
X1027340Y-1458700D01*
X1027340Y-1455740D01*
X1039160Y-1455740D01*
X1041140Y-1453779D01*
X1041140Y-1447880D01*
X1039160Y-1445900D01*
X1027340Y-1445900D01*
X1027340Y-1442960D01*
G37*
G36*
X981100Y-1415400D02*
G01*
X979120Y-1417360D01*
X979120Y-1429180D01*
X981100Y-1431140D01*
X1027340Y-1431140D01*
X1027340Y-1428180D01*
X1039160Y-1428180D01*
X1041140Y-1426220D01*
X1041140Y-1420320D01*
X1039160Y-1418340D01*
X1027340Y-1418340D01*
X1027340Y-1415400D01*
G37*
G36*
X921040Y-1415400D02*
G01*
X921040Y-1418340D01*
X909240Y-1418340D01*
X907260Y-1420320D01*
X907260Y-1426220D01*
X909240Y-1428180D01*
X921040Y-1428180D01*
X921040Y-1431140D01*
X967300Y-1431140D01*
X969280Y-1429180D01*
X969280Y-1417360D01*
X967300Y-1415400D01*
G37*
G36*
X981100Y-1387840D02*
G01*
X979120Y-1389800D01*
X979120Y-1401620D01*
X981100Y-1403580D01*
X1027340Y-1403580D01*
X1027340Y-1400620D01*
X1039160Y-1400620D01*
X1041140Y-1398660D01*
X1041140Y-1392760D01*
X1039160Y-1390780D01*
X1027340Y-1390780D01*
X1027340Y-1387840D01*
G37*
G36*
X921040Y-1387840D02*
G01*
X921040Y-1390780D01*
X909240Y-1390780D01*
X907260Y-1392760D01*
X907260Y-1398660D01*
X909240Y-1400620D01*
X921040Y-1400620D01*
X921040Y-1403580D01*
X967300Y-1403580D01*
X969280Y-1401620D01*
X969280Y-1389800D01*
X967300Y-1387840D01*
G37*
G36*
X1346040Y-1387840D02*
G01*
X1346040Y-1390800D01*
X1334240Y-1390800D01*
X1332260Y-1392760D01*
X1332260Y-1398660D01*
X1334240Y-1400640D01*
X1346040Y-1400640D01*
X1346040Y-1403600D01*
X1392300Y-1403600D01*
X1394280Y-1401620D01*
X1394280Y-1389820D01*
X1392300Y-1387840D01*
G37*
G36*
X1406080Y-1387840D02*
G01*
X1404120Y-1389800D01*
X1404120Y-1401620D01*
X1406080Y-1403580D01*
X1452340Y-1403580D01*
X1452340Y-1400640D01*
X1464160Y-1400640D01*
X1466120Y-1398660D01*
X1466120Y-1392760D01*
X1464160Y-1390800D01*
X1452340Y-1390800D01*
X1452340Y-1387840D01*
G37*
G36*
X1346040Y-1415400D02*
G01*
X1346040Y-1418360D01*
X1334240Y-1418360D01*
X1332260Y-1420320D01*
X1332260Y-1426220D01*
X1334240Y-1428200D01*
X1346040Y-1428200D01*
X1346040Y-1431160D01*
X1392300Y-1431160D01*
X1394280Y-1429180D01*
X1394280Y-1417380D01*
X1392300Y-1415400D01*
G37*
G36*
X1406080Y-1415400D02*
G01*
X1404120Y-1417360D01*
X1404120Y-1429180D01*
X1406080Y-1431140D01*
X1452340Y-1431140D01*
X1452340Y-1428200D01*
X1464160Y-1428200D01*
X1466120Y-1426220D01*
X1466120Y-1420320D01*
X1464160Y-1418360D01*
X1452340Y-1418360D01*
X1452340Y-1415400D01*
G37*
G36*
X1346040Y-1442960D02*
G01*
X1346040Y-1445920D01*
X1334240Y-1445920D01*
X1332260Y-1447880D01*
X1332260Y-1453779D01*
X1334240Y-1455760D01*
X1346040Y-1455760D01*
X1346040Y-1458700D01*
X1364740Y-1458700D01*
X1364740Y-1492180D01*
X1366720Y-1494139D01*
X1372620Y-1494139D01*
X1374580Y-1492180D01*
X1374580Y-1458700D01*
X1384440Y-1458700D01*
X1384440Y-1492180D01*
X1386399Y-1494139D01*
X1392300Y-1494139D01*
X1394280Y-1492180D01*
X1394280Y-1458700D01*
X1404120Y-1458700D01*
X1404120Y-1492180D01*
X1406080Y-1494139D01*
X1412000Y-1494139D01*
X1413959Y-1492180D01*
X1413959Y-1458700D01*
X1423800Y-1458700D01*
X1423800Y-1492180D01*
X1425760Y-1494139D01*
X1431680Y-1494139D01*
X1433640Y-1492180D01*
X1433640Y-1458700D01*
X1452340Y-1458700D01*
X1452340Y-1455760D01*
X1464160Y-1455760D01*
X1466120Y-1453779D01*
X1466120Y-1447880D01*
X1464160Y-1445920D01*
X1452340Y-1445920D01*
X1452340Y-1442960D01*
G37*
G36*
X491060Y-1387840D02*
G01*
X491060Y-1390800D01*
X479240Y-1390800D01*
X477280Y-1392760D01*
X477280Y-1398660D01*
X479240Y-1400640D01*
X491060Y-1400640D01*
X491060Y-1403600D01*
X537320Y-1403600D01*
X539280Y-1401620D01*
X539280Y-1389820D01*
X537320Y-1387840D01*
G37*
G36*
X551100Y-1387840D02*
G01*
X549120Y-1389800D01*
X549120Y-1401620D01*
X551100Y-1403580D01*
X597360Y-1403580D01*
X597360Y-1400640D01*
X609160Y-1400640D01*
X611140Y-1398660D01*
X611140Y-1392760D01*
X609160Y-1390800D01*
X597360Y-1390800D01*
X597360Y-1387840D01*
G37*
G36*
X491060Y-1415400D02*
G01*
X491060Y-1418360D01*
X479240Y-1418360D01*
X477280Y-1420320D01*
X477280Y-1426220D01*
X479240Y-1428200D01*
X491060Y-1428200D01*
X491060Y-1431160D01*
X537320Y-1431160D01*
X539280Y-1429180D01*
X539280Y-1417380D01*
X537320Y-1415400D01*
G37*
G36*
X551100Y-1415400D02*
G01*
X549120Y-1417360D01*
X549120Y-1429180D01*
X551100Y-1431140D01*
X597360Y-1431140D01*
X597360Y-1428200D01*
X609160Y-1428200D01*
X611140Y-1426220D01*
X611140Y-1420320D01*
X609160Y-1418360D01*
X597360Y-1418360D01*
X597360Y-1415400D01*
G37*
G36*
X491060Y-1442960D02*
G01*
X491060Y-1445920D01*
X479240Y-1445920D01*
X477280Y-1447880D01*
X477280Y-1453779D01*
X479240Y-1455760D01*
X491060Y-1455760D01*
X491060Y-1458700D01*
X509760Y-1458700D01*
X509760Y-1492180D01*
X511719Y-1494139D01*
X517640Y-1494139D01*
X519600Y-1492180D01*
X519600Y-1458700D01*
X529440Y-1458700D01*
X529440Y-1492180D01*
X531400Y-1494139D01*
X537320Y-1494139D01*
X539280Y-1492180D01*
X539280Y-1458700D01*
X549120Y-1458700D01*
X549120Y-1492180D01*
X551100Y-1494139D01*
X557000Y-1494139D01*
X558960Y-1492180D01*
X558960Y-1458700D01*
X568820Y-1458700D01*
X568820Y-1492180D01*
X570780Y-1494139D01*
X576680Y-1494139D01*
X578660Y-1492180D01*
X578660Y-1458700D01*
X597360Y-1458700D01*
X597360Y-1455760D01*
X609160Y-1455760D01*
X611140Y-1453779D01*
X611140Y-1447880D01*
X609160Y-1445920D01*
X597360Y-1445920D01*
X597360Y-1442960D01*
G37*
G36*
X829260Y-1338580D02*
G01*
X827280Y-1340560D01*
X827280Y-1372040D01*
X829260Y-1374019D01*
X860740Y-1374019D01*
X862720Y-1372040D01*
X862720Y-1340560D01*
X860740Y-1338580D01*
X851780Y-1338580D01*
X851780Y-1353160D01*
X838780Y-1353160D01*
X838780Y-1338580D01*
G37*
G36*
X829260Y-1275980D02*
G01*
X827280Y-1277960D01*
X827280Y-1309060D01*
X829260Y-1311020D01*
X838780Y-1311020D01*
X838780Y-1296060D01*
X851780Y-1296060D01*
X851780Y-1311020D01*
X860740Y-1311020D01*
X862720Y-1309060D01*
X862720Y-1277960D01*
X860740Y-1275980D01*
G37*
G36*
X947960Y-1227280D02*
G01*
X945980Y-1229260D01*
X945980Y-1260740D01*
X947960Y-1262720D01*
X979440Y-1262720D01*
X981420Y-1260740D01*
X981420Y-1251780D01*
X966860Y-1251780D01*
X966860Y-1238780D01*
X981420Y-1238780D01*
X981420Y-1229260D01*
X979440Y-1227280D01*
G37*
G36*
X1010939Y-1227280D02*
G01*
X1008980Y-1229260D01*
X1008980Y-1238780D01*
X1023940Y-1238780D01*
X1023940Y-1251780D01*
X1008980Y-1251780D01*
X1008980Y-1260740D01*
X1010939Y-1262720D01*
X1042039Y-1262720D01*
X1044020Y-1260740D01*
X1044020Y-1229260D01*
X1042039Y-1227280D01*
G37*
G36*
X1372960Y-1227280D02*
G01*
X1370980Y-1229260D01*
X1370980Y-1260740D01*
X1372960Y-1262720D01*
X1404440Y-1262720D01*
X1406420Y-1260740D01*
X1406420Y-1251780D01*
X1391860Y-1251780D01*
X1391860Y-1238780D01*
X1406420Y-1238780D01*
X1406420Y-1229260D01*
X1404440Y-1227280D01*
G37*
G36*
X1435940Y-1227280D02*
G01*
X1433980Y-1229260D01*
X1433980Y-1238780D01*
X1448940Y-1238780D01*
X1448940Y-1251780D01*
X1433980Y-1251780D01*
X1433980Y-1260740D01*
X1435940Y-1262720D01*
X1467040Y-1262720D01*
X1469019Y-1260740D01*
X1469019Y-1229260D01*
X1467040Y-1227280D01*
G37*
G36*
X1254260Y-1338580D02*
G01*
X1252280Y-1340560D01*
X1252280Y-1372040D01*
X1254260Y-1374019D01*
X1285740Y-1374019D01*
X1287720Y-1372040D01*
X1287720Y-1340560D01*
X1285740Y-1338580D01*
X1276780Y-1338580D01*
X1276780Y-1353160D01*
X1263780Y-1353160D01*
X1263780Y-1338580D01*
G37*
G36*
X1254260Y-1275980D02*
G01*
X1252280Y-1277960D01*
X1252280Y-1309060D01*
X1254260Y-1311020D01*
X1263780Y-1311020D01*
X1263780Y-1296060D01*
X1276780Y-1296060D01*
X1276780Y-1311020D01*
X1285740Y-1311020D01*
X1287720Y-1309060D01*
X1287720Y-1277960D01*
X1285740Y-1275980D01*
G37*
G36*
X517960Y-1227280D02*
G01*
X515980Y-1229260D01*
X515980Y-1260740D01*
X517960Y-1262720D01*
X549440Y-1262720D01*
X551420Y-1260740D01*
X551420Y-1251780D01*
X536840Y-1251780D01*
X536840Y-1238780D01*
X551420Y-1238780D01*
X551420Y-1229260D01*
X549440Y-1227280D01*
G37*
G36*
X580940Y-1227280D02*
G01*
X578980Y-1229260D01*
X578980Y-1238780D01*
X593940Y-1238780D01*
X593940Y-1251780D01*
X578980Y-1251780D01*
X578980Y-1260740D01*
X580940Y-1262720D01*
X612040Y-1262720D01*
X614020Y-1260740D01*
X614020Y-1229260D01*
X612040Y-1227280D01*
G37*
G36*
X399260Y-1338580D02*
G01*
X397280Y-1340560D01*
X397280Y-1372040D01*
X399260Y-1374019D01*
X430740Y-1374019D01*
X432720Y-1372040D01*
X432720Y-1340560D01*
X430740Y-1338580D01*
X421780Y-1338580D01*
X421780Y-1353160D01*
X408780Y-1353160D01*
X408780Y-1338580D01*
G37*
G36*
X399260Y-1275980D02*
G01*
X397280Y-1277960D01*
X397280Y-1309060D01*
X399260Y-1311020D01*
X408780Y-1311020D01*
X408780Y-1296060D01*
X421780Y-1296060D01*
X421780Y-1311020D01*
X430740Y-1311020D01*
X432720Y-1309060D01*
X432720Y-1277960D01*
X430740Y-1275980D01*
G37*
G36*
X535560Y-652280D02*
G01*
X533580Y-654260D01*
X533580Y-663220D01*
X548160Y-663220D01*
X548160Y-676220D01*
X533580Y-676220D01*
X533580Y-685740D01*
X535560Y-687720D01*
X567040Y-687720D01*
X569020Y-685740D01*
X569020Y-654260D01*
X567040Y-652280D01*
G37*
G36*
X472960Y-652280D02*
G01*
X470980Y-654260D01*
X470980Y-685740D01*
X472960Y-687720D01*
X504060Y-687720D01*
X506019Y-685740D01*
X506019Y-676220D01*
X491060Y-676220D01*
X491060Y-663220D01*
X506019Y-663220D01*
X506019Y-654260D01*
X504060Y-652280D01*
G37*
D10*
G01*
X1850730Y-1472719D03*
G01*
X1850730Y-1322719D03*
D11*
G01*
X1082560Y-730000D03*
G01*
X1027439Y-730000D03*
G01*
X1247439Y-160000D03*
G01*
X1302560Y-160000D03*
D12*
G01*
X919080Y-1333699D03*
G01*
X919080Y-1353389D03*
G01*
X919080Y-1373069D03*
D13*
G01*
X974200Y-1395709D03*
D14*
G01*
X938270Y-1423270D03*
D15*
G01*
X974200Y-1468550D03*
D14*
G01*
X1010129Y-1423270D03*
D12*
G01*
X1029319Y-1373069D03*
G01*
X1029319Y-1353389D03*
G01*
X1029319Y-1333699D03*
D16*
G01*
X1003730Y-1313033D03*
G01*
X984040Y-1313033D03*
G01*
X964360Y-1313033D03*
G01*
X944670Y-1313033D03*
G01*
X1369668Y-1313038D03*
G01*
X1389358Y-1313038D03*
G01*
X1409039Y-1313038D03*
G01*
X1428728Y-1313038D03*
D12*
G01*
X1454319Y-1333699D03*
G01*
X1454319Y-1353389D03*
G01*
X1454319Y-1373069D03*
D14*
G01*
X1435129Y-1423270D03*
D15*
G01*
X1399200Y-1468550D03*
D14*
G01*
X1363270Y-1423270D03*
D13*
G01*
X1399200Y-1395709D03*
D12*
G01*
X1344080Y-1373069D03*
G01*
X1344080Y-1353389D03*
G01*
X1344080Y-1333699D03*
D16*
G01*
X514671Y-1313038D03*
G01*
X534362Y-1313038D03*
G01*
X554042Y-1313038D03*
G01*
X573732Y-1313038D03*
D12*
G01*
X599319Y-1333699D03*
G01*
X599319Y-1353389D03*
G01*
X599319Y-1373069D03*
D14*
G01*
X580129Y-1423270D03*
D15*
G01*
X544200Y-1468550D03*
D14*
G01*
X508270Y-1423270D03*
D13*
G01*
X544200Y-1395709D03*
D12*
G01*
X489079Y-1373069D03*
G01*
X489079Y-1353389D03*
G01*
X489079Y-1333699D03*
D17*
G01*
X470000Y-307440D03*
G01*
X470000Y-362559D03*
G01*
X740000Y-287440D03*
G01*
X740000Y-342559D03*
D11*
G01*
X1182439Y-715000D03*
G01*
X1237560Y-715000D03*
D17*
G01*
X1845000Y-1212559D03*
G01*
X1845000Y-1157440D03*
G01*
X1610000Y-1212440D03*
G01*
X1610000Y-1267559D03*
D11*
G01*
X1247439Y-230000D03*
G01*
X1302560Y-230000D03*
D17*
G01*
X1440000Y-447559D03*
G01*
X1440000Y-392440D03*
D18*
G01*
X916459Y-1120000D03*
G01*
X973540Y-1120000D03*
G01*
X1366459Y-780000D03*
G01*
X1423540Y-780000D03*
G01*
X916459Y-780000D03*
G01*
X973540Y-780000D03*
G01*
X1366459Y-1125000D03*
G01*
X1423540Y-1125000D03*
D19*
G01*
X1679880Y-530000D03*
G01*
X1840119Y-530000D03*
G01*
X1679880Y-580000D03*
G01*
X1840119Y-580000D03*
G01*
X1679880Y-380000D03*
G01*
X1840119Y-380000D03*
G01*
X1679880Y-430000D03*
G01*
X1840119Y-430000D03*
G01*
X1679880Y-480000D03*
G01*
X1840119Y-480000D03*
D20*
G01*
X1425000Y-855500D03*
G01*
X1375000Y-855500D03*
G01*
X1325000Y-855500D03*
G01*
X1275000Y-855500D03*
G01*
X1225000Y-855500D03*
G01*
X1175000Y-855500D03*
G01*
X1125000Y-855500D03*
G01*
X1075000Y-855500D03*
G01*
X1075000Y-1044499D03*
G01*
X1125000Y-1044499D03*
G01*
X1175000Y-1044499D03*
G01*
X1225000Y-1044499D03*
G01*
X1275000Y-1044499D03*
G01*
X1325000Y-1044499D03*
G01*
X1375000Y-1044499D03*
G01*
X1425000Y-1044499D03*
G01*
X975000Y-855500D03*
G01*
X925000Y-855500D03*
G01*
X875000Y-855500D03*
G01*
X825000Y-855500D03*
G01*
X775000Y-855500D03*
G01*
X725000Y-855500D03*
G01*
X675000Y-855500D03*
G01*
X625000Y-855500D03*
G01*
X625000Y-1044499D03*
G01*
X675000Y-1044499D03*
G01*
X725000Y-1044499D03*
G01*
X775000Y-1044499D03*
G01*
X825000Y-1044499D03*
G01*
X875000Y-1044499D03*
G01*
X925000Y-1044499D03*
G01*
X975000Y-1044499D03*
D21*
G01*
X696469Y-669859D03*
G01*
X633519Y-670140D03*
D22*
G01*
X1084759Y-637020D03*
G01*
X1116260Y-637020D03*
G01*
X1147759Y-637020D03*
G01*
X1179250Y-637020D03*
G01*
X1210749Y-637020D03*
G01*
X1242240Y-637020D03*
G01*
X1273739Y-637020D03*
G01*
X1305240Y-637020D03*
D23*
G01*
X1362010Y-580250D03*
G01*
X1362010Y-548750D03*
G01*
X1362010Y-517249D03*
G01*
X1362010Y-485760D03*
G01*
X1362010Y-454259D03*
G01*
X1362010Y-422770D03*
G01*
X1362010Y-391269D03*
G01*
X1362010Y-359769D03*
D22*
G01*
X1305240Y-303000D03*
G01*
X1273739Y-303000D03*
G01*
X1242240Y-303000D03*
G01*
X1210749Y-303000D03*
G01*
X1179250Y-303000D03*
G01*
X1147759Y-303000D03*
G01*
X1116260Y-303000D03*
G01*
X1084759Y-303000D03*
D23*
G01*
X1027989Y-359769D03*
G01*
X1027989Y-391269D03*
G01*
X1027989Y-422770D03*
G01*
X1027989Y-454259D03*
G01*
X1027989Y-485760D03*
G01*
X1027989Y-517249D03*
G01*
X1027989Y-548750D03*
G01*
X1027989Y-580250D03*
D10*
G01*
X1120000Y-1495000D03*
G01*
X830000Y-1495000D03*
G01*
X1545000Y-1495000D03*
G01*
X1250000Y-1495000D03*
G01*
X690000Y-1495000D03*
G01*
X400000Y-1500000D03*
G36*
X293739Y-523029D02*
G01*
X293380Y-523009D01*
X293029Y-522950D01*
X292689Y-522840D01*
X292370Y-522689D01*
X292060Y-522510D01*
X291779Y-522289D01*
X291529Y-522040D01*
X291309Y-521759D01*
X291129Y-521449D01*
X290979Y-521129D01*
X290869Y-520790D01*
X290810Y-520429D01*
X290790Y-520079D01*
X290790Y-472440D01*
X290810Y-472080D01*
X290869Y-471729D01*
X290979Y-471390D01*
X291129Y-471069D01*
X291309Y-470759D01*
X291529Y-470479D01*
X291779Y-470229D01*
X292060Y-470010D01*
X292370Y-469830D01*
X292689Y-469679D01*
X293029Y-469570D01*
X293380Y-469509D01*
X293739Y-469490D01*
X311460Y-469490D01*
X311809Y-469509D01*
X312159Y-469570D01*
X312500Y-469679D01*
X312829Y-469830D01*
X313130Y-470010D01*
X313409Y-470229D01*
X313670Y-470479D01*
X313890Y-470759D01*
X314070Y-471069D01*
X314220Y-471390D01*
X314319Y-471729D01*
X314389Y-472080D01*
X314409Y-472440D01*
X314409Y-520079D01*
X314389Y-520429D01*
X314319Y-520790D01*
X314220Y-521129D01*
X314070Y-521449D01*
X313890Y-521759D01*
X313670Y-522040D01*
X313409Y-522289D01*
X313130Y-522510D01*
X312829Y-522689D01*
X312500Y-522840D01*
X312159Y-522950D01*
X311809Y-523009D01*
X311460Y-523029D01*
G37*
G36*
X331140Y-523029D02*
G01*
X330790Y-523009D01*
X330439Y-522950D01*
X330090Y-522840D01*
X329770Y-522689D01*
X329459Y-522510D01*
X329179Y-522289D01*
X328930Y-522040D01*
X328710Y-521759D01*
X328530Y-521449D01*
X328380Y-521129D01*
X328270Y-520790D01*
X328209Y-520429D01*
X328190Y-520079D01*
X328190Y-472440D01*
X328209Y-472080D01*
X328270Y-471729D01*
X328380Y-471390D01*
X328530Y-471069D01*
X328710Y-470759D01*
X328930Y-470479D01*
X329179Y-470229D01*
X329459Y-470010D01*
X329770Y-469830D01*
X330090Y-469679D01*
X330439Y-469570D01*
X330790Y-469509D01*
X331140Y-469490D01*
X348859Y-469490D01*
X349209Y-469509D01*
X349560Y-469570D01*
X349909Y-469679D01*
X350229Y-469830D01*
X350540Y-470010D01*
X350820Y-470229D01*
X351069Y-470479D01*
X351289Y-470759D01*
X351469Y-471069D01*
X351619Y-471390D01*
X351729Y-471729D01*
X351790Y-472080D01*
X351809Y-472440D01*
X351809Y-520079D01*
X351790Y-520429D01*
X351729Y-520790D01*
X351619Y-521129D01*
X351469Y-521449D01*
X351289Y-521759D01*
X351069Y-522040D01*
X350820Y-522289D01*
X350540Y-522510D01*
X350229Y-522689D01*
X349909Y-522840D01*
X349560Y-522950D01*
X349209Y-523009D01*
X348859Y-523029D01*
G37*
G36*
X368539Y-523029D02*
G01*
X368190Y-523009D01*
X367840Y-522950D01*
X367500Y-522840D01*
X367170Y-522689D01*
X366869Y-522510D01*
X366590Y-522289D01*
X366329Y-522040D01*
X366109Y-521759D01*
X365929Y-521449D01*
X365779Y-521129D01*
X365680Y-520790D01*
X365610Y-520429D01*
X365590Y-520079D01*
X365590Y-472440D01*
X365610Y-472080D01*
X365680Y-471729D01*
X365779Y-471390D01*
X365929Y-471069D01*
X366109Y-470759D01*
X366329Y-470479D01*
X366590Y-470229D01*
X366869Y-470010D01*
X367170Y-469830D01*
X367500Y-469679D01*
X367840Y-469570D01*
X368190Y-469509D01*
X368539Y-469490D01*
X386260Y-469490D01*
X386619Y-469509D01*
X386970Y-469570D01*
X387310Y-469679D01*
X387629Y-469830D01*
X387939Y-470010D01*
X388220Y-470229D01*
X388470Y-470479D01*
X388690Y-470759D01*
X388870Y-471069D01*
X389020Y-471390D01*
X389130Y-471729D01*
X389189Y-472080D01*
X389209Y-472440D01*
X389209Y-520079D01*
X389189Y-520429D01*
X389130Y-520790D01*
X389020Y-521129D01*
X388870Y-521449D01*
X388690Y-521759D01*
X388470Y-522040D01*
X388220Y-522289D01*
X387939Y-522510D01*
X387629Y-522689D01*
X387310Y-522840D01*
X386970Y-522950D01*
X386619Y-523009D01*
X386260Y-523029D01*
G37*
G36*
X368539Y-430509D02*
G01*
X368190Y-430490D01*
X367840Y-430429D01*
X367500Y-430320D01*
X367170Y-430169D01*
X366869Y-429989D01*
X366590Y-429770D01*
X366329Y-429520D01*
X366109Y-429240D01*
X365929Y-428930D01*
X365779Y-428609D01*
X365680Y-428270D01*
X365610Y-427919D01*
X365590Y-427559D01*
X365590Y-379920D01*
X365610Y-379570D01*
X365680Y-379209D01*
X365779Y-378870D01*
X365929Y-378550D01*
X366109Y-378240D01*
X366329Y-377959D01*
X366590Y-377710D01*
X366869Y-377489D01*
X367170Y-377310D01*
X367500Y-377159D01*
X367840Y-377049D01*
X368190Y-376990D01*
X368539Y-376970D01*
X386260Y-376970D01*
X386619Y-376990D01*
X386970Y-377049D01*
X387310Y-377159D01*
X387629Y-377310D01*
X387939Y-377489D01*
X388220Y-377710D01*
X388470Y-377959D01*
X388690Y-378240D01*
X388870Y-378550D01*
X389020Y-378870D01*
X389130Y-379209D01*
X389189Y-379570D01*
X389209Y-379920D01*
X389209Y-427559D01*
X389189Y-427919D01*
X389130Y-428270D01*
X389020Y-428609D01*
X388870Y-428930D01*
X388690Y-429240D01*
X388470Y-429520D01*
X388220Y-429770D01*
X387939Y-429989D01*
X387629Y-430169D01*
X387310Y-430320D01*
X386970Y-430429D01*
X386619Y-430490D01*
X386260Y-430509D01*
G37*
G36*
X293739Y-430509D02*
G01*
X293380Y-430490D01*
X293029Y-430429D01*
X292689Y-430320D01*
X292370Y-430169D01*
X292060Y-429989D01*
X291779Y-429770D01*
X291529Y-429520D01*
X291309Y-429240D01*
X291129Y-428930D01*
X290979Y-428609D01*
X290869Y-428270D01*
X290810Y-427919D01*
X290790Y-427559D01*
X290790Y-379920D01*
X290810Y-379570D01*
X290869Y-379209D01*
X290979Y-378870D01*
X291129Y-378550D01*
X291309Y-378240D01*
X291529Y-377959D01*
X291779Y-377710D01*
X292060Y-377489D01*
X292370Y-377310D01*
X292689Y-377159D01*
X293029Y-377049D01*
X293380Y-376990D01*
X293739Y-376970D01*
X311460Y-376970D01*
X311809Y-376990D01*
X312159Y-377049D01*
X312500Y-377159D01*
X312829Y-377310D01*
X313130Y-377489D01*
X313409Y-377710D01*
X313670Y-377959D01*
X313890Y-378240D01*
X314070Y-378550D01*
X314220Y-378870D01*
X314319Y-379209D01*
X314389Y-379570D01*
X314409Y-379920D01*
X314409Y-427559D01*
X314389Y-427919D01*
X314319Y-428270D01*
X314220Y-428609D01*
X314070Y-428930D01*
X313890Y-429240D01*
X313670Y-429520D01*
X313409Y-429770D01*
X313130Y-429989D01*
X312829Y-430169D01*
X312500Y-430320D01*
X312159Y-430429D01*
X311809Y-430490D01*
X311460Y-430509D01*
G37*
D24*
G01*
X562759Y-287600D03*
G01*
X562759Y-325000D03*
G01*
X562759Y-362399D03*
G01*
X657240Y-362399D03*
G01*
X657240Y-287600D03*
G01*
X1767240Y-1212399D03*
G01*
X1767240Y-1175000D03*
G01*
X1767240Y-1137600D03*
G01*
X1672759Y-1137600D03*
G01*
X1672759Y-1212399D03*
D25*
G01*
X165314Y-408814D03*
G01*
X165314Y-434410D03*
G01*
X165314Y-460000D03*
G01*
X165314Y-485589D03*
G01*
X165314Y-511185D03*
D26*
G01*
X156460Y-334020D03*
G01*
X156460Y-585979D03*
D27*
G01*
X60000Y-412759D03*
G01*
X60000Y-507240D03*
M02*
