G04 Layer: TopSolderMaskLayer*
G04 EasyEDA v6.5.22, 2022-12-05 22:01:04*
G04 d1a99e3ffb4d45b387634f4a3d5e2a22,8bbad783b4b447a482771b0ae512d992,10*
G04 Gerber Generator version 0.2*
G04 Scale: 100 percent, Rotated: No, Reflected: No *
G04 Dimensions in inches *
G04 leading zeros omitted , absolute positions ,3 integer and 6 decimal *
%FSLAX36Y36*%
%MOIN*%

%AMMACRO1*1,1,$1,$2,$3*1,1,$1,$4,$5*1,1,$1,0-$2,0-$3*1,1,$1,0-$4,0-$5*20,1,$1,$2,$3,$4,$5,0*20,1,$1,$4,$5,0-$2,0-$3,0*20,1,$1,0-$2,0-$3,0-$4,0-$5,0*20,1,$1,0-$4,0-$5,$2,$3,0*4,1,4,$2,$3,$4,$5,0-$2,0-$3,0-$4,0-$5,$2,$3,0*%
%AMMACRO2*4,1,4,-0.0069,-0.0138,-0.0069,0.0138,0.0069,0.0138,0.0069,-0.0138,-0.0069,-0.0138,0*%
%AMMACRO3*4,1,4,-0.007,-0.0138,-0.007,0.0138,0.007,0.0138,0.007,-0.0138,-0.007,-0.0138,0*%
%AMMACRO4*4,1,42,-0.0094,-0.0288,-0.01,-0.0286,-0.0112,-0.0282,-0.0117,-0.028,-0.0121,-0.0276,-0.0126,-0.0272,-0.0135,-0.0257,-0.0137,-0.0251,-0.0138,-0.0245,-0.0138,0.0243,-0.0137,0.0249,-0.0135,0.0255,-0.0132,0.0261,-0.0129,0.0266,-0.0126,0.027,-0.0121,0.0276,-0.0117,0.0278,-0.0112,0.0282,-0.0106,0.0284,-0.01,0.0286,-0.0094,0.0288,0.0094,0.0288,0.01,0.0286,0.0106,0.0284,0.0112,0.0282,0.0117,0.0278,0.0121,0.0276,0.0126,0.0272,0.0132,0.0261,0.0135,0.0255,0.0137,0.0249,0.0138,0.0245,0.0138,-0.0245,0.0137,-0.0251,0.0135,-0.0255,0.0132,-0.0261,0.0126,-0.0272,0.0121,-0.0276,0.0117,-0.028,0.0112,-0.0282,0.01,-0.0286,0.0094,-0.0288,-0.0094,-0.0288,0*%
%AMMACRO5*4,1,42,-0.0094,-0.0288,-0.01,-0.0286,-0.0112,-0.0282,-0.0117,-0.028,-0.0121,-0.0276,-0.0126,-0.0272,-0.0135,-0.0257,-0.0137,-0.0251,-0.0138,-0.0245,-0.0138,0.0243,-0.0137,0.0249,-0.0135,0.0255,-0.0132,0.0261,-0.0129,0.0266,-0.0126,0.027,-0.0121,0.0276,-0.0117,0.0278,-0.0112,0.0282,-0.0106,0.0284,-0.01,0.0286,-0.0094,0.0288,0.0094,0.0288,0.01,0.0286,0.0106,0.0284,0.0112,0.0282,0.0117,0.0278,0.0121,0.0276,0.0126,0.027,0.0129,0.0266,0.0132,0.0261,0.0135,0.0255,0.0137,0.0249,0.0138,0.0243,0.0138,-0.0245,0.0137,-0.0251,0.0135,-0.0257,0.0126,-0.0272,0.0121,-0.0276,0.0117,-0.028,0.0112,-0.0282,0.01,-0.0286,0.0094,-0.0288,-0.0094,-0.0288,0*%
%AMMACRO6*4,1,42,-0.0094,-0.0288,-0.01,-0.0286,-0.0112,-0.0282,-0.0117,-0.028,-0.0121,-0.0276,-0.0126,-0.0272,-0.0132,-0.0261,-0.0135,-0.0255,-0.0137,-0.0251,-0.0138,-0.0245,-0.0138,0.0245,-0.0137,0.0249,-0.0135,0.0255,-0.0132,0.0261,-0.0126,0.0272,-0.0121,0.0276,-0.0117,0.0278,-0.0112,0.0282,-0.0106,0.0284,-0.01,0.0286,-0.0094,0.0288,0.0094,0.0288,0.01,0.0286,0.0106,0.0284,0.0112,0.0282,0.0117,0.0278,0.0121,0.0276,0.0126,0.027,0.0129,0.0266,0.0132,0.0261,0.0135,0.0255,0.0137,0.0249,0.0138,0.0243,0.0138,-0.0245,0.0137,-0.0251,0.0135,-0.0257,0.0126,-0.0272,0.0121,-0.0276,0.0117,-0.028,0.0112,-0.0282,0.01,-0.0286,0.0094,-0.0288,-0.0094,-0.0288,0*%
%AMMACRO7*4,1,42,-0.0094,-0.0288,-0.01,-0.0286,-0.0106,-0.0284,-0.0112,-0.0282,-0.0117,-0.0278,-0.0121,-0.0276,-0.0126,-0.0272,-0.0132,-0.0261,-0.0135,-0.0255,-0.0137,-0.0249,-0.0138,-0.0245,-0.0138,0.0245,-0.0137,0.0251,-0.0135,0.0255,-0.0132,0.0261,-0.0126,0.0272,-0.0121,0.0276,-0.0117,0.028,-0.0112,0.0282,-0.01,0.0286,-0.0094,0.0288,0.0094,0.0288,0.01,0.0286,0.0112,0.0282,0.0117,0.028,0.0121,0.0276,0.0126,0.0272,0.0135,0.0257,0.0137,0.0251,0.0138,0.0245,0.0138,-0.0243,0.0137,-0.0249,0.0135,-0.0255,0.0132,-0.0261,0.0129,-0.0266,0.0126,-0.027,0.0121,-0.0276,0.0117,-0.0278,0.0112,-0.0282,0.0106,-0.0284,0.01,-0.0286,0.0094,-0.0288,-0.0094,-0.0288,0*%
%AMMACRO8*4,1,42,-0.0094,-0.0288,-0.01,-0.0286,-0.0106,-0.0284,-0.0112,-0.0282,-0.0117,-0.0278,-0.0121,-0.0276,-0.0126,-0.027,-0.0129,-0.0266,-0.0132,-0.0261,-0.0135,-0.0255,-0.0137,-0.0249,-0.0138,-0.0243,-0.0138,0.0245,-0.0137,0.0251,-0.0135,0.0257,-0.0126,0.0272,-0.0121,0.0276,-0.0117,0.028,-0.0112,0.0282,-0.01,0.0286,-0.0094,0.0288,0.0094,0.0288,0.01,0.0286,0.0112,0.0282,0.0117,0.028,0.0121,0.0276,0.0126,0.0272,0.0132,0.0261,0.0135,0.0255,0.0137,0.0251,0.0138,0.0245,0.0138,-0.0245,0.0137,-0.0249,0.0135,-0.0255,0.0132,-0.0261,0.0126,-0.0272,0.0121,-0.0276,0.0117,-0.0278,0.0112,-0.0282,0.0106,-0.0284,0.01,-0.0286,0.0094,-0.0288,-0.0094,-0.0288,0*%
%AMMACRO9*4,1,4,-0.0286,-0.0099,-0.0286,0.0099,0.0286,0.0099,0.0286,-0.0099,-0.0286,-0.0099,0*%
%ADD10MACRO1,0.004X-0.0591X0.0591X0.0591X0.0591*%
%ADD11MACRO1,0.004X-0.0157X0.0177X0.0157X0.0177*%
%ADD12MACRO1,0.004X0.0157X-0.0177X-0.0157X-0.0177*%
%ADD13MACRO1,0.004X-0.0118X0.0049X0.0118X0.0049*%
%ADD14MACRO1,0.004X-0.0689X0.0098X0.0689X0.0098*%
%ADD15MACRO1,0.004X-0.033X0.0098X0.033X0.0098*%
%ADD16MACRO1,0.004X-0.0689X0.0276X0.0689X0.0276*%
%ADD17MACRO2*%
%ADD18MACRO3*%
%ADD19MACRO1,0.004X-0.0177X-0.0157X-0.0177X0.0157*%
%ADD20MACRO1,0.004X0.0177X0.0157X0.0177X-0.0157*%
%ADD21MACRO1,0.004X-0.0187X-0.0207X-0.0187X0.0207*%
%ADD22MACRO1,0.0039X-0.0591X-0.0177X-0.0591X0.0177*%
%ADD23MACRO1,0.004X0.012X0.0405X0.012X-0.0405*%
%ADD24MACRO1,0.004X0.0267X-0.0267X-0.0267X-0.0267*%
%ADD25C,0.0575*%
%ADD26MACRO1,0.004X0.0267X0.0267X0.0267X-0.0267*%
%ADD27MACRO1,0.004X-0.0157X-0.0157X-0.0157X0.0157*%
%ADD28O,0.021638X0.070299*%
%ADD29O,0.070299X0.021638*%
%ADD30MACRO1,0.004X0.0591X-0.0591X-0.0591X-0.0591*%
%ADD31MACRO1,0.004X-0.017X0.0159X0.017X0.0159*%
%ADD32MACRO1,0.004X-0.017X-0.0159X0.017X-0.0159*%
%ADD33MACRO1,0.004X0.0159X0.017X0.0159X-0.017*%
%ADD34MACRO1,0.004X-0.0159X0.017X-0.0159X-0.017*%
%ADD35MACRO1,0.004X-0.0159X-0.017X-0.0159X0.017*%
%ADD36MACRO1,0.004X0.0159X-0.017X0.0159X0.017*%
%ADD37MACRO4*%
%ADD38MACRO5*%
%ADD39MACRO6*%
%ADD40MACRO7*%
%ADD41MACRO8*%
%ADD42MACRO1,0.004X0.0197X0.0138X0.0197X-0.0138*%
%ADD43MACRO1,0.004X-0.0197X-0.0138X-0.0197X0.0138*%
%ADD44MACRO9*%
%ADD45MACRO1,0.004X0.0276X0.0315X0.0276X-0.0315*%
%ADD46MACRO1,0.004X0.0374X0.0374X0.0374X-0.0374*%
%ADD47O,0.066992X0.039432999999999996*%
%ADD48O,0.0132X0.039432999999999996*%

%LPD*%
G36*
X1019479Y-1326800D02*
G01*
X1015540Y-1330740D01*
X1015540Y-1336660D01*
X1019479Y-1340580D01*
X1039160Y-1340580D01*
X1043100Y-1336660D01*
X1043100Y-1330740D01*
X1039160Y-1326800D01*
G37*
G36*
X1019479Y-1346500D02*
G01*
X1015540Y-1350440D01*
X1015540Y-1356339D01*
X1019479Y-1360280D01*
X1039160Y-1360280D01*
X1043100Y-1356339D01*
X1043100Y-1350440D01*
X1039160Y-1346500D01*
G37*
G36*
X1019479Y-1366180D02*
G01*
X1015540Y-1370120D01*
X1015540Y-1376020D01*
X1019479Y-1379960D01*
X1039160Y-1379960D01*
X1043100Y-1376020D01*
X1043100Y-1370120D01*
X1039160Y-1366180D01*
G37*
G36*
X909240Y-1326800D02*
G01*
X905300Y-1330740D01*
X905300Y-1336660D01*
X909240Y-1340580D01*
X928920Y-1340580D01*
X932860Y-1336660D01*
X932860Y-1330740D01*
X928920Y-1326800D01*
G37*
G36*
X909240Y-1346500D02*
G01*
X905300Y-1350440D01*
X905300Y-1356339D01*
X909240Y-1360280D01*
X928920Y-1360280D01*
X932860Y-1356339D01*
X932860Y-1350440D01*
X928920Y-1346500D01*
G37*
G36*
X909240Y-1366180D02*
G01*
X905300Y-1370120D01*
X905300Y-1376020D01*
X909240Y-1379960D01*
X928920Y-1379960D01*
X932860Y-1376020D01*
X932860Y-1370120D01*
X928920Y-1366180D01*
G37*
G36*
X941720Y-1299259D02*
G01*
X937780Y-1303180D01*
X937780Y-1322880D01*
X941720Y-1326800D01*
X947620Y-1326800D01*
X951560Y-1322880D01*
X951560Y-1303180D01*
X947620Y-1299259D01*
G37*
G36*
X961400Y-1299259D02*
G01*
X957480Y-1303180D01*
X957480Y-1322880D01*
X961400Y-1326800D01*
X967300Y-1326800D01*
X971260Y-1322880D01*
X971260Y-1303180D01*
X967300Y-1299259D01*
G37*
G36*
X981100Y-1299259D02*
G01*
X977159Y-1303180D01*
X977159Y-1322880D01*
X981100Y-1326800D01*
X987000Y-1326800D01*
X990920Y-1322880D01*
X990920Y-1303180D01*
X987000Y-1299259D01*
G37*
G36*
X1000780Y-1299259D02*
G01*
X996840Y-1303180D01*
X996840Y-1322880D01*
X1000780Y-1326800D01*
X1006680Y-1326800D01*
X1010620Y-1322880D01*
X1010620Y-1303180D01*
X1006680Y-1299259D01*
G37*
G36*
X921040Y-1442960D02*
G01*
X921040Y-1445900D01*
X909240Y-1445900D01*
X907260Y-1447880D01*
X907260Y-1453779D01*
X909240Y-1455740D01*
X921040Y-1455740D01*
X921040Y-1458700D01*
X939760Y-1458700D01*
X939760Y-1492160D01*
X941720Y-1494139D01*
X947620Y-1494139D01*
X949580Y-1492160D01*
X949580Y-1458700D01*
X959440Y-1458700D01*
X959440Y-1492160D01*
X961400Y-1494139D01*
X967300Y-1494139D01*
X969280Y-1492160D01*
X969280Y-1458700D01*
X979120Y-1458700D01*
X979120Y-1492160D01*
X981100Y-1494139D01*
X987000Y-1494139D01*
X988960Y-1492160D01*
X988960Y-1458700D01*
X998820Y-1458700D01*
X998820Y-1492160D01*
X1000780Y-1494139D01*
X1006680Y-1494139D01*
X1008640Y-1492160D01*
X1008640Y-1458700D01*
X1027340Y-1458700D01*
X1027340Y-1455740D01*
X1039160Y-1455740D01*
X1041140Y-1453779D01*
X1041140Y-1447880D01*
X1039160Y-1445900D01*
X1027340Y-1445900D01*
X1027340Y-1442960D01*
G37*
G36*
X981100Y-1415400D02*
G01*
X979120Y-1417360D01*
X979120Y-1429180D01*
X981100Y-1431140D01*
X1027340Y-1431140D01*
X1027340Y-1428180D01*
X1039160Y-1428180D01*
X1041140Y-1426220D01*
X1041140Y-1420320D01*
X1039160Y-1418340D01*
X1027340Y-1418340D01*
X1027340Y-1415400D01*
G37*
G36*
X921040Y-1415400D02*
G01*
X921040Y-1418340D01*
X909240Y-1418340D01*
X907260Y-1420320D01*
X907260Y-1426220D01*
X909240Y-1428180D01*
X921040Y-1428180D01*
X921040Y-1431140D01*
X967300Y-1431140D01*
X969280Y-1429180D01*
X969280Y-1417360D01*
X967300Y-1415400D01*
G37*
G36*
X981100Y-1387840D02*
G01*
X979120Y-1389800D01*
X979120Y-1401620D01*
X981100Y-1403580D01*
X1027340Y-1403580D01*
X1027340Y-1400620D01*
X1039160Y-1400620D01*
X1041140Y-1398660D01*
X1041140Y-1392760D01*
X1039160Y-1390780D01*
X1027340Y-1390780D01*
X1027340Y-1387840D01*
G37*
G36*
X921040Y-1387840D02*
G01*
X921040Y-1390780D01*
X909240Y-1390780D01*
X907260Y-1392760D01*
X907260Y-1398660D01*
X909240Y-1400620D01*
X921040Y-1400620D01*
X921040Y-1403580D01*
X967300Y-1403580D01*
X969280Y-1401620D01*
X969280Y-1389800D01*
X967300Y-1387840D01*
G37*
G36*
X1346040Y-1387840D02*
G01*
X1346040Y-1390800D01*
X1334240Y-1390800D01*
X1332260Y-1392760D01*
X1332260Y-1398660D01*
X1334240Y-1400640D01*
X1346040Y-1400640D01*
X1346040Y-1403600D01*
X1392300Y-1403600D01*
X1394280Y-1401620D01*
X1394280Y-1389820D01*
X1392300Y-1387840D01*
G37*
G36*
X1406080Y-1387840D02*
G01*
X1404120Y-1389800D01*
X1404120Y-1401620D01*
X1406080Y-1403580D01*
X1452340Y-1403580D01*
X1452340Y-1400640D01*
X1464160Y-1400640D01*
X1466120Y-1398660D01*
X1466120Y-1392760D01*
X1464160Y-1390800D01*
X1452340Y-1390800D01*
X1452340Y-1387840D01*
G37*
G36*
X1346040Y-1415400D02*
G01*
X1346040Y-1418360D01*
X1334240Y-1418360D01*
X1332260Y-1420320D01*
X1332260Y-1426220D01*
X1334240Y-1428200D01*
X1346040Y-1428200D01*
X1346040Y-1431160D01*
X1392300Y-1431160D01*
X1394280Y-1429180D01*
X1394280Y-1417380D01*
X1392300Y-1415400D01*
G37*
G36*
X1406080Y-1415400D02*
G01*
X1404120Y-1417360D01*
X1404120Y-1429180D01*
X1406080Y-1431140D01*
X1452340Y-1431140D01*
X1452340Y-1428200D01*
X1464160Y-1428200D01*
X1466120Y-1426220D01*
X1466120Y-1420320D01*
X1464160Y-1418360D01*
X1452340Y-1418360D01*
X1452340Y-1415400D01*
G37*
G36*
X1346040Y-1442960D02*
G01*
X1346040Y-1445920D01*
X1334240Y-1445920D01*
X1332260Y-1447880D01*
X1332260Y-1453779D01*
X1334240Y-1455760D01*
X1346040Y-1455760D01*
X1346040Y-1458700D01*
X1364740Y-1458700D01*
X1364740Y-1492180D01*
X1366720Y-1494139D01*
X1372620Y-1494139D01*
X1374580Y-1492180D01*
X1374580Y-1458700D01*
X1384440Y-1458700D01*
X1384440Y-1492180D01*
X1386399Y-1494139D01*
X1392300Y-1494139D01*
X1394280Y-1492180D01*
X1394280Y-1458700D01*
X1404120Y-1458700D01*
X1404120Y-1492180D01*
X1406080Y-1494139D01*
X1412000Y-1494139D01*
X1413959Y-1492180D01*
X1413959Y-1458700D01*
X1423800Y-1458700D01*
X1423800Y-1492180D01*
X1425760Y-1494139D01*
X1431680Y-1494139D01*
X1433640Y-1492180D01*
X1433640Y-1458700D01*
X1452340Y-1458700D01*
X1452340Y-1455760D01*
X1464160Y-1455760D01*
X1466120Y-1453779D01*
X1466120Y-1447880D01*
X1464160Y-1445920D01*
X1452340Y-1445920D01*
X1452340Y-1442960D01*
G37*
G36*
X1425760Y-1299259D02*
G01*
X1421840Y-1303200D01*
X1421840Y-1322880D01*
X1425760Y-1326819D01*
X1431680Y-1326819D01*
X1435620Y-1322880D01*
X1435620Y-1303200D01*
X1431680Y-1299259D01*
G37*
G36*
X1406080Y-1299259D02*
G01*
X1402140Y-1303200D01*
X1402140Y-1322880D01*
X1406080Y-1326819D01*
X1412000Y-1326819D01*
X1415920Y-1322880D01*
X1415920Y-1303200D01*
X1412000Y-1299259D01*
G37*
G36*
X1386399Y-1299259D02*
G01*
X1382460Y-1303200D01*
X1382460Y-1322880D01*
X1386399Y-1326819D01*
X1392300Y-1326819D01*
X1396240Y-1322880D01*
X1396240Y-1303200D01*
X1392300Y-1299259D01*
G37*
G36*
X1366720Y-1299259D02*
G01*
X1362780Y-1303200D01*
X1362780Y-1322880D01*
X1366720Y-1326819D01*
X1372620Y-1326819D01*
X1376560Y-1322880D01*
X1376560Y-1303200D01*
X1372620Y-1299259D01*
G37*
G36*
X1334240Y-1366180D02*
G01*
X1330300Y-1370120D01*
X1330300Y-1376040D01*
X1334240Y-1379960D01*
X1353920Y-1379960D01*
X1357860Y-1376040D01*
X1357860Y-1370120D01*
X1353920Y-1366180D01*
G37*
G36*
X1334240Y-1346500D02*
G01*
X1330300Y-1350440D01*
X1330300Y-1356339D01*
X1334240Y-1360280D01*
X1353920Y-1360280D01*
X1357860Y-1356339D01*
X1357860Y-1350440D01*
X1353920Y-1346500D01*
G37*
G36*
X1334240Y-1326819D02*
G01*
X1330300Y-1330760D01*
X1330300Y-1336660D01*
X1334240Y-1340600D01*
X1353920Y-1340600D01*
X1357860Y-1336660D01*
X1357860Y-1330760D01*
X1353920Y-1326819D01*
G37*
G36*
X1444480Y-1366180D02*
G01*
X1440540Y-1370120D01*
X1440540Y-1376040D01*
X1444480Y-1379960D01*
X1464160Y-1379960D01*
X1468100Y-1376040D01*
X1468100Y-1370120D01*
X1464160Y-1366180D01*
G37*
G36*
X1444480Y-1346500D02*
G01*
X1440540Y-1350440D01*
X1440540Y-1356339D01*
X1444480Y-1360280D01*
X1464160Y-1360280D01*
X1468100Y-1356339D01*
X1468100Y-1350440D01*
X1464160Y-1346500D01*
G37*
G36*
X1444480Y-1326819D02*
G01*
X1440540Y-1330760D01*
X1440540Y-1336660D01*
X1444480Y-1340600D01*
X1464160Y-1340600D01*
X1468100Y-1336660D01*
X1468100Y-1330760D01*
X1464160Y-1326819D01*
G37*
G36*
X491060Y-1387840D02*
G01*
X491060Y-1390800D01*
X479240Y-1390800D01*
X477280Y-1392760D01*
X477280Y-1398660D01*
X479240Y-1400640D01*
X491060Y-1400640D01*
X491060Y-1403600D01*
X537320Y-1403600D01*
X539280Y-1401620D01*
X539280Y-1389820D01*
X537320Y-1387840D01*
G37*
G36*
X551100Y-1387840D02*
G01*
X549120Y-1389800D01*
X549120Y-1401620D01*
X551100Y-1403580D01*
X597360Y-1403580D01*
X597360Y-1400640D01*
X609160Y-1400640D01*
X611140Y-1398660D01*
X611140Y-1392760D01*
X609160Y-1390800D01*
X597360Y-1390800D01*
X597360Y-1387840D01*
G37*
G36*
X491060Y-1415400D02*
G01*
X491060Y-1418360D01*
X479240Y-1418360D01*
X477280Y-1420320D01*
X477280Y-1426220D01*
X479240Y-1428200D01*
X491060Y-1428200D01*
X491060Y-1431160D01*
X537320Y-1431160D01*
X539280Y-1429180D01*
X539280Y-1417380D01*
X537320Y-1415400D01*
G37*
G36*
X551100Y-1415400D02*
G01*
X549120Y-1417360D01*
X549120Y-1429180D01*
X551100Y-1431140D01*
X597360Y-1431140D01*
X597360Y-1428200D01*
X609160Y-1428200D01*
X611140Y-1426220D01*
X611140Y-1420320D01*
X609160Y-1418360D01*
X597360Y-1418360D01*
X597360Y-1415400D01*
G37*
G36*
X491060Y-1442960D02*
G01*
X491060Y-1445920D01*
X479240Y-1445920D01*
X477280Y-1447880D01*
X477280Y-1453779D01*
X479240Y-1455760D01*
X491060Y-1455760D01*
X491060Y-1458700D01*
X509760Y-1458700D01*
X509760Y-1492180D01*
X511719Y-1494139D01*
X517640Y-1494139D01*
X519600Y-1492180D01*
X519600Y-1458700D01*
X529440Y-1458700D01*
X529440Y-1492180D01*
X531400Y-1494139D01*
X537320Y-1494139D01*
X539280Y-1492180D01*
X539280Y-1458700D01*
X549120Y-1458700D01*
X549120Y-1492180D01*
X551100Y-1494139D01*
X557000Y-1494139D01*
X558960Y-1492180D01*
X558960Y-1458700D01*
X568820Y-1458700D01*
X568820Y-1492180D01*
X570780Y-1494139D01*
X576680Y-1494139D01*
X578660Y-1492180D01*
X578660Y-1458700D01*
X597360Y-1458700D01*
X597360Y-1455760D01*
X609160Y-1455760D01*
X611140Y-1453779D01*
X611140Y-1447880D01*
X609160Y-1445920D01*
X597360Y-1445920D01*
X597360Y-1442960D01*
G37*
G36*
X570780Y-1299259D02*
G01*
X566840Y-1303200D01*
X566840Y-1322880D01*
X570780Y-1326819D01*
X576680Y-1326819D01*
X580620Y-1322880D01*
X580620Y-1303200D01*
X576680Y-1299259D01*
G37*
G36*
X551100Y-1299259D02*
G01*
X547160Y-1303200D01*
X547160Y-1322880D01*
X551100Y-1326819D01*
X557000Y-1326819D01*
X560940Y-1322880D01*
X560940Y-1303200D01*
X557000Y-1299259D01*
G37*
G36*
X531400Y-1299259D02*
G01*
X527480Y-1303200D01*
X527480Y-1322880D01*
X531400Y-1326819D01*
X537320Y-1326819D01*
X541260Y-1322880D01*
X541260Y-1303200D01*
X537320Y-1299259D01*
G37*
G36*
X511719Y-1299259D02*
G01*
X507780Y-1303200D01*
X507780Y-1322880D01*
X511719Y-1326819D01*
X517640Y-1326819D01*
X521560Y-1322880D01*
X521560Y-1303200D01*
X517640Y-1299259D01*
G37*
G36*
X479240Y-1366180D02*
G01*
X475300Y-1370120D01*
X475300Y-1376040D01*
X479240Y-1379960D01*
X498920Y-1379960D01*
X502860Y-1376040D01*
X502860Y-1370120D01*
X498920Y-1366180D01*
G37*
G36*
X479240Y-1346500D02*
G01*
X475300Y-1350440D01*
X475300Y-1356339D01*
X479240Y-1360280D01*
X498920Y-1360280D01*
X502860Y-1356339D01*
X502860Y-1350440D01*
X498920Y-1346500D01*
G37*
G36*
X479240Y-1326819D02*
G01*
X475300Y-1330760D01*
X475300Y-1336660D01*
X479240Y-1340600D01*
X498920Y-1340600D01*
X502860Y-1336660D01*
X502860Y-1330760D01*
X498920Y-1326819D01*
G37*
G36*
X589480Y-1366180D02*
G01*
X585540Y-1370120D01*
X585540Y-1376040D01*
X589480Y-1379960D01*
X609160Y-1379960D01*
X613100Y-1376040D01*
X613100Y-1370120D01*
X609160Y-1366180D01*
G37*
G36*
X589480Y-1346500D02*
G01*
X585540Y-1350440D01*
X585540Y-1356339D01*
X589480Y-1360280D01*
X609160Y-1360280D01*
X613100Y-1356339D01*
X613100Y-1350440D01*
X609160Y-1346500D01*
G37*
G36*
X589480Y-1326819D02*
G01*
X585540Y-1330760D01*
X585540Y-1336660D01*
X589480Y-1340600D01*
X609160Y-1340600D01*
X613100Y-1336660D01*
X613100Y-1330760D01*
X609160Y-1326819D01*
G37*
D10*
G01*
X1850727Y-1472722D03*
G01*
X1850727Y-1322722D03*
D11*
G01*
X1082559Y-730000D03*
G01*
X1027440Y-730000D03*
D12*
G01*
X1247440Y-160000D03*
G01*
X1302559Y-160000D03*
D13*
G01*
X919079Y-1333698D03*
G01*
X919079Y-1353388D03*
G01*
X919079Y-1373068D03*
D14*
G01*
X974200Y-1395707D03*
D15*
G01*
X938269Y-1423268D03*
D16*
G01*
X974200Y-1468548D03*
D15*
G01*
X1010130Y-1423268D03*
D13*
G01*
X1029320Y-1373068D03*
G01*
X1029320Y-1353388D03*
G01*
X1029320Y-1333698D03*
D17*
G01*
X1003750Y-1312999D03*
D18*
G01*
X984050Y-1312999D03*
G01*
X964349Y-1312999D03*
D17*
G01*
X944699Y-1312999D03*
G01*
X1369650Y-1313050D03*
D18*
G01*
X1389349Y-1313050D03*
G01*
X1409050Y-1313050D03*
D17*
G01*
X1428700Y-1313050D03*
D13*
G01*
X1454319Y-1333704D03*
G01*
X1454319Y-1353394D03*
G01*
X1454319Y-1373073D03*
D15*
G01*
X1435129Y-1423274D03*
D16*
G01*
X1399199Y-1468553D03*
D15*
G01*
X1363269Y-1423274D03*
D14*
G01*
X1399199Y-1395714D03*
D13*
G01*
X1344078Y-1373073D03*
G01*
X1344078Y-1353394D03*
G01*
X1344078Y-1333704D03*
D17*
G01*
X514700Y-1313050D03*
D18*
G01*
X534349Y-1313050D03*
D17*
G01*
X554049Y-1313050D03*
D18*
G01*
X573750Y-1313050D03*
D13*
G01*
X599321Y-1333704D03*
G01*
X599321Y-1353394D03*
G01*
X599321Y-1373073D03*
D15*
G01*
X580131Y-1423274D03*
D16*
G01*
X544202Y-1468553D03*
D15*
G01*
X508272Y-1423274D03*
D14*
G01*
X544202Y-1395714D03*
D13*
G01*
X489081Y-1373073D03*
G01*
X489081Y-1353394D03*
G01*
X489081Y-1333704D03*
D19*
G01*
X470000Y-307441D03*
G01*
X470000Y-362558D03*
G01*
X740000Y-287441D03*
G01*
X740000Y-342558D03*
D12*
G01*
X1182440Y-715000D03*
G01*
X1237559Y-715000D03*
D20*
G01*
X1845000Y-1212558D03*
G01*
X1845000Y-1157441D03*
D19*
G01*
X1610000Y-1212441D03*
G01*
X1610000Y-1267558D03*
D12*
G01*
X1247440Y-230000D03*
G01*
X1302559Y-230000D03*
D20*
G01*
X1440000Y-447558D03*
G01*
X1440000Y-392441D03*
D21*
G01*
X916459Y-1120000D03*
G01*
X973540Y-1120000D03*
G01*
X1366459Y-780000D03*
G01*
X1423540Y-780000D03*
G01*
X916459Y-780000D03*
G01*
X973540Y-780000D03*
G01*
X1366459Y-1125000D03*
G01*
X1423540Y-1125000D03*
D22*
G01*
X1679880Y-530000D03*
G01*
X1840119Y-530000D03*
G01*
X1679880Y-580000D03*
G01*
X1840119Y-580000D03*
G01*
X1679880Y-380000D03*
G01*
X1840119Y-380000D03*
G01*
X1679880Y-430000D03*
G01*
X1840119Y-430000D03*
G01*
X1679880Y-480000D03*
G01*
X1840119Y-480000D03*
D23*
G01*
X1425000Y-855499D03*
G01*
X1375000Y-855499D03*
G01*
X1325000Y-855499D03*
G01*
X1275000Y-855499D03*
G01*
X1225000Y-855499D03*
G01*
X1175000Y-855499D03*
G01*
X1125000Y-855499D03*
G01*
X1075000Y-855499D03*
G01*
X1075000Y-1044500D03*
G01*
X1125000Y-1044500D03*
G01*
X1175000Y-1044500D03*
G01*
X1225000Y-1044500D03*
G01*
X1275000Y-1044500D03*
G01*
X1325000Y-1044500D03*
G01*
X1375000Y-1044500D03*
G01*
X1425000Y-1044500D03*
G01*
X975000Y-855499D03*
G01*
X925000Y-855499D03*
G01*
X875000Y-855499D03*
G01*
X825000Y-855499D03*
G01*
X775000Y-855499D03*
G01*
X725000Y-855499D03*
G01*
X675000Y-855499D03*
G01*
X625000Y-855499D03*
G01*
X625000Y-1044500D03*
G01*
X675000Y-1044500D03*
G01*
X725000Y-1044500D03*
G01*
X775000Y-1044500D03*
G01*
X825000Y-1044500D03*
G01*
X875000Y-1044500D03*
G01*
X925000Y-1044500D03*
G01*
X975000Y-1044500D03*
D24*
G01*
X1600000Y-100000D03*
D25*
G01*
X1550000Y-200000D03*
G01*
X1500000Y-100000D03*
G01*
X1450000Y-200000D03*
D24*
G01*
X290000Y-90000D03*
D25*
G01*
X240000Y-190000D03*
G01*
X190000Y-90000D03*
G01*
X140000Y-190000D03*
D24*
G01*
X1050000Y-100000D03*
D25*
G01*
X1000000Y-200000D03*
G01*
X950000Y-100000D03*
G01*
X900000Y-200000D03*
D26*
G01*
X110000Y-1105000D03*
D25*
G01*
X210000Y-1155000D03*
G01*
X110000Y-1205000D03*
G01*
X210000Y-1255000D03*
D27*
G01*
X696474Y-669861D03*
G01*
X633521Y-670136D03*
D28*
G01*
X1084759Y-637020D03*
G01*
X1116260Y-637020D03*
G01*
X1147759Y-637020D03*
G01*
X1179250Y-637020D03*
G01*
X1210749Y-637020D03*
G01*
X1242240Y-637020D03*
G01*
X1273739Y-637020D03*
G01*
X1305240Y-637020D03*
D29*
G01*
X1362010Y-580250D03*
G01*
X1362010Y-548750D03*
G01*
X1362010Y-517249D03*
G01*
X1362010Y-485760D03*
G01*
X1362010Y-454259D03*
G01*
X1362010Y-422770D03*
G01*
X1362010Y-391269D03*
G01*
X1362010Y-359769D03*
D28*
G01*
X1305240Y-303000D03*
G01*
X1273739Y-303000D03*
G01*
X1242240Y-303000D03*
G01*
X1210749Y-303000D03*
G01*
X1179250Y-303000D03*
G01*
X1147759Y-303000D03*
G01*
X1116260Y-303000D03*
G01*
X1084759Y-303000D03*
D29*
G01*
X1027989Y-359769D03*
G01*
X1027989Y-391269D03*
G01*
X1027989Y-422770D03*
G01*
X1027989Y-454259D03*
G01*
X1027989Y-485760D03*
G01*
X1027989Y-517249D03*
G01*
X1027989Y-548750D03*
G01*
X1027989Y-580250D03*
D10*
G01*
X1120000Y-1495000D03*
D30*
G01*
X830000Y-1495000D03*
D10*
G01*
X1545000Y-1495000D03*
G01*
X1250000Y-1495000D03*
G01*
X690000Y-1495000D03*
G01*
X400000Y-1500000D03*
D31*
G01*
X845000Y-1354655D03*
D32*
G01*
X845000Y-1295344D03*
D33*
G01*
X965344Y-1245000D03*
D34*
G01*
X1024655Y-1245000D03*
D33*
G01*
X1390344Y-1245000D03*
D34*
G01*
X1449655Y-1245000D03*
D31*
G01*
X1270000Y-1354655D03*
D32*
G01*
X1270000Y-1295344D03*
D33*
G01*
X535344Y-1245000D03*
D34*
G01*
X594655Y-1245000D03*
D31*
G01*
X415000Y-1354655D03*
D32*
G01*
X415000Y-1295344D03*
D35*
G01*
X549655Y-670000D03*
D36*
G01*
X490344Y-670000D03*
D37*
G01*
X302599Y-496250D03*
D38*
G01*
X340000Y-496250D03*
D39*
G01*
X377400Y-496250D03*
D40*
G01*
X377400Y-403750D03*
D41*
G01*
X302599Y-403750D03*
D42*
G01*
X562755Y-287598D03*
G01*
X562755Y-325000D03*
G01*
X562755Y-362401D03*
G01*
X657244Y-362401D03*
G01*
X657244Y-287598D03*
D43*
G01*
X1767244Y-1212401D03*
G01*
X1767244Y-1175000D03*
G01*
X1767244Y-1137598D03*
G01*
X1672755Y-1137598D03*
G01*
X1672755Y-1212401D03*
D44*
G01*
X165299Y-408799D03*
G01*
X165299Y-434399D03*
G01*
X165299Y-460000D03*
G01*
X165299Y-485600D03*
G01*
X165299Y-511200D03*
D45*
G01*
X156459Y-334020D03*
G01*
X156459Y-585979D03*
D46*
G01*
X60000Y-412760D03*
G01*
X60000Y-507239D03*
D47*
G01*
X60000Y-330079D03*
G01*
X60000Y-589920D03*
M02*
