G04 Layer: BottomSilkscreenLayer*
G04 EasyEDA v6.5.22, 2022-12-05 22:01:04*
G04 d1a99e3ffb4d45b387634f4a3d5e2a22,8bbad783b4b447a482771b0ae512d992,10*
G04 Gerber Generator version 0.2*
G04 Scale: 100 percent, Rotated: No, Reflected: No *
G04 Dimensions in inches *
G04 leading zeros omitted , absolute positions ,3 integer and 6 decimal *
%FSLAX36Y36*%
%MOIN*%

%ADD10C,0.0060*%
%ADD11C,0.0100*%

%LPD*%
D10*
X1855000Y-1159600D02*
G01*
X1838599Y-1202500D01*
X1822299Y-1159600D02*
G01*
X1838599Y-1202500D01*
X1808800Y-1159600D02*
G01*
X1808800Y-1202500D01*
X1808800Y-1159600D02*
G01*
X1790399Y-1159600D01*
X1784200Y-1161599D01*
X1782200Y-1163699D01*
X1780100Y-1167800D01*
X1780100Y-1173899D01*
X1782200Y-1178000D01*
X1784200Y-1180000D01*
X1790399Y-1182100D01*
X1808800Y-1182100D01*
X1766599Y-1167800D02*
G01*
X1762500Y-1165700D01*
X1756400Y-1159600D01*
X1756400Y-1202500D01*
X1614799Y-1320700D02*
G01*
X1610699Y-1318600D01*
X1606599Y-1314499D01*
X1604600Y-1310500D01*
X1604600Y-1302300D01*
X1606599Y-1298200D01*
X1610699Y-1294099D01*
X1614799Y-1291999D01*
X1621000Y-1290000D01*
X1631199Y-1290000D01*
X1637299Y-1291999D01*
X1641400Y-1294099D01*
X1645500Y-1298200D01*
X1647500Y-1302300D01*
X1647500Y-1310500D01*
X1645500Y-1314499D01*
X1641400Y-1318600D01*
X1637299Y-1320700D01*
X1612799Y-1334200D02*
G01*
X1610699Y-1338299D01*
X1604600Y-1344400D01*
X1647500Y-1344400D01*
X1539799Y-1305700D02*
G01*
X1535699Y-1303600D01*
X1531599Y-1299499D01*
X1529600Y-1295500D01*
X1529600Y-1287300D01*
X1531599Y-1283200D01*
X1535699Y-1279099D01*
X1539799Y-1276999D01*
X1546000Y-1275000D01*
X1556199Y-1275000D01*
X1562299Y-1276999D01*
X1566400Y-1279099D01*
X1570500Y-1283200D01*
X1572500Y-1287300D01*
X1572500Y-1295500D01*
X1570500Y-1299499D01*
X1566400Y-1303600D01*
X1562299Y-1305700D01*
X1539799Y-1321199D02*
G01*
X1537799Y-1321199D01*
X1533699Y-1323299D01*
X1531599Y-1325300D01*
X1529600Y-1329400D01*
X1529600Y-1337600D01*
X1531599Y-1341700D01*
X1533699Y-1343699D01*
X1537799Y-1345799D01*
X1541899Y-1345799D01*
X1546000Y-1343699D01*
X1552100Y-1339600D01*
X1572500Y-1319200D01*
X1572500Y-1347800D01*
X1459799Y-1305700D02*
G01*
X1455699Y-1303600D01*
X1451599Y-1299499D01*
X1449600Y-1295500D01*
X1449600Y-1287300D01*
X1451599Y-1283200D01*
X1455699Y-1279099D01*
X1459799Y-1276999D01*
X1466000Y-1275000D01*
X1476199Y-1275000D01*
X1482299Y-1276999D01*
X1486400Y-1279099D01*
X1490500Y-1283200D01*
X1492500Y-1287300D01*
X1492500Y-1295500D01*
X1490500Y-1299499D01*
X1486400Y-1303600D01*
X1482299Y-1305700D01*
X1449600Y-1323299D02*
G01*
X1449600Y-1345799D01*
X1466000Y-1333499D01*
X1466000Y-1339600D01*
X1468000Y-1343699D01*
X1470000Y-1345799D01*
X1476199Y-1347800D01*
X1480299Y-1347800D01*
X1486400Y-1345799D01*
X1490500Y-1341700D01*
X1492500Y-1335500D01*
X1492500Y-1329400D01*
X1490500Y-1323299D01*
X1488500Y-1321199D01*
X1484399Y-1319200D01*
X1374799Y-1305700D02*
G01*
X1370699Y-1303600D01*
X1366599Y-1299499D01*
X1364600Y-1295500D01*
X1364600Y-1287300D01*
X1366599Y-1283200D01*
X1370699Y-1279099D01*
X1374799Y-1276999D01*
X1381000Y-1275000D01*
X1391199Y-1275000D01*
X1397299Y-1276999D01*
X1401400Y-1279099D01*
X1405500Y-1283200D01*
X1407500Y-1287300D01*
X1407500Y-1295500D01*
X1405500Y-1299499D01*
X1401400Y-1303600D01*
X1397299Y-1305700D01*
X1364600Y-1339600D02*
G01*
X1393199Y-1319200D01*
X1393199Y-1349899D01*
X1364600Y-1339600D02*
G01*
X1407500Y-1339600D01*
X1299799Y-1305700D02*
G01*
X1295699Y-1303600D01*
X1291599Y-1299499D01*
X1289600Y-1295500D01*
X1289600Y-1287300D01*
X1291599Y-1283200D01*
X1295699Y-1279099D01*
X1299799Y-1276999D01*
X1306000Y-1275000D01*
X1316199Y-1275000D01*
X1322299Y-1276999D01*
X1326400Y-1279099D01*
X1330500Y-1283200D01*
X1332500Y-1287300D01*
X1332500Y-1295500D01*
X1330500Y-1299499D01*
X1326400Y-1303600D01*
X1322299Y-1305700D01*
X1289600Y-1343699D02*
G01*
X1289600Y-1323299D01*
X1308000Y-1321199D01*
X1306000Y-1323299D01*
X1303900Y-1329400D01*
X1303900Y-1335500D01*
X1306000Y-1341700D01*
X1310000Y-1345799D01*
X1316199Y-1347800D01*
X1320299Y-1347800D01*
X1326400Y-1345799D01*
X1330500Y-1341700D01*
X1332500Y-1335500D01*
X1332500Y-1329400D01*
X1330500Y-1323299D01*
X1328500Y-1321199D01*
X1324399Y-1319200D01*
X1214799Y-1305700D02*
G01*
X1210699Y-1303600D01*
X1206599Y-1299499D01*
X1204600Y-1295500D01*
X1204600Y-1287300D01*
X1206599Y-1283200D01*
X1210699Y-1279099D01*
X1214799Y-1276999D01*
X1221000Y-1275000D01*
X1231199Y-1275000D01*
X1237299Y-1276999D01*
X1241400Y-1279099D01*
X1245500Y-1283200D01*
X1247500Y-1287300D01*
X1247500Y-1295500D01*
X1245500Y-1299499D01*
X1241400Y-1303600D01*
X1237299Y-1305700D01*
X1210699Y-1343699D02*
G01*
X1206599Y-1341700D01*
X1204600Y-1335500D01*
X1204600Y-1331500D01*
X1206599Y-1325300D01*
X1212799Y-1321199D01*
X1223000Y-1319200D01*
X1233199Y-1319200D01*
X1241400Y-1321199D01*
X1245500Y-1325300D01*
X1247500Y-1331500D01*
X1247500Y-1333499D01*
X1245500Y-1339600D01*
X1241400Y-1343699D01*
X1235299Y-1345799D01*
X1233199Y-1345799D01*
X1227100Y-1343699D01*
X1223000Y-1339600D01*
X1221000Y-1333499D01*
X1221000Y-1331500D01*
X1223000Y-1325300D01*
X1227100Y-1321199D01*
X1233199Y-1319200D01*
X1139799Y-1305700D02*
G01*
X1135699Y-1303600D01*
X1131599Y-1299499D01*
X1129600Y-1295500D01*
X1129600Y-1287300D01*
X1131599Y-1283200D01*
X1135699Y-1279099D01*
X1139799Y-1276999D01*
X1146000Y-1275000D01*
X1156199Y-1275000D01*
X1162299Y-1276999D01*
X1166400Y-1279099D01*
X1170500Y-1283200D01*
X1172500Y-1287300D01*
X1172500Y-1295500D01*
X1170500Y-1299499D01*
X1166400Y-1303600D01*
X1162299Y-1305700D01*
X1129600Y-1347800D02*
G01*
X1172500Y-1327399D01*
X1129600Y-1319200D02*
G01*
X1129600Y-1347800D01*
X1059799Y-1305700D02*
G01*
X1055699Y-1303600D01*
X1051599Y-1299499D01*
X1049600Y-1295500D01*
X1049600Y-1287300D01*
X1051599Y-1283200D01*
X1055699Y-1279099D01*
X1059799Y-1276999D01*
X1066000Y-1275000D01*
X1076199Y-1275000D01*
X1082299Y-1276999D01*
X1086400Y-1279099D01*
X1090500Y-1283200D01*
X1092500Y-1287300D01*
X1092500Y-1295500D01*
X1090500Y-1299499D01*
X1086400Y-1303600D01*
X1082299Y-1305700D01*
X1049600Y-1329400D02*
G01*
X1051599Y-1323299D01*
X1055699Y-1321199D01*
X1059799Y-1321199D01*
X1063900Y-1323299D01*
X1066000Y-1327399D01*
X1068000Y-1335500D01*
X1070000Y-1341700D01*
X1074099Y-1345799D01*
X1078199Y-1347800D01*
X1084399Y-1347800D01*
X1088500Y-1345799D01*
X1090500Y-1343699D01*
X1092500Y-1337600D01*
X1092500Y-1329400D01*
X1090500Y-1323299D01*
X1088500Y-1321199D01*
X1084399Y-1319200D01*
X1078199Y-1319200D01*
X1074099Y-1321199D01*
X1070000Y-1325300D01*
X1068000Y-1331500D01*
X1066000Y-1339600D01*
X1063900Y-1343699D01*
X1059799Y-1345799D01*
X1055699Y-1345799D01*
X1051599Y-1343699D01*
X1049600Y-1337600D01*
X1049600Y-1329400D01*
X974799Y-1305700D02*
G01*
X970699Y-1303600D01*
X966599Y-1299499D01*
X964600Y-1295500D01*
X964600Y-1287300D01*
X966599Y-1283200D01*
X970699Y-1279099D01*
X974799Y-1276999D01*
X981000Y-1275000D01*
X991199Y-1275000D01*
X997299Y-1276999D01*
X1001400Y-1279099D01*
X1005500Y-1283200D01*
X1007500Y-1287300D01*
X1007500Y-1295500D01*
X1005500Y-1299499D01*
X1001400Y-1303600D01*
X997299Y-1305700D01*
X978900Y-1345799D02*
G01*
X985000Y-1343699D01*
X989099Y-1339600D01*
X991199Y-1333499D01*
X991199Y-1331500D01*
X989099Y-1325300D01*
X985000Y-1321199D01*
X978900Y-1319200D01*
X976899Y-1319200D01*
X970699Y-1321199D01*
X966599Y-1325300D01*
X964600Y-1331500D01*
X964600Y-1333499D01*
X966599Y-1339600D01*
X970699Y-1343699D01*
X978900Y-1345799D01*
X989099Y-1345799D01*
X999399Y-1343699D01*
X1005500Y-1339600D01*
X1007500Y-1333499D01*
X1007500Y-1329400D01*
X1005500Y-1323299D01*
X1001400Y-1321199D01*
X899799Y-1280700D02*
G01*
X895699Y-1278600D01*
X891599Y-1274499D01*
X889600Y-1270500D01*
X889600Y-1262300D01*
X891599Y-1258200D01*
X895699Y-1254099D01*
X899799Y-1251999D01*
X906000Y-1250000D01*
X916199Y-1250000D01*
X922299Y-1251999D01*
X926400Y-1254099D01*
X930500Y-1258200D01*
X932500Y-1262300D01*
X932500Y-1270500D01*
X930500Y-1274499D01*
X926400Y-1278600D01*
X922299Y-1280700D01*
X897799Y-1294200D02*
G01*
X895699Y-1298299D01*
X889600Y-1304400D01*
X932500Y-1304400D01*
X889600Y-1330199D02*
G01*
X891599Y-1324000D01*
X897799Y-1320000D01*
X908000Y-1317899D01*
X914099Y-1317899D01*
X924399Y-1320000D01*
X930500Y-1324000D01*
X932500Y-1330199D01*
X932500Y-1334299D01*
X930500Y-1340399D01*
X924399Y-1344499D01*
X914099Y-1346500D01*
X908000Y-1346500D01*
X897799Y-1344499D01*
X891599Y-1340399D01*
X889600Y-1334299D01*
X889600Y-1330199D01*
X819799Y-1295700D02*
G01*
X815699Y-1293600D01*
X811599Y-1289499D01*
X809600Y-1285500D01*
X809600Y-1277300D01*
X811599Y-1273200D01*
X815699Y-1269099D01*
X819799Y-1266999D01*
X826000Y-1265000D01*
X836199Y-1265000D01*
X842299Y-1266999D01*
X846400Y-1269099D01*
X850500Y-1273200D01*
X852500Y-1277300D01*
X852500Y-1285500D01*
X850500Y-1289499D01*
X846400Y-1293600D01*
X842299Y-1295700D01*
X817799Y-1309200D02*
G01*
X815699Y-1313299D01*
X809600Y-1319400D01*
X852500Y-1319400D01*
X817799Y-1332899D02*
G01*
X815699Y-1336999D01*
X809600Y-1343099D01*
X852500Y-1343099D01*
X734800Y-1280700D02*
G01*
X730700Y-1278600D01*
X726599Y-1274499D01*
X724600Y-1270500D01*
X724600Y-1262300D01*
X726599Y-1258200D01*
X730700Y-1254099D01*
X734800Y-1251999D01*
X740999Y-1250000D01*
X751199Y-1250000D01*
X757300Y-1251999D01*
X761400Y-1254099D01*
X765500Y-1258200D01*
X767500Y-1262300D01*
X767500Y-1270500D01*
X765500Y-1274499D01*
X761400Y-1278600D01*
X757300Y-1280700D01*
X732800Y-1294200D02*
G01*
X730700Y-1298299D01*
X724600Y-1304400D01*
X767500Y-1304400D01*
X734800Y-1320000D02*
G01*
X732800Y-1320000D01*
X728699Y-1321999D01*
X726599Y-1324000D01*
X724600Y-1328099D01*
X724600Y-1336300D01*
X726599Y-1340399D01*
X728699Y-1342500D01*
X732800Y-1344499D01*
X736900Y-1344499D01*
X740999Y-1342500D01*
X747100Y-1338400D01*
X767500Y-1317899D01*
X767500Y-1346500D01*
X287698Y-1284214D02*
G01*
X283598Y-1282114D01*
X279499Y-1278015D01*
X277498Y-1274014D01*
X277498Y-1265814D01*
X279499Y-1261714D01*
X283598Y-1257615D01*
X287698Y-1255515D01*
X293899Y-1253515D01*
X304099Y-1253515D01*
X310198Y-1255515D01*
X314299Y-1257615D01*
X318398Y-1261714D01*
X320399Y-1265814D01*
X320399Y-1274014D01*
X318398Y-1278015D01*
X314299Y-1282114D01*
X310198Y-1284214D01*
X285698Y-1297714D02*
G01*
X283598Y-1301815D01*
X277498Y-1307914D01*
X320399Y-1307914D01*
X277498Y-1325515D02*
G01*
X277498Y-1348015D01*
X293899Y-1335715D01*
X293899Y-1341914D01*
X295898Y-1346015D01*
X297899Y-1348015D01*
X304099Y-1350014D01*
X308198Y-1350014D01*
X314299Y-1348015D01*
X318398Y-1343915D01*
X320399Y-1337815D01*
X320399Y-1331615D01*
X318398Y-1325515D01*
X316399Y-1323515D01*
X312298Y-1321415D01*
X349798Y-1280695D02*
G01*
X345698Y-1278595D01*
X341599Y-1274495D01*
X339598Y-1270495D01*
X339598Y-1262294D01*
X341599Y-1258195D01*
X345698Y-1254095D01*
X349798Y-1251995D01*
X355999Y-1249994D01*
X366199Y-1249994D01*
X372298Y-1251995D01*
X376399Y-1254095D01*
X380498Y-1258195D01*
X382498Y-1262294D01*
X382498Y-1270495D01*
X380498Y-1274495D01*
X376399Y-1278595D01*
X372298Y-1280695D01*
X347799Y-1294194D02*
G01*
X345698Y-1298294D01*
X339598Y-1304394D01*
X382498Y-1304394D01*
X339598Y-1338395D02*
G01*
X368198Y-1317894D01*
X368198Y-1348595D01*
X339598Y-1338395D02*
G01*
X382498Y-1338395D01*
X424798Y-1280695D02*
G01*
X420698Y-1278595D01*
X416599Y-1274495D01*
X414598Y-1270495D01*
X414598Y-1262294D01*
X416599Y-1258195D01*
X420698Y-1254095D01*
X424798Y-1251995D01*
X430999Y-1249994D01*
X441199Y-1249994D01*
X447298Y-1251995D01*
X451399Y-1254095D01*
X455498Y-1258195D01*
X457498Y-1262294D01*
X457498Y-1270495D01*
X455498Y-1274495D01*
X451399Y-1278595D01*
X447298Y-1280695D01*
X422799Y-1294194D02*
G01*
X420698Y-1298294D01*
X414598Y-1304394D01*
X457498Y-1304394D01*
X414598Y-1342494D02*
G01*
X414598Y-1321995D01*
X432998Y-1319994D01*
X430999Y-1321995D01*
X428899Y-1328094D01*
X428899Y-1334295D01*
X430999Y-1340394D01*
X434998Y-1344495D01*
X441199Y-1346495D01*
X445299Y-1346495D01*
X451399Y-1344495D01*
X455498Y-1340394D01*
X457498Y-1334295D01*
X457498Y-1328094D01*
X455498Y-1321995D01*
X453499Y-1319994D01*
X449398Y-1317894D01*
X499798Y-1280695D02*
G01*
X495698Y-1278595D01*
X491599Y-1274495D01*
X489598Y-1270495D01*
X489598Y-1262294D01*
X491599Y-1258195D01*
X495698Y-1254095D01*
X499798Y-1251995D01*
X505999Y-1249994D01*
X516199Y-1249994D01*
X522298Y-1251995D01*
X526399Y-1254095D01*
X530498Y-1258195D01*
X532498Y-1262294D01*
X532498Y-1270495D01*
X530498Y-1274495D01*
X526399Y-1278595D01*
X522298Y-1280695D01*
X497799Y-1294194D02*
G01*
X495698Y-1298294D01*
X489598Y-1304394D01*
X532498Y-1304394D01*
X495698Y-1342494D02*
G01*
X491599Y-1340394D01*
X489598Y-1334295D01*
X489598Y-1330194D01*
X491599Y-1323995D01*
X497799Y-1319994D01*
X507998Y-1317894D01*
X518198Y-1317894D01*
X526399Y-1319994D01*
X530498Y-1323995D01*
X532498Y-1330194D01*
X532498Y-1332195D01*
X530498Y-1338395D01*
X526399Y-1342494D01*
X520299Y-1344495D01*
X518198Y-1344495D01*
X512098Y-1342494D01*
X507998Y-1338395D01*
X505999Y-1332195D01*
X505999Y-1330194D01*
X507998Y-1323995D01*
X512098Y-1319994D01*
X518198Y-1317894D01*
X579798Y-1280695D02*
G01*
X575698Y-1278595D01*
X571599Y-1274495D01*
X569598Y-1270495D01*
X569598Y-1262294D01*
X571599Y-1258195D01*
X575698Y-1254095D01*
X579798Y-1251995D01*
X585999Y-1249994D01*
X596199Y-1249994D01*
X602298Y-1251995D01*
X606399Y-1254095D01*
X610498Y-1258195D01*
X612498Y-1262294D01*
X612498Y-1270495D01*
X610498Y-1274495D01*
X606399Y-1278595D01*
X602298Y-1280695D01*
X577799Y-1294194D02*
G01*
X575698Y-1298294D01*
X569598Y-1304394D01*
X612498Y-1304394D01*
X569598Y-1346495D02*
G01*
X612498Y-1326095D01*
X569598Y-1317894D02*
G01*
X569598Y-1346495D01*
X654798Y-1280695D02*
G01*
X650698Y-1278595D01*
X646599Y-1274495D01*
X644598Y-1270495D01*
X644598Y-1262294D01*
X646599Y-1258195D01*
X650698Y-1254095D01*
X654798Y-1251995D01*
X660999Y-1249994D01*
X671199Y-1249994D01*
X677298Y-1251995D01*
X681399Y-1254095D01*
X685498Y-1258195D01*
X687498Y-1262294D01*
X687498Y-1270495D01*
X685498Y-1274495D01*
X681399Y-1278595D01*
X677298Y-1280695D01*
X652799Y-1294194D02*
G01*
X650698Y-1298294D01*
X644598Y-1304394D01*
X687498Y-1304394D01*
X644598Y-1328094D02*
G01*
X646599Y-1321995D01*
X650698Y-1319994D01*
X654798Y-1319994D01*
X658899Y-1321995D01*
X660999Y-1326095D01*
X662998Y-1334295D01*
X664998Y-1340394D01*
X669099Y-1344495D01*
X673198Y-1346495D01*
X679398Y-1346495D01*
X683499Y-1344495D01*
X685498Y-1342494D01*
X687498Y-1336295D01*
X687498Y-1328094D01*
X685498Y-1321995D01*
X683499Y-1319994D01*
X679398Y-1317894D01*
X673198Y-1317894D01*
X669099Y-1319994D01*
X664998Y-1323995D01*
X662998Y-1330194D01*
X660999Y-1338395D01*
X658899Y-1342494D01*
X654798Y-1344495D01*
X650698Y-1344495D01*
X646599Y-1342494D01*
X644598Y-1336295D01*
X644598Y-1328094D01*
X1887887Y-1414457D02*
G01*
X1726374Y-1414457D01*
X1887887Y-1215542D02*
G01*
X1726374Y-1215542D01*
X1726374Y-1414457D02*
G01*
X1726374Y-1215542D01*
X1594426Y-1506305D02*
G01*
X1594426Y-1450794D01*
X1665576Y-1450794D02*
G01*
X1665576Y-1506305D01*
X1659575Y-1512305D02*
G01*
X1600425Y-1512305D01*
X1594426Y-1363692D02*
G01*
X1594426Y-1419203D01*
X1665576Y-1419203D02*
G01*
X1665576Y-1363692D01*
X1659575Y-1357692D02*
G01*
X1600425Y-1357692D01*
X1514426Y-1506305D02*
G01*
X1514426Y-1450794D01*
X1585576Y-1450794D02*
G01*
X1585576Y-1506305D01*
X1579575Y-1512305D02*
G01*
X1520425Y-1512305D01*
X1514426Y-1363692D02*
G01*
X1514426Y-1419203D01*
X1585576Y-1419203D02*
G01*
X1585576Y-1363692D01*
X1579575Y-1357692D02*
G01*
X1520425Y-1357692D01*
X1434426Y-1506305D02*
G01*
X1434426Y-1450794D01*
X1505576Y-1450794D02*
G01*
X1505576Y-1506305D01*
X1499575Y-1512305D02*
G01*
X1440425Y-1512305D01*
X1434426Y-1363692D02*
G01*
X1434426Y-1419203D01*
X1505576Y-1419203D02*
G01*
X1505576Y-1363692D01*
X1499575Y-1357692D02*
G01*
X1440425Y-1357692D01*
X1354426Y-1506305D02*
G01*
X1354426Y-1450794D01*
X1425576Y-1450794D02*
G01*
X1425576Y-1506305D01*
X1419575Y-1512305D02*
G01*
X1360425Y-1512305D01*
X1354426Y-1363692D02*
G01*
X1354426Y-1419203D01*
X1425576Y-1419203D02*
G01*
X1425576Y-1363692D01*
X1419575Y-1357692D02*
G01*
X1360425Y-1357692D01*
X1274426Y-1506305D02*
G01*
X1274426Y-1450794D01*
X1345576Y-1450794D02*
G01*
X1345576Y-1506305D01*
X1339575Y-1512305D02*
G01*
X1280425Y-1512305D01*
X1274426Y-1363692D02*
G01*
X1274426Y-1419203D01*
X1345576Y-1419203D02*
G01*
X1345576Y-1363692D01*
X1339575Y-1357692D02*
G01*
X1280425Y-1357692D01*
X1194426Y-1506305D02*
G01*
X1194426Y-1450794D01*
X1265576Y-1450794D02*
G01*
X1265576Y-1506305D01*
X1259575Y-1512305D02*
G01*
X1200425Y-1512305D01*
X1194426Y-1363692D02*
G01*
X1194426Y-1419203D01*
X1265576Y-1419203D02*
G01*
X1265576Y-1363692D01*
X1259575Y-1357692D02*
G01*
X1200425Y-1357692D01*
X1114425Y-1506307D02*
G01*
X1114425Y-1450794D01*
X1185574Y-1450794D02*
G01*
X1185574Y-1506307D01*
X1179575Y-1512307D02*
G01*
X1120424Y-1512307D01*
X1114425Y-1363692D02*
G01*
X1114425Y-1419205D01*
X1185574Y-1419205D02*
G01*
X1185574Y-1363692D01*
X1179575Y-1357692D02*
G01*
X1120424Y-1357692D01*
X1034425Y-1506307D02*
G01*
X1034425Y-1450794D01*
X1105574Y-1450794D02*
G01*
X1105574Y-1506307D01*
X1099575Y-1512307D02*
G01*
X1040424Y-1512307D01*
X1034425Y-1363692D02*
G01*
X1034425Y-1419205D01*
X1105574Y-1419205D02*
G01*
X1105574Y-1363692D01*
X1099575Y-1357692D02*
G01*
X1040424Y-1357692D01*
X954425Y-1506307D02*
G01*
X954425Y-1450794D01*
X1025574Y-1450794D02*
G01*
X1025574Y-1506307D01*
X1019575Y-1512307D02*
G01*
X960424Y-1512307D01*
X954425Y-1363692D02*
G01*
X954425Y-1419205D01*
X1025574Y-1419205D02*
G01*
X1025574Y-1363692D01*
X1019575Y-1357692D02*
G01*
X960424Y-1357692D01*
X874425Y-1506307D02*
G01*
X874425Y-1450794D01*
X945574Y-1450794D02*
G01*
X945574Y-1506307D01*
X939575Y-1512307D02*
G01*
X880424Y-1512307D01*
X874425Y-1363692D02*
G01*
X874425Y-1419205D01*
X945574Y-1419205D02*
G01*
X945574Y-1363692D01*
X939575Y-1357692D02*
G01*
X880424Y-1357692D01*
X794425Y-1506307D02*
G01*
X794425Y-1450794D01*
X865574Y-1450794D02*
G01*
X865574Y-1506307D01*
X859575Y-1512307D02*
G01*
X800424Y-1512307D01*
X794425Y-1363692D02*
G01*
X794425Y-1419205D01*
X865574Y-1419205D02*
G01*
X865574Y-1363692D01*
X859575Y-1357692D02*
G01*
X800424Y-1357692D01*
X714425Y-1506307D02*
G01*
X714425Y-1450794D01*
X785574Y-1450794D02*
G01*
X785574Y-1506307D01*
X779575Y-1512307D02*
G01*
X720425Y-1512307D01*
X714425Y-1363692D02*
G01*
X714425Y-1419205D01*
X785574Y-1419205D02*
G01*
X785574Y-1363692D01*
X779575Y-1357692D02*
G01*
X720425Y-1357692D01*
X234425Y-1506307D02*
G01*
X234425Y-1450794D01*
X305574Y-1450794D02*
G01*
X305574Y-1506307D01*
X299574Y-1512307D02*
G01*
X240425Y-1512307D01*
X234425Y-1363692D02*
G01*
X234425Y-1419205D01*
X305574Y-1419205D02*
G01*
X305574Y-1363692D01*
X299574Y-1357692D02*
G01*
X240425Y-1357692D01*
X314425Y-1506307D02*
G01*
X314425Y-1450794D01*
X385574Y-1450794D02*
G01*
X385574Y-1506307D01*
X379574Y-1512307D02*
G01*
X320425Y-1512307D01*
X314425Y-1363692D02*
G01*
X314425Y-1419205D01*
X385574Y-1419205D02*
G01*
X385574Y-1363692D01*
X379574Y-1357692D02*
G01*
X320425Y-1357692D01*
X394425Y-1506307D02*
G01*
X394425Y-1450794D01*
X465574Y-1450794D02*
G01*
X465574Y-1506307D01*
X459574Y-1512307D02*
G01*
X400425Y-1512307D01*
X394425Y-1363692D02*
G01*
X394425Y-1419205D01*
X465574Y-1419205D02*
G01*
X465574Y-1363692D01*
X459574Y-1357692D02*
G01*
X400425Y-1357692D01*
X474425Y-1506307D02*
G01*
X474425Y-1450794D01*
X545574Y-1450794D02*
G01*
X545574Y-1506307D01*
X539574Y-1512307D02*
G01*
X480425Y-1512307D01*
X474425Y-1363692D02*
G01*
X474425Y-1419205D01*
X545574Y-1419205D02*
G01*
X545574Y-1363692D01*
X539574Y-1357692D02*
G01*
X480425Y-1357692D01*
X554425Y-1506307D02*
G01*
X554425Y-1450794D01*
X625574Y-1450794D02*
G01*
X625574Y-1506307D01*
X619574Y-1512307D02*
G01*
X560425Y-1512307D01*
X554425Y-1363692D02*
G01*
X554425Y-1419205D01*
X625574Y-1419205D02*
G01*
X625574Y-1363692D01*
X619574Y-1357692D02*
G01*
X560425Y-1357692D01*
X634425Y-1506307D02*
G01*
X634425Y-1450794D01*
X705574Y-1450794D02*
G01*
X705574Y-1506307D01*
X699574Y-1512307D02*
G01*
X640425Y-1512307D01*
X634425Y-1363692D02*
G01*
X634425Y-1419205D01*
X705574Y-1419205D02*
G01*
X705574Y-1363692D01*
X699574Y-1357692D02*
G01*
X640425Y-1357692D01*
G75*
G01*
X1665576Y-1506306D02*
G02*
X1659576Y-1512306I-6000J0D01*
G75*
G01*
X1600426Y-1512306D02*
G02*
X1594426Y-1506306I0J6000D01*
G75*
G01*
X1665576Y-1363692D02*
G03*
X1659576Y-1357692I-6000J0D01*
G75*
G01*
X1600426Y-1357692D02*
G03*
X1594426Y-1363692I0J-6000D01*
G75*
G01*
X1585576Y-1506306D02*
G02*
X1579576Y-1512306I-6000J0D01*
G75*
G01*
X1520426Y-1512306D02*
G02*
X1514426Y-1506306I0J6000D01*
G75*
G01*
X1585576Y-1363692D02*
G03*
X1579576Y-1357692I-6000J0D01*
G75*
G01*
X1520426Y-1357692D02*
G03*
X1514426Y-1363692I0J-6000D01*
G75*
G01*
X1505576Y-1506306D02*
G02*
X1499576Y-1512306I-6000J0D01*
G75*
G01*
X1440426Y-1512306D02*
G02*
X1434426Y-1506306I0J6000D01*
G75*
G01*
X1505576Y-1363692D02*
G03*
X1499576Y-1357692I-6000J0D01*
G75*
G01*
X1440426Y-1357692D02*
G03*
X1434426Y-1363692I0J-6000D01*
G75*
G01*
X1425576Y-1506306D02*
G02*
X1419576Y-1512306I-6000J0D01*
G75*
G01*
X1360426Y-1512306D02*
G02*
X1354426Y-1506306I0J6000D01*
G75*
G01*
X1425576Y-1363692D02*
G03*
X1419576Y-1357692I-6000J0D01*
G75*
G01*
X1360426Y-1357692D02*
G03*
X1354426Y-1363692I0J-6000D01*
G75*
G01*
X1345576Y-1506306D02*
G02*
X1339576Y-1512306I-6000J0D01*
G75*
G01*
X1280426Y-1512306D02*
G02*
X1274426Y-1506306I0J6000D01*
G75*
G01*
X1345576Y-1363692D02*
G03*
X1339576Y-1357692I-6000J0D01*
G75*
G01*
X1280426Y-1357692D02*
G03*
X1274426Y-1363692I0J-6000D01*
G75*
G01*
X1265576Y-1506306D02*
G02*
X1259576Y-1512306I-6000J0D01*
G75*
G01*
X1200426Y-1512306D02*
G02*
X1194426Y-1506306I0J6000D01*
G75*
G01*
X1265576Y-1363692D02*
G03*
X1259576Y-1357692I-6000J0D01*
G75*
G01*
X1200426Y-1357692D02*
G03*
X1194426Y-1363692I0J-6000D01*
G75*
G01*
X1185575Y-1506307D02*
G02*
X1179575Y-1512307I-6000J0D01*
G75*
G01*
X1120425Y-1512307D02*
G02*
X1114425Y-1506307I0J6000D01*
G75*
G01*
X1185575Y-1363693D02*
G03*
X1179575Y-1357693I-6000J0D01*
G75*
G01*
X1120425Y-1357693D02*
G03*
X1114425Y-1363693I0J-6000D01*
G75*
G01*
X1105575Y-1506307D02*
G02*
X1099575Y-1512307I-6000J0D01*
G75*
G01*
X1040425Y-1512307D02*
G02*
X1034425Y-1506307I0J6000D01*
G75*
G01*
X1105575Y-1363693D02*
G03*
X1099575Y-1357693I-6000J0D01*
G75*
G01*
X1040425Y-1357693D02*
G03*
X1034425Y-1363693I0J-6000D01*
G75*
G01*
X1025575Y-1506307D02*
G02*
X1019575Y-1512307I-6000J0D01*
G75*
G01*
X960425Y-1512307D02*
G02*
X954425Y-1506307I0J6000D01*
G75*
G01*
X1025575Y-1363693D02*
G03*
X1019575Y-1357693I-6000J0D01*
G75*
G01*
X960425Y-1357693D02*
G03*
X954425Y-1363693I0J-6000D01*
G75*
G01*
X945575Y-1506307D02*
G02*
X939575Y-1512307I-6000J0D01*
G75*
G01*
X880425Y-1512307D02*
G02*
X874425Y-1506307I0J6000D01*
G75*
G01*
X945575Y-1363693D02*
G03*
X939575Y-1357693I-6000J0D01*
G75*
G01*
X880425Y-1357693D02*
G03*
X874425Y-1363693I0J-6000D01*
G75*
G01*
X865575Y-1506307D02*
G02*
X859575Y-1512307I-6000J0D01*
G75*
G01*
X800425Y-1512307D02*
G02*
X794425Y-1506307I0J6000D01*
G75*
G01*
X865575Y-1363693D02*
G03*
X859575Y-1357693I-6000J0D01*
G75*
G01*
X800425Y-1357693D02*
G03*
X794425Y-1363693I0J-6000D01*
G75*
G01*
X785575Y-1506307D02*
G02*
X779575Y-1512307I-6000J0D01*
G75*
G01*
X720425Y-1512307D02*
G02*
X714425Y-1506307I0J6000D01*
G75*
G01*
X785575Y-1363693D02*
G03*
X779575Y-1357693I-6000J0D01*
G75*
G01*
X720425Y-1357693D02*
G03*
X714425Y-1363693I0J-6000D01*
G75*
G01*
X305575Y-1506307D02*
G02*
X299575Y-1512307I-6000J0D01*
G75*
G01*
X240425Y-1512307D02*
G02*
X234425Y-1506307I0J6000D01*
G75*
G01*
X305575Y-1363693D02*
G03*
X299575Y-1357693I-6000J0D01*
G75*
G01*
X240425Y-1357693D02*
G03*
X234425Y-1363693I0J-6000D01*
G75*
G01*
X385575Y-1506307D02*
G02*
X379575Y-1512307I-6000J0D01*
G75*
G01*
X320425Y-1512307D02*
G02*
X314425Y-1506307I0J6000D01*
G75*
G01*
X385575Y-1363693D02*
G03*
X379575Y-1357693I-6000J0D01*
G75*
G01*
X320425Y-1357693D02*
G03*
X314425Y-1363693I0J-6000D01*
G75*
G01*
X465575Y-1506307D02*
G02*
X459575Y-1512307I-6000J0D01*
G75*
G01*
X400425Y-1512307D02*
G02*
X394425Y-1506307I0J6000D01*
G75*
G01*
X465575Y-1363693D02*
G03*
X459575Y-1357693I-6000J0D01*
G75*
G01*
X400425Y-1357693D02*
G03*
X394425Y-1363693I0J-6000D01*
G75*
G01*
X545575Y-1506307D02*
G02*
X539575Y-1512307I-6000J0D01*
G75*
G01*
X480425Y-1512307D02*
G02*
X474425Y-1506307I0J6000D01*
G75*
G01*
X545575Y-1363693D02*
G03*
X539575Y-1357693I-6000J0D01*
G75*
G01*
X480425Y-1357693D02*
G03*
X474425Y-1363693I0J-6000D01*
G75*
G01*
X625575Y-1506307D02*
G02*
X619575Y-1512307I-6000J0D01*
G75*
G01*
X560425Y-1512307D02*
G02*
X554425Y-1506307I0J6000D01*
G75*
G01*
X625575Y-1363693D02*
G03*
X619575Y-1357693I-6000J0D01*
G75*
G01*
X560425Y-1357693D02*
G03*
X554425Y-1363693I0J-6000D01*
G75*
G01*
X705575Y-1506307D02*
G02*
X699575Y-1512307I-6000J0D01*
G75*
G01*
X640425Y-1512307D02*
G02*
X634425Y-1506307I0J6000D01*
G75*
G01*
X705575Y-1363693D02*
G03*
X699575Y-1357693I-6000J0D01*
G75*
G01*
X640425Y-1357693D02*
G03*
X634425Y-1363693I0J-6000D01*
D11*
G75*
G01
X1711620Y-1415000D02*
G03X1711620Y-1415000I-5000J0D01*
M02*
