G04 Layer: InnerLayer2*
G04 EasyEDA v6.5.22, 2022-12-05 22:01:04*
G04 d1a99e3ffb4d45b387634f4a3d5e2a22,8bbad783b4b447a482771b0ae512d992,10*
G04 Gerber Generator version 0.2*
G04 Scale: 100 percent, Rotated: No, Reflected: No *
G04 Dimensions in inches *
G04 leading zeros omitted , absolute positions ,3 integer and 6 decimal *
%FSLAX36Y36*%
%MOIN*%

%ADD10R,0.0535X0.0535*%
%ADD11C,0.0535*%
%ADD12O,0.06299199999999999X0.035433*%
%ADD13C,0.0177*%
%ADD14C,0.0240*%
%ADD15C,0.0240*%
%ADD16C,0.0106*%

%LPD*%
G36*
X14200Y-900000D02*
G01*
X12660Y-899700D01*
X11379Y-898820D01*
X10500Y-897540D01*
X10200Y-896000D01*
X10200Y-14200D01*
X10500Y-12660D01*
X11379Y-11379D01*
X12660Y-10500D01*
X14200Y-10200D01*
X1954300Y-10200D01*
X1955840Y-10500D01*
X1957120Y-11379D01*
X1958000Y-12660D01*
X1958300Y-14200D01*
X1958300Y-896000D01*
X1958000Y-897540D01*
X1957120Y-898820D01*
X1955840Y-899700D01*
X1954300Y-900000D01*
G37*

%LPC*%
G36*
X998720Y-236900D02*
G01*
X1003860Y-236720D01*
X1008940Y-235820D01*
X1013840Y-234240D01*
X1018460Y-231980D01*
X1022740Y-229100D01*
X1026560Y-225640D01*
X1029860Y-221700D01*
X1032600Y-217340D01*
X1034700Y-212620D01*
X1036120Y-207680D01*
X1036840Y-202580D01*
X1036840Y-197420D01*
X1036120Y-192320D01*
X1034700Y-187380D01*
X1032600Y-182659D01*
X1029860Y-178299D01*
X1026560Y-174360D01*
X1022740Y-170900D01*
X1018460Y-168020D01*
X1013840Y-165760D01*
X1008940Y-164180D01*
X1003860Y-163280D01*
X998720Y-163100D01*
X993580Y-163640D01*
X988600Y-164880D01*
X983820Y-166820D01*
X979360Y-169400D01*
X975300Y-172560D01*
X971720Y-176260D01*
X968680Y-180440D01*
X966280Y-184980D01*
X964520Y-189820D01*
X963439Y-194860D01*
X963080Y-200000D01*
X963439Y-205140D01*
X964520Y-210180D01*
X966280Y-215020D01*
X968680Y-219560D01*
X971720Y-223740D01*
X975300Y-227440D01*
X979360Y-230600D01*
X983820Y-233180D01*
X988600Y-235120D01*
X993580Y-236360D01*
G37*
G36*
X1548720Y-236900D02*
G01*
X1553860Y-236720D01*
X1558940Y-235820D01*
X1563839Y-234240D01*
X1568460Y-231980D01*
X1572740Y-229100D01*
X1576560Y-225640D01*
X1579860Y-221700D01*
X1582600Y-217340D01*
X1584700Y-212620D01*
X1586120Y-207680D01*
X1586840Y-202580D01*
X1586840Y-197420D01*
X1586120Y-192320D01*
X1584700Y-187380D01*
X1582600Y-182659D01*
X1579860Y-178299D01*
X1576560Y-174360D01*
X1572740Y-170900D01*
X1568460Y-168020D01*
X1563839Y-165760D01*
X1558940Y-164180D01*
X1553860Y-163280D01*
X1548720Y-163100D01*
X1543580Y-163640D01*
X1538600Y-164880D01*
X1533820Y-166820D01*
X1529360Y-169400D01*
X1525300Y-172560D01*
X1521720Y-176260D01*
X1518680Y-180440D01*
X1516279Y-184980D01*
X1514520Y-189820D01*
X1513440Y-194860D01*
X1513080Y-200000D01*
X1513440Y-205140D01*
X1514520Y-210180D01*
X1516279Y-215020D01*
X1518680Y-219560D01*
X1521720Y-223740D01*
X1525300Y-227440D01*
X1529360Y-230600D01*
X1533820Y-233180D01*
X1538600Y-235120D01*
X1543580Y-236360D01*
G37*
G36*
X46380Y-358000D02*
G01*
X73620Y-358000D01*
X78140Y-357640D01*
X82400Y-356620D01*
X86440Y-354940D01*
X90180Y-352660D01*
X93520Y-349820D01*
X96359Y-346480D01*
X98640Y-342740D01*
X100320Y-338700D01*
X101340Y-334440D01*
X101679Y-330080D01*
X101340Y-325720D01*
X100320Y-321460D01*
X98640Y-317420D01*
X96359Y-313680D01*
X93520Y-310340D01*
X90180Y-307500D01*
X86440Y-305220D01*
X82400Y-303540D01*
X78140Y-302520D01*
X73620Y-302160D01*
X46380Y-302160D01*
X41860Y-302520D01*
X37600Y-303540D01*
X33560Y-305220D01*
X29820Y-307500D01*
X26480Y-310340D01*
X23640Y-313680D01*
X21360Y-317420D01*
X19680Y-321460D01*
X18660Y-325720D01*
X18320Y-330080D01*
X18660Y-334440D01*
X19680Y-338700D01*
X21360Y-342740D01*
X23640Y-346480D01*
X26480Y-349820D01*
X29820Y-352660D01*
X33560Y-354940D01*
X37600Y-356620D01*
X41860Y-357640D01*
G37*
G36*
X978240Y-378960D02*
G01*
X981760Y-378960D01*
X985220Y-378320D01*
X988480Y-377040D01*
X991480Y-375200D01*
X994080Y-372819D01*
X996180Y-370020D01*
X997760Y-366880D01*
X998720Y-363500D01*
X999040Y-360000D01*
X998720Y-356500D01*
X997760Y-353120D01*
X996180Y-349980D01*
X994080Y-347180D01*
X991480Y-344799D01*
X988480Y-342960D01*
X985220Y-341680D01*
X981760Y-341040D01*
X978240Y-341040D01*
X974780Y-341680D01*
X971520Y-342960D01*
X968520Y-344799D01*
X965920Y-347180D01*
X963820Y-349980D01*
X962240Y-353120D01*
X961280Y-356500D01*
X960960Y-360000D01*
X961280Y-363500D01*
X962240Y-366880D01*
X963820Y-370020D01*
X965920Y-372819D01*
X968520Y-375200D01*
X971520Y-377040D01*
X974780Y-378320D01*
G37*
G36*
X1273240Y-393960D02*
G01*
X1276760Y-393960D01*
X1280220Y-393320D01*
X1283480Y-392040D01*
X1286480Y-390200D01*
X1289079Y-387819D01*
X1291180Y-385020D01*
X1292760Y-381880D01*
X1293720Y-378500D01*
X1294040Y-375000D01*
X1293720Y-371500D01*
X1292760Y-368120D01*
X1291180Y-364980D01*
X1289079Y-362180D01*
X1286480Y-359799D01*
X1283480Y-357960D01*
X1280220Y-356680D01*
X1276760Y-356040D01*
X1273240Y-356040D01*
X1269780Y-356680D01*
X1266520Y-357960D01*
X1264740Y-359060D01*
X1263360Y-359580D01*
X1261900Y-359580D01*
X1260520Y-359060D01*
X1259440Y-358060D01*
X1258780Y-356740D01*
X1257760Y-353120D01*
X1256180Y-349980D01*
X1254080Y-347180D01*
X1251480Y-344799D01*
X1248480Y-342960D01*
X1245220Y-341680D01*
X1241760Y-341040D01*
X1238240Y-341040D01*
X1234780Y-341680D01*
X1231520Y-342960D01*
X1228520Y-344799D01*
X1225920Y-347180D01*
X1223820Y-349980D01*
X1222240Y-353120D01*
X1221280Y-356500D01*
X1220960Y-360000D01*
X1221280Y-363500D01*
X1222240Y-366880D01*
X1223820Y-370020D01*
X1225920Y-372819D01*
X1228520Y-375200D01*
X1231520Y-377040D01*
X1234780Y-378320D01*
X1238240Y-378960D01*
X1241760Y-378960D01*
X1245220Y-378320D01*
X1248480Y-377040D01*
X1250260Y-375940D01*
X1251640Y-375420D01*
X1253100Y-375420D01*
X1254480Y-375940D01*
X1255560Y-376940D01*
X1256220Y-378260D01*
X1257240Y-381880D01*
X1258820Y-385020D01*
X1260920Y-387819D01*
X1263520Y-390200D01*
X1266520Y-392040D01*
X1269780Y-393320D01*
G37*
G36*
X1083240Y-403960D02*
G01*
X1086760Y-403960D01*
X1090220Y-403320D01*
X1093480Y-402040D01*
X1096480Y-400200D01*
X1099080Y-397819D01*
X1101180Y-395020D01*
X1102760Y-391880D01*
X1103720Y-388500D01*
X1104040Y-385000D01*
X1103780Y-382180D01*
X1103960Y-380580D01*
X1104760Y-379180D01*
X1106040Y-378200D01*
X1107620Y-377819D01*
X1109200Y-378080D01*
X1109780Y-378320D01*
X1113240Y-378960D01*
X1116760Y-378960D01*
X1120220Y-378320D01*
X1123480Y-377040D01*
X1126480Y-375200D01*
X1129080Y-372819D01*
X1131180Y-370020D01*
X1132760Y-366880D01*
X1133720Y-363500D01*
X1134040Y-360000D01*
X1133720Y-356500D01*
X1132760Y-353120D01*
X1131180Y-349980D01*
X1129080Y-347180D01*
X1126480Y-344799D01*
X1123480Y-342960D01*
X1120220Y-341680D01*
X1116760Y-341040D01*
X1113240Y-341040D01*
X1109780Y-341680D01*
X1106520Y-342960D01*
X1103520Y-344799D01*
X1100920Y-347180D01*
X1098820Y-349980D01*
X1097240Y-353120D01*
X1096280Y-356500D01*
X1095960Y-360000D01*
X1096220Y-362819D01*
X1096040Y-364420D01*
X1095240Y-365820D01*
X1093960Y-366800D01*
X1092380Y-367180D01*
X1090800Y-366920D01*
X1090220Y-366680D01*
X1086760Y-366040D01*
X1083240Y-366040D01*
X1079780Y-366680D01*
X1076520Y-367960D01*
X1073520Y-369799D01*
X1070920Y-372180D01*
X1068820Y-374980D01*
X1067240Y-378120D01*
X1066280Y-381500D01*
X1065960Y-385000D01*
X1066280Y-388500D01*
X1067240Y-391880D01*
X1068820Y-395020D01*
X1070920Y-397819D01*
X1073520Y-400200D01*
X1076520Y-402040D01*
X1079780Y-403320D01*
G37*
G36*
X1473240Y-413960D02*
G01*
X1476759Y-413960D01*
X1480220Y-413320D01*
X1483480Y-412040D01*
X1486480Y-410200D01*
X1489079Y-407819D01*
X1491180Y-405020D01*
X1492760Y-401880D01*
X1493720Y-398500D01*
X1494040Y-395000D01*
X1493720Y-391500D01*
X1492760Y-388120D01*
X1491180Y-384980D01*
X1489079Y-382180D01*
X1486480Y-379799D01*
X1483480Y-377960D01*
X1480220Y-376680D01*
X1476759Y-376040D01*
X1473240Y-376040D01*
X1469780Y-376680D01*
X1466519Y-377960D01*
X1463520Y-379799D01*
X1460920Y-382180D01*
X1458820Y-384980D01*
X1457240Y-388120D01*
X1456279Y-391500D01*
X1455960Y-395000D01*
X1456279Y-398500D01*
X1457240Y-401880D01*
X1458820Y-405020D01*
X1460920Y-407819D01*
X1463520Y-410200D01*
X1466519Y-412040D01*
X1469780Y-413320D01*
G37*
G36*
X850000Y-507180D02*
G01*
X853860Y-506840D01*
X857580Y-505840D01*
X861100Y-504219D01*
X864260Y-502000D01*
X867000Y-499260D01*
X869220Y-496100D01*
X870840Y-492580D01*
X871840Y-488860D01*
X872180Y-485000D01*
X871840Y-481140D01*
X870840Y-477420D01*
X869220Y-473900D01*
X867000Y-470740D01*
X864260Y-468000D01*
X861100Y-465780D01*
X857580Y-464159D01*
X853860Y-463160D01*
X850000Y-462819D01*
X846140Y-463160D01*
X842420Y-464159D01*
X838900Y-465780D01*
X835740Y-468000D01*
X833000Y-470740D01*
X830780Y-473900D01*
X829160Y-477420D01*
X828160Y-481140D01*
X827820Y-485000D01*
X828160Y-488860D01*
X829160Y-492580D01*
X830780Y-496100D01*
X833000Y-499260D01*
X835740Y-502000D01*
X838900Y-504219D01*
X842420Y-505840D01*
X846140Y-506840D01*
G37*
G36*
X1498720Y-136900D02*
G01*
X1503860Y-136720D01*
X1508940Y-135820D01*
X1513839Y-134240D01*
X1518460Y-131980D01*
X1522740Y-129100D01*
X1526560Y-125640D01*
X1529860Y-121700D01*
X1532600Y-117340D01*
X1534700Y-112620D01*
X1536120Y-107680D01*
X1536840Y-102579D01*
X1536840Y-97420D01*
X1536120Y-92320D01*
X1534700Y-87380D01*
X1532600Y-82660D01*
X1529860Y-78300D01*
X1526560Y-74360D01*
X1522740Y-70900D01*
X1518460Y-68020D01*
X1513839Y-65760D01*
X1508940Y-64180D01*
X1503860Y-63280D01*
X1498720Y-63099D01*
X1493580Y-63640D01*
X1488600Y-64880D01*
X1483820Y-66820D01*
X1479360Y-69400D01*
X1475300Y-72560D01*
X1471720Y-76260D01*
X1468680Y-80440D01*
X1466279Y-84980D01*
X1464520Y-89820D01*
X1463440Y-94860D01*
X1463080Y-100000D01*
X1463440Y-105140D01*
X1464520Y-110180D01*
X1466279Y-115020D01*
X1468680Y-119560D01*
X1471720Y-123740D01*
X1475300Y-127440D01*
X1479360Y-130600D01*
X1483820Y-133180D01*
X1488600Y-135120D01*
X1493580Y-136360D01*
G37*
G36*
X500000Y-507180D02*
G01*
X503860Y-506840D01*
X507580Y-505840D01*
X511100Y-504219D01*
X514260Y-502000D01*
X517000Y-499260D01*
X519219Y-496100D01*
X520840Y-492580D01*
X521840Y-488860D01*
X522180Y-485000D01*
X521840Y-481140D01*
X520840Y-477420D01*
X519219Y-473900D01*
X517000Y-470740D01*
X514260Y-468000D01*
X511100Y-465780D01*
X507580Y-464159D01*
X503860Y-463160D01*
X500000Y-462819D01*
X496140Y-463160D01*
X492420Y-464159D01*
X488900Y-465780D01*
X485740Y-468000D01*
X483000Y-470740D01*
X480780Y-473900D01*
X479159Y-477420D01*
X478160Y-481140D01*
X477819Y-485000D01*
X478160Y-488860D01*
X479159Y-492580D01*
X480780Y-496100D01*
X483000Y-499260D01*
X485740Y-502000D01*
X488900Y-504219D01*
X492420Y-505840D01*
X496140Y-506840D01*
G37*
G36*
X923240Y-508960D02*
G01*
X926760Y-508960D01*
X930220Y-508320D01*
X933480Y-507040D01*
X936480Y-505200D01*
X939080Y-502819D01*
X941180Y-500020D01*
X942760Y-496880D01*
X943720Y-493500D01*
X943960Y-490980D01*
X944400Y-489460D01*
X945400Y-488240D01*
X946580Y-487620D01*
X945140Y-487160D01*
X943940Y-486160D01*
X943220Y-484760D01*
X942760Y-483120D01*
X941180Y-479980D01*
X939080Y-477180D01*
X936480Y-474799D01*
X933480Y-472960D01*
X930220Y-471680D01*
X926760Y-471040D01*
X923240Y-471040D01*
X919780Y-471680D01*
X916520Y-472960D01*
X913520Y-474799D01*
X910920Y-477180D01*
X908820Y-479980D01*
X907240Y-483120D01*
X906280Y-486500D01*
X905960Y-490000D01*
X906280Y-493500D01*
X907240Y-496880D01*
X908820Y-500020D01*
X910920Y-502819D01*
X913520Y-505200D01*
X916520Y-507040D01*
X919780Y-508320D01*
G37*
G36*
X1304660Y-72180D02*
G01*
X1308520Y-71840D01*
X1312260Y-70840D01*
X1315760Y-69220D01*
X1318940Y-67000D01*
X1321660Y-64260D01*
X1323880Y-61100D01*
X1325520Y-57580D01*
X1326519Y-53860D01*
X1326860Y-50000D01*
X1326519Y-46140D01*
X1325520Y-42420D01*
X1323880Y-38900D01*
X1321660Y-35740D01*
X1318940Y-33000D01*
X1315760Y-30780D01*
X1312260Y-29160D01*
X1308520Y-28160D01*
X1304660Y-27820D01*
X1300820Y-28160D01*
X1297080Y-29160D01*
X1293580Y-30780D01*
X1290400Y-33000D01*
X1287680Y-35740D01*
X1285460Y-38900D01*
X1283820Y-42420D01*
X1282820Y-46140D01*
X1282480Y-50000D01*
X1282820Y-53860D01*
X1283820Y-57580D01*
X1285460Y-61100D01*
X1287680Y-64260D01*
X1290400Y-67000D01*
X1293580Y-69220D01*
X1297080Y-70840D01*
X1300820Y-71840D01*
G37*
G36*
X1852180Y-187340D02*
G01*
X1859280Y-186780D01*
X1866300Y-185500D01*
X1873140Y-183520D01*
X1879740Y-180820D01*
X1886040Y-177480D01*
X1891960Y-173500D01*
X1897420Y-168939D01*
X1902400Y-163820D01*
X1906840Y-158240D01*
X1910660Y-152220D01*
X1913839Y-145840D01*
X1916360Y-139160D01*
X1918180Y-132280D01*
X1919280Y-125239D01*
X1919640Y-118120D01*
X1919280Y-110980D01*
X1918180Y-103940D01*
X1916360Y-97060D01*
X1913839Y-90380D01*
X1910660Y-84000D01*
X1906840Y-77980D01*
X1902400Y-72400D01*
X1897420Y-67280D01*
X1891960Y-62720D01*
X1886040Y-58740D01*
X1879740Y-55400D01*
X1873140Y-52699D01*
X1866300Y-50720D01*
X1859280Y-49440D01*
X1852180Y-48880D01*
X1845040Y-49060D01*
X1837980Y-49980D01*
X1831040Y-51620D01*
X1824300Y-53960D01*
X1817840Y-56980D01*
X1811740Y-60660D01*
X1806020Y-64940D01*
X1800800Y-69780D01*
X1796080Y-75140D01*
X1791960Y-80940D01*
X1788440Y-87140D01*
X1785600Y-93680D01*
X1783420Y-100480D01*
X1781960Y-107460D01*
X1781240Y-114540D01*
X1781240Y-121679D01*
X1781960Y-128760D01*
X1783420Y-135740D01*
X1785600Y-142540D01*
X1788440Y-149080D01*
X1791960Y-155280D01*
X1796080Y-161080D01*
X1800800Y-166439D01*
X1806020Y-171280D01*
X1811740Y-175560D01*
X1817840Y-179240D01*
X1824300Y-182260D01*
X1831040Y-184600D01*
X1837980Y-186240D01*
X1845040Y-187160D01*
G37*
G36*
X343760Y-201540D02*
G01*
X349200Y-201360D01*
X354560Y-200460D01*
X359739Y-198860D01*
X364680Y-196560D01*
X369260Y-193640D01*
X373420Y-190120D01*
X377060Y-186100D01*
X380140Y-181620D01*
X382600Y-176759D01*
X384380Y-171620D01*
X385460Y-166300D01*
X385820Y-160880D01*
X385460Y-155440D01*
X384380Y-150120D01*
X382600Y-144980D01*
X380140Y-140120D01*
X377060Y-135640D01*
X373420Y-131620D01*
X369260Y-128100D01*
X364680Y-125180D01*
X359739Y-122880D01*
X354560Y-121280D01*
X349200Y-120380D01*
X343760Y-120200D01*
X338360Y-120740D01*
X333060Y-122000D01*
X327980Y-123960D01*
X323220Y-126560D01*
X318840Y-129780D01*
X314940Y-133560D01*
X311560Y-137840D01*
X308800Y-142520D01*
X306680Y-147520D01*
X305240Y-152760D01*
X304500Y-158160D01*
X304500Y-163580D01*
X305240Y-168980D01*
X306680Y-174220D01*
X308800Y-179220D01*
X311560Y-183900D01*
X314940Y-188180D01*
X318840Y-191960D01*
X323220Y-195180D01*
X327980Y-197780D01*
X333060Y-199740D01*
X338360Y-201000D01*
G37*
G36*
X1103760Y-211540D02*
G01*
X1109200Y-211360D01*
X1114560Y-210460D01*
X1119740Y-208860D01*
X1124680Y-206560D01*
X1129260Y-203640D01*
X1133420Y-200120D01*
X1137060Y-196100D01*
X1140140Y-191620D01*
X1142600Y-186759D01*
X1144380Y-181620D01*
X1145460Y-176300D01*
X1145820Y-170880D01*
X1145460Y-165440D01*
X1144380Y-160120D01*
X1142600Y-154980D01*
X1140140Y-150120D01*
X1137060Y-145640D01*
X1133420Y-141620D01*
X1129260Y-138100D01*
X1124680Y-135180D01*
X1119740Y-132880D01*
X1114560Y-131280D01*
X1109200Y-130380D01*
X1103760Y-130200D01*
X1098360Y-130740D01*
X1093060Y-132000D01*
X1087980Y-133960D01*
X1083220Y-136560D01*
X1078840Y-139780D01*
X1074940Y-143560D01*
X1071560Y-147840D01*
X1068800Y-152520D01*
X1066680Y-157520D01*
X1065240Y-162760D01*
X1064500Y-168160D01*
X1064500Y-173580D01*
X1065240Y-178980D01*
X1066680Y-184220D01*
X1068800Y-189220D01*
X1071560Y-193900D01*
X1074940Y-198180D01*
X1078840Y-201960D01*
X1083220Y-205180D01*
X1087980Y-207780D01*
X1093060Y-209740D01*
X1098360Y-211000D01*
G37*
G36*
X188720Y-126900D02*
G01*
X193860Y-126720D01*
X198939Y-125820D01*
X203840Y-124240D01*
X208460Y-121980D01*
X212740Y-119100D01*
X216560Y-115640D01*
X219860Y-111700D01*
X222600Y-107340D01*
X224700Y-102620D01*
X226119Y-97680D01*
X226840Y-92579D01*
X226840Y-87420D01*
X226119Y-82320D01*
X224700Y-77380D01*
X222600Y-72660D01*
X219860Y-68300D01*
X216560Y-64360D01*
X212740Y-60900D01*
X208460Y-58019D01*
X203840Y-55759D01*
X198939Y-54180D01*
X193860Y-53280D01*
X188720Y-53099D01*
X183580Y-53640D01*
X178600Y-54880D01*
X173820Y-56820D01*
X169360Y-59400D01*
X165300Y-62560D01*
X161720Y-66260D01*
X158680Y-70440D01*
X156280Y-74980D01*
X154520Y-79820D01*
X153440Y-84860D01*
X153080Y-90000D01*
X153440Y-95140D01*
X154520Y-100180D01*
X156280Y-105020D01*
X158680Y-109560D01*
X161720Y-113740D01*
X165300Y-117440D01*
X169360Y-120600D01*
X173820Y-123180D01*
X178600Y-125120D01*
X183580Y-126359D01*
G37*
G36*
X1653760Y-211540D02*
G01*
X1659199Y-211360D01*
X1664560Y-210460D01*
X1669740Y-208860D01*
X1674680Y-206560D01*
X1679259Y-203640D01*
X1683420Y-200120D01*
X1687060Y-196100D01*
X1690140Y-191620D01*
X1692600Y-186759D01*
X1694379Y-181620D01*
X1695460Y-176300D01*
X1695820Y-170880D01*
X1695460Y-165440D01*
X1694379Y-160120D01*
X1692600Y-154980D01*
X1690140Y-150120D01*
X1687060Y-145640D01*
X1683420Y-141620D01*
X1679259Y-138100D01*
X1674680Y-135180D01*
X1669740Y-132880D01*
X1664560Y-131280D01*
X1659199Y-130380D01*
X1653760Y-130200D01*
X1648360Y-130740D01*
X1643060Y-132000D01*
X1637980Y-133960D01*
X1633220Y-136560D01*
X1628839Y-139780D01*
X1624940Y-143560D01*
X1621560Y-147840D01*
X1618800Y-152520D01*
X1616680Y-157520D01*
X1615240Y-162760D01*
X1614500Y-168160D01*
X1614500Y-173580D01*
X1615240Y-178980D01*
X1616680Y-184220D01*
X1618800Y-189220D01*
X1621560Y-193900D01*
X1624940Y-198180D01*
X1628839Y-201960D01*
X1633220Y-205180D01*
X1637980Y-207780D01*
X1643060Y-209740D01*
X1648360Y-211000D01*
G37*
G36*
X740000Y-222180D02*
G01*
X743860Y-221840D01*
X747580Y-220840D01*
X751100Y-219220D01*
X754260Y-217000D01*
X757000Y-214259D01*
X759220Y-211100D01*
X760840Y-207580D01*
X761840Y-203860D01*
X762180Y-200000D01*
X761840Y-196140D01*
X760840Y-192420D01*
X759220Y-188900D01*
X757000Y-185740D01*
X754260Y-183000D01*
X751100Y-180780D01*
X747580Y-179160D01*
X743860Y-178160D01*
X740000Y-177820D01*
X736140Y-178160D01*
X732420Y-179160D01*
X728900Y-180780D01*
X725740Y-183000D01*
X723000Y-185740D01*
X720780Y-188900D01*
X719160Y-192420D01*
X718160Y-196140D01*
X717820Y-200000D01*
X718160Y-203860D01*
X719160Y-207580D01*
X720780Y-211100D01*
X723000Y-214259D01*
X725740Y-217000D01*
X728900Y-219220D01*
X732420Y-220840D01*
X736140Y-221840D01*
G37*
G36*
X238720Y-226900D02*
G01*
X243860Y-226720D01*
X248939Y-225820D01*
X253840Y-224240D01*
X258460Y-221980D01*
X262740Y-219100D01*
X266560Y-215640D01*
X269860Y-211700D01*
X272600Y-207340D01*
X274700Y-202620D01*
X276120Y-197680D01*
X276840Y-192580D01*
X276840Y-187420D01*
X276120Y-182320D01*
X274700Y-177380D01*
X272600Y-172659D01*
X269860Y-168299D01*
X266560Y-164360D01*
X262740Y-160900D01*
X258460Y-158020D01*
X253840Y-155760D01*
X248939Y-154180D01*
X243860Y-153280D01*
X238720Y-153100D01*
X233580Y-153640D01*
X228600Y-154880D01*
X223820Y-156820D01*
X219360Y-159400D01*
X215300Y-162560D01*
X211720Y-166260D01*
X208680Y-170440D01*
X206280Y-174980D01*
X204520Y-179820D01*
X203440Y-184860D01*
X203080Y-190000D01*
X203440Y-195140D01*
X204520Y-200180D01*
X206280Y-205020D01*
X208680Y-209560D01*
X211720Y-213740D01*
X215300Y-217440D01*
X219360Y-220600D01*
X223820Y-223180D01*
X228600Y-225120D01*
X233580Y-226360D01*
G37*
G36*
X948720Y-136900D02*
G01*
X953860Y-136720D01*
X958940Y-135820D01*
X963840Y-134240D01*
X968460Y-131980D01*
X972740Y-129100D01*
X976560Y-125640D01*
X979860Y-121700D01*
X982600Y-117340D01*
X984700Y-112620D01*
X986120Y-107680D01*
X986840Y-102579D01*
X986840Y-97420D01*
X986120Y-92320D01*
X984700Y-87380D01*
X982600Y-82660D01*
X979860Y-78300D01*
X976560Y-74360D01*
X972740Y-70900D01*
X968460Y-68020D01*
X963840Y-65760D01*
X958940Y-64180D01*
X953860Y-63280D01*
X948720Y-63099D01*
X943580Y-63640D01*
X938600Y-64880D01*
X933820Y-66820D01*
X929360Y-69400D01*
X925300Y-72560D01*
X921720Y-76260D01*
X918680Y-80440D01*
X916280Y-84980D01*
X914520Y-89820D01*
X913439Y-94860D01*
X913080Y-100000D01*
X913439Y-105140D01*
X914520Y-110180D01*
X916280Y-115020D01*
X918680Y-119560D01*
X921720Y-123740D01*
X925300Y-127440D01*
X929360Y-130600D01*
X933820Y-133180D01*
X938600Y-135120D01*
X943580Y-136360D01*
G37*
G36*
X138720Y-226900D02*
G01*
X143860Y-226720D01*
X148940Y-225820D01*
X153840Y-224240D01*
X158460Y-221980D01*
X162740Y-219100D01*
X166560Y-215640D01*
X169860Y-211700D01*
X172600Y-207340D01*
X174700Y-202620D01*
X176119Y-197680D01*
X176840Y-192580D01*
X176840Y-187420D01*
X176119Y-182320D01*
X174700Y-177380D01*
X172600Y-172659D01*
X169860Y-168299D01*
X166560Y-164360D01*
X162740Y-160900D01*
X158460Y-158020D01*
X153840Y-155760D01*
X148940Y-154180D01*
X143860Y-153280D01*
X138720Y-153100D01*
X133580Y-153640D01*
X128600Y-154880D01*
X123820Y-156820D01*
X119360Y-159400D01*
X115300Y-162560D01*
X111720Y-166260D01*
X108680Y-170440D01*
X106280Y-174980D01*
X104520Y-179820D01*
X103440Y-184860D01*
X103080Y-190000D01*
X103440Y-195140D01*
X104520Y-200180D01*
X106280Y-205020D01*
X108680Y-209560D01*
X111720Y-213740D01*
X115300Y-217440D01*
X119360Y-220600D01*
X123820Y-223180D01*
X128600Y-225120D01*
X133580Y-226360D01*
G37*
G36*
X1448720Y-236900D02*
G01*
X1453860Y-236720D01*
X1458940Y-235820D01*
X1463839Y-234240D01*
X1468460Y-231980D01*
X1472740Y-229100D01*
X1476560Y-225640D01*
X1479860Y-221700D01*
X1482600Y-217340D01*
X1484700Y-212620D01*
X1486120Y-207680D01*
X1486840Y-202580D01*
X1486840Y-197420D01*
X1486120Y-192320D01*
X1484700Y-187380D01*
X1482600Y-182659D01*
X1479860Y-178299D01*
X1476560Y-174360D01*
X1472740Y-170900D01*
X1468460Y-168020D01*
X1463839Y-165760D01*
X1458940Y-164180D01*
X1453860Y-163280D01*
X1448720Y-163100D01*
X1443580Y-163640D01*
X1438600Y-164880D01*
X1433820Y-166820D01*
X1429360Y-169400D01*
X1425300Y-172560D01*
X1421720Y-176260D01*
X1418680Y-180440D01*
X1416279Y-184980D01*
X1414520Y-189820D01*
X1413440Y-194860D01*
X1413080Y-200000D01*
X1413440Y-205140D01*
X1414520Y-210180D01*
X1416279Y-215020D01*
X1418680Y-219560D01*
X1421720Y-223740D01*
X1425300Y-227440D01*
X1429360Y-230600D01*
X1433820Y-233180D01*
X1438600Y-235120D01*
X1443580Y-236360D01*
G37*
G36*
X1498240Y-868960D02*
G01*
X1501759Y-868960D01*
X1505220Y-868319D01*
X1508480Y-867039D01*
X1511480Y-865200D01*
X1514079Y-862820D01*
X1516180Y-860020D01*
X1517760Y-856880D01*
X1518720Y-853500D01*
X1519040Y-850000D01*
X1518720Y-846500D01*
X1517760Y-843120D01*
X1516180Y-839980D01*
X1514079Y-837180D01*
X1511480Y-834800D01*
X1508480Y-832960D01*
X1505220Y-831680D01*
X1501759Y-831040D01*
X1498240Y-831040D01*
X1494780Y-831680D01*
X1491519Y-832960D01*
X1488520Y-834800D01*
X1485920Y-837180D01*
X1483820Y-839980D01*
X1482240Y-843120D01*
X1481279Y-846500D01*
X1480960Y-850000D01*
X1481279Y-853500D01*
X1482240Y-856880D01*
X1483820Y-860020D01*
X1485920Y-862820D01*
X1488520Y-865200D01*
X1491519Y-867039D01*
X1494780Y-868319D01*
G37*
G36*
X1273240Y-838960D02*
G01*
X1276760Y-838960D01*
X1280220Y-838319D01*
X1283480Y-837039D01*
X1286480Y-835200D01*
X1289079Y-832820D01*
X1291180Y-830020D01*
X1292760Y-826880D01*
X1293720Y-823500D01*
X1294040Y-820000D01*
X1293720Y-816500D01*
X1292760Y-813120D01*
X1291180Y-809980D01*
X1289079Y-807180D01*
X1286480Y-804800D01*
X1283480Y-802960D01*
X1280220Y-801680D01*
X1276760Y-801040D01*
X1273240Y-801040D01*
X1269780Y-801680D01*
X1266520Y-802960D01*
X1263520Y-804800D01*
X1260920Y-807180D01*
X1258820Y-809980D01*
X1257240Y-813120D01*
X1256280Y-816500D01*
X1255960Y-820000D01*
X1256280Y-823500D01*
X1257240Y-826880D01*
X1258820Y-830020D01*
X1260920Y-832820D01*
X1263520Y-835200D01*
X1266520Y-837039D01*
X1269780Y-838319D01*
G37*
G36*
X1323240Y-823960D02*
G01*
X1326759Y-823960D01*
X1330220Y-823319D01*
X1333480Y-822039D01*
X1336480Y-820200D01*
X1339079Y-817820D01*
X1341180Y-815020D01*
X1342760Y-811880D01*
X1343720Y-808500D01*
X1344040Y-805000D01*
X1343720Y-801500D01*
X1342760Y-798120D01*
X1341180Y-794980D01*
X1339079Y-792180D01*
X1336480Y-789800D01*
X1333480Y-787960D01*
X1330220Y-786680D01*
X1326759Y-786040D01*
X1323240Y-786040D01*
X1319780Y-786680D01*
X1316519Y-787960D01*
X1313520Y-789800D01*
X1310920Y-792180D01*
X1308820Y-794980D01*
X1307240Y-798120D01*
X1306279Y-801500D01*
X1305960Y-805000D01*
X1306279Y-808500D01*
X1307240Y-811880D01*
X1308820Y-815020D01*
X1310920Y-817820D01*
X1313520Y-820200D01*
X1316519Y-822039D01*
X1319780Y-823319D01*
G37*
G36*
X1498240Y-818960D02*
G01*
X1501759Y-818960D01*
X1505220Y-818319D01*
X1508480Y-817039D01*
X1511480Y-815200D01*
X1514079Y-812820D01*
X1516180Y-810020D01*
X1517760Y-806880D01*
X1518720Y-803500D01*
X1519040Y-800000D01*
X1518720Y-796500D01*
X1517760Y-793120D01*
X1516180Y-789980D01*
X1514079Y-787180D01*
X1511480Y-784800D01*
X1508480Y-782960D01*
X1505220Y-781680D01*
X1501759Y-781040D01*
X1498240Y-781040D01*
X1494780Y-781680D01*
X1491519Y-782960D01*
X1488520Y-784800D01*
X1485920Y-787180D01*
X1483820Y-789980D01*
X1482240Y-793120D01*
X1481279Y-796500D01*
X1480960Y-800000D01*
X1481279Y-803500D01*
X1482240Y-806880D01*
X1483820Y-810020D01*
X1485920Y-812820D01*
X1488520Y-815200D01*
X1491519Y-817039D01*
X1494780Y-818319D01*
G37*
G36*
X773240Y-818960D02*
G01*
X776760Y-818960D01*
X780220Y-818319D01*
X783480Y-817039D01*
X786480Y-815200D01*
X789080Y-812820D01*
X791180Y-810020D01*
X792760Y-806880D01*
X793720Y-803500D01*
X794040Y-800000D01*
X793720Y-796500D01*
X792760Y-793120D01*
X791180Y-789980D01*
X789080Y-787180D01*
X786480Y-784800D01*
X783480Y-782960D01*
X780220Y-781680D01*
X776760Y-781040D01*
X773240Y-781040D01*
X769780Y-781680D01*
X766520Y-782960D01*
X763520Y-784800D01*
X760920Y-787180D01*
X758820Y-789980D01*
X757240Y-793120D01*
X756280Y-796500D01*
X755960Y-800000D01*
X756280Y-803500D01*
X757240Y-806880D01*
X758820Y-810020D01*
X760920Y-812820D01*
X763520Y-815200D01*
X766520Y-817039D01*
X769780Y-818319D01*
G37*
G36*
X898720Y-236900D02*
G01*
X903860Y-236720D01*
X908940Y-235820D01*
X913840Y-234240D01*
X918460Y-231980D01*
X922740Y-229100D01*
X926560Y-225640D01*
X929860Y-221700D01*
X932600Y-217340D01*
X934700Y-212620D01*
X936120Y-207680D01*
X936840Y-202580D01*
X936840Y-197420D01*
X936120Y-192320D01*
X934700Y-187380D01*
X932600Y-182659D01*
X929860Y-178299D01*
X926560Y-174360D01*
X922740Y-170900D01*
X918460Y-168020D01*
X913840Y-165760D01*
X908940Y-164180D01*
X903860Y-163280D01*
X898720Y-163100D01*
X893580Y-163640D01*
X888600Y-164880D01*
X883820Y-166820D01*
X879360Y-169400D01*
X875300Y-172560D01*
X871720Y-176260D01*
X868680Y-180440D01*
X866280Y-184980D01*
X864520Y-189820D01*
X863439Y-194860D01*
X863080Y-200000D01*
X863439Y-205140D01*
X864520Y-210180D01*
X866280Y-215020D01*
X868680Y-219560D01*
X871720Y-223740D01*
X875300Y-227440D01*
X879360Y-230600D01*
X883820Y-233180D01*
X888600Y-235120D01*
X893580Y-236360D01*
G37*
G36*
X1178240Y-768960D02*
G01*
X1181760Y-768960D01*
X1185220Y-768319D01*
X1188480Y-767039D01*
X1191480Y-765200D01*
X1194080Y-762820D01*
X1196180Y-760020D01*
X1197760Y-756880D01*
X1198720Y-753500D01*
X1199040Y-750000D01*
X1198720Y-746500D01*
X1197760Y-743120D01*
X1196180Y-739980D01*
X1194080Y-737180D01*
X1191480Y-734800D01*
X1188480Y-732960D01*
X1185220Y-731680D01*
X1181760Y-731040D01*
X1178240Y-731040D01*
X1174780Y-731680D01*
X1171520Y-732960D01*
X1168520Y-734800D01*
X1165920Y-737180D01*
X1163820Y-739980D01*
X1162240Y-743120D01*
X1161280Y-746500D01*
X1160960Y-750000D01*
X1161280Y-753500D01*
X1162240Y-756880D01*
X1163820Y-760020D01*
X1165920Y-762820D01*
X1168520Y-765200D01*
X1171520Y-767039D01*
X1174780Y-768319D01*
G37*
G36*
X968240Y-758960D02*
G01*
X971760Y-758960D01*
X975220Y-758319D01*
X978480Y-757039D01*
X981480Y-755200D01*
X984080Y-752820D01*
X986180Y-750020D01*
X987760Y-746880D01*
X988720Y-743500D01*
X989040Y-740000D01*
X988720Y-736500D01*
X987760Y-733120D01*
X986180Y-729980D01*
X984080Y-727180D01*
X981480Y-724800D01*
X978480Y-722960D01*
X975220Y-721680D01*
X971760Y-721040D01*
X968240Y-721040D01*
X964780Y-721680D01*
X961520Y-722960D01*
X958520Y-724800D01*
X955920Y-727180D01*
X953820Y-729980D01*
X952240Y-733120D01*
X951280Y-736500D01*
X950960Y-740000D01*
X951280Y-743500D01*
X952240Y-746880D01*
X953820Y-750020D01*
X955920Y-752820D01*
X958520Y-755200D01*
X961520Y-757039D01*
X964780Y-758319D01*
G37*
G36*
X1113240Y-703960D02*
G01*
X1116760Y-703960D01*
X1120220Y-703319D01*
X1123480Y-702039D01*
X1126480Y-700200D01*
X1129080Y-697820D01*
X1131180Y-695020D01*
X1132760Y-691880D01*
X1133720Y-688500D01*
X1134040Y-685000D01*
X1133720Y-681500D01*
X1132760Y-678120D01*
X1131180Y-674980D01*
X1129080Y-672180D01*
X1126480Y-669800D01*
X1123480Y-667960D01*
X1120220Y-666680D01*
X1116760Y-666040D01*
X1113240Y-666040D01*
X1109780Y-666680D01*
X1106520Y-667960D01*
X1103520Y-669800D01*
X1100920Y-672180D01*
X1098820Y-674980D01*
X1097240Y-678120D01*
X1096280Y-681500D01*
X1095960Y-685000D01*
X1096280Y-688500D01*
X1097240Y-691880D01*
X1098820Y-695020D01*
X1100920Y-697820D01*
X1103520Y-700200D01*
X1106520Y-702039D01*
X1109780Y-703319D01*
G37*
G36*
X1243240Y-698960D02*
G01*
X1246760Y-698960D01*
X1250220Y-698319D01*
X1253480Y-697039D01*
X1256480Y-695200D01*
X1259080Y-692820D01*
X1261180Y-690020D01*
X1262760Y-686880D01*
X1263720Y-683500D01*
X1264040Y-680000D01*
X1263720Y-676500D01*
X1262760Y-673120D01*
X1261180Y-669980D01*
X1259080Y-667180D01*
X1256480Y-664800D01*
X1253480Y-662960D01*
X1250220Y-661680D01*
X1246760Y-661040D01*
X1243240Y-661040D01*
X1239780Y-661680D01*
X1236520Y-662960D01*
X1233520Y-664800D01*
X1230920Y-667180D01*
X1228820Y-669980D01*
X1227240Y-673120D01*
X1226280Y-676500D01*
X1225960Y-680000D01*
X1226280Y-683500D01*
X1227240Y-686880D01*
X1228820Y-690020D01*
X1230920Y-692820D01*
X1233520Y-695200D01*
X1236520Y-697039D01*
X1239780Y-698319D01*
G37*
G36*
X768240Y-688960D02*
G01*
X771760Y-688960D01*
X775220Y-688319D01*
X778480Y-687039D01*
X781480Y-685200D01*
X784080Y-682820D01*
X786180Y-680020D01*
X787760Y-676880D01*
X788720Y-673500D01*
X789040Y-670000D01*
X788720Y-666500D01*
X787760Y-663120D01*
X786180Y-659980D01*
X784080Y-657180D01*
X781480Y-654800D01*
X778480Y-652960D01*
X775220Y-651680D01*
X771760Y-651040D01*
X768240Y-651040D01*
X764780Y-651680D01*
X761520Y-652960D01*
X758520Y-654800D01*
X755920Y-657180D01*
X753820Y-659980D01*
X752240Y-663120D01*
X751280Y-666500D01*
X750960Y-670000D01*
X751280Y-673500D01*
X752240Y-676880D01*
X753820Y-680020D01*
X755920Y-682820D01*
X758520Y-685200D01*
X761520Y-687039D01*
X764780Y-688319D01*
G37*
G36*
X978240Y-663960D02*
G01*
X981760Y-663960D01*
X985220Y-663319D01*
X988480Y-662039D01*
X991480Y-660200D01*
X994080Y-657820D01*
X996180Y-655020D01*
X997760Y-651880D01*
X998720Y-648500D01*
X999040Y-645000D01*
X998720Y-641500D01*
X997760Y-638120D01*
X996180Y-634980D01*
X994080Y-632180D01*
X991480Y-629800D01*
X988480Y-627960D01*
X985220Y-626680D01*
X981760Y-626040D01*
X978240Y-626040D01*
X974780Y-626680D01*
X971520Y-627960D01*
X968520Y-629800D01*
X965920Y-632180D01*
X963820Y-634980D01*
X962240Y-638120D01*
X961280Y-641500D01*
X960960Y-645000D01*
X961280Y-648500D01*
X962240Y-651880D01*
X963820Y-655020D01*
X965920Y-657820D01*
X968520Y-660200D01*
X971520Y-662039D01*
X974780Y-663319D01*
G37*
G36*
X918240Y-638960D02*
G01*
X921760Y-638960D01*
X925220Y-638320D01*
X928480Y-637040D01*
X931480Y-635200D01*
X934080Y-632820D01*
X936180Y-630020D01*
X937760Y-626880D01*
X938720Y-623500D01*
X939040Y-620000D01*
X938720Y-616500D01*
X937760Y-613120D01*
X936180Y-609980D01*
X934080Y-607180D01*
X931480Y-604800D01*
X928480Y-602960D01*
X925220Y-601680D01*
X921760Y-601040D01*
X918240Y-601040D01*
X914780Y-601680D01*
X911520Y-602960D01*
X908520Y-604800D01*
X905920Y-607180D01*
X903820Y-609980D01*
X902240Y-613120D01*
X901280Y-616500D01*
X900960Y-620000D01*
X901280Y-623500D01*
X902240Y-626880D01*
X903820Y-630020D01*
X905920Y-632820D01*
X908520Y-635200D01*
X911520Y-637040D01*
X914780Y-638320D01*
G37*
G36*
X1333240Y-633960D02*
G01*
X1336759Y-633960D01*
X1340220Y-633320D01*
X1343480Y-632040D01*
X1346480Y-630200D01*
X1349079Y-627820D01*
X1351180Y-625020D01*
X1352760Y-621880D01*
X1353720Y-618500D01*
X1354040Y-615000D01*
X1353720Y-611500D01*
X1352760Y-608120D01*
X1351180Y-604980D01*
X1349079Y-602180D01*
X1346480Y-599800D01*
X1343480Y-597960D01*
X1340220Y-596680D01*
X1336759Y-596040D01*
X1333240Y-596040D01*
X1329780Y-596680D01*
X1326519Y-597960D01*
X1323520Y-599800D01*
X1320920Y-602180D01*
X1318820Y-604980D01*
X1317240Y-608120D01*
X1316279Y-611500D01*
X1315960Y-615000D01*
X1316279Y-618500D01*
X1317240Y-621880D01*
X1318820Y-625020D01*
X1320920Y-627820D01*
X1323520Y-630200D01*
X1326519Y-632040D01*
X1329780Y-633320D01*
G37*
G36*
X46380Y-617840D02*
G01*
X73620Y-617840D01*
X78140Y-617480D01*
X82400Y-616460D01*
X86440Y-614780D01*
X90180Y-612500D01*
X93520Y-609660D01*
X96359Y-606320D01*
X98640Y-602580D01*
X100320Y-598540D01*
X101340Y-594280D01*
X101679Y-589920D01*
X101340Y-585560D01*
X100320Y-581300D01*
X98640Y-577260D01*
X96359Y-573520D01*
X93520Y-570180D01*
X90180Y-567340D01*
X86440Y-565060D01*
X82400Y-563380D01*
X78140Y-562360D01*
X73620Y-562000D01*
X46380Y-562000D01*
X41860Y-562360D01*
X37600Y-563380D01*
X33560Y-565060D01*
X29820Y-567340D01*
X26480Y-570180D01*
X23640Y-573520D01*
X21360Y-577260D01*
X19680Y-581300D01*
X18660Y-585560D01*
X18320Y-589920D01*
X18660Y-594280D01*
X19680Y-598540D01*
X21360Y-602580D01*
X23640Y-606320D01*
X26480Y-609660D01*
X29820Y-612500D01*
X33560Y-614780D01*
X37600Y-616460D01*
X41860Y-617480D01*
G37*
G36*
X1273240Y-603960D02*
G01*
X1276760Y-603960D01*
X1280220Y-603320D01*
X1283480Y-602040D01*
X1286480Y-600200D01*
X1289079Y-597820D01*
X1291180Y-595020D01*
X1292760Y-591880D01*
X1293720Y-588500D01*
X1294040Y-585000D01*
X1293720Y-581500D01*
X1292760Y-578120D01*
X1291180Y-574980D01*
X1289079Y-572180D01*
X1286480Y-569800D01*
X1283480Y-567960D01*
X1280220Y-566680D01*
X1276760Y-566040D01*
X1273240Y-566040D01*
X1269780Y-566680D01*
X1266520Y-567960D01*
X1263520Y-569800D01*
X1260920Y-572180D01*
X1258820Y-574980D01*
X1257240Y-578120D01*
X1256280Y-581500D01*
X1255960Y-585000D01*
X1256280Y-588500D01*
X1257240Y-591880D01*
X1258820Y-595020D01*
X1260920Y-597820D01*
X1263520Y-600200D01*
X1266520Y-602040D01*
X1269780Y-603320D01*
G37*
G36*
X1923240Y-598960D02*
G01*
X1926759Y-598960D01*
X1930220Y-598320D01*
X1933480Y-597040D01*
X1936480Y-595200D01*
X1939079Y-592820D01*
X1941180Y-590020D01*
X1942760Y-586880D01*
X1943720Y-583500D01*
X1944040Y-580000D01*
X1943720Y-576500D01*
X1942760Y-573120D01*
X1941180Y-569980D01*
X1939079Y-567180D01*
X1936480Y-564800D01*
X1933480Y-562960D01*
X1930220Y-561680D01*
X1926759Y-561040D01*
X1923240Y-561040D01*
X1919780Y-561680D01*
X1916519Y-562960D01*
X1913520Y-564800D01*
X1910920Y-567180D01*
X1908820Y-569980D01*
X1907240Y-573120D01*
X1906279Y-576500D01*
X1905960Y-580000D01*
X1906279Y-583500D01*
X1907240Y-586880D01*
X1908820Y-590020D01*
X1910920Y-592820D01*
X1913520Y-595200D01*
X1916519Y-597040D01*
X1919780Y-598320D01*
G37*
G36*
X1208240Y-593960D02*
G01*
X1211760Y-593960D01*
X1215220Y-593320D01*
X1218480Y-592040D01*
X1221480Y-590200D01*
X1224080Y-587820D01*
X1226180Y-585020D01*
X1227760Y-581880D01*
X1228720Y-578500D01*
X1229040Y-575000D01*
X1228720Y-571500D01*
X1227760Y-568120D01*
X1226180Y-564980D01*
X1224080Y-562180D01*
X1221480Y-559800D01*
X1218480Y-557960D01*
X1215220Y-556680D01*
X1211760Y-556040D01*
X1210380Y-556040D01*
X1208820Y-555720D01*
X1207520Y-554820D01*
X1206660Y-553480D01*
X1206380Y-551920D01*
X1206760Y-550360D01*
X1207700Y-549080D01*
X1209080Y-547820D01*
X1211180Y-545020D01*
X1212760Y-541880D01*
X1213720Y-538500D01*
X1214040Y-535000D01*
X1213720Y-531500D01*
X1212760Y-528120D01*
X1211180Y-524980D01*
X1209080Y-522180D01*
X1206480Y-519799D01*
X1203480Y-517960D01*
X1200220Y-516680D01*
X1195340Y-515740D01*
X1194120Y-514940D01*
X1193260Y-513780D01*
X1192880Y-512380D01*
X1193020Y-510940D01*
X1193720Y-508500D01*
X1194040Y-505000D01*
X1193720Y-501500D01*
X1192760Y-498120D01*
X1191180Y-494980D01*
X1189080Y-492180D01*
X1186480Y-489799D01*
X1183480Y-487960D01*
X1180220Y-486680D01*
X1176760Y-486040D01*
X1173240Y-486040D01*
X1169780Y-486680D01*
X1166520Y-487960D01*
X1163520Y-489799D01*
X1160920Y-492180D01*
X1158820Y-494980D01*
X1157240Y-498120D01*
X1156280Y-501500D01*
X1155960Y-505000D01*
X1156280Y-508500D01*
X1157240Y-511880D01*
X1158820Y-515020D01*
X1160920Y-517819D01*
X1163520Y-520200D01*
X1166520Y-522040D01*
X1169780Y-523320D01*
X1174660Y-524260D01*
X1175880Y-525060D01*
X1176740Y-526220D01*
X1177120Y-527620D01*
X1176980Y-529060D01*
X1176280Y-531500D01*
X1175960Y-535000D01*
X1176280Y-538500D01*
X1177240Y-541880D01*
X1178820Y-545020D01*
X1180920Y-547820D01*
X1183520Y-550200D01*
X1186520Y-552040D01*
X1189780Y-553320D01*
X1193240Y-553960D01*
X1194620Y-553960D01*
X1196180Y-554280D01*
X1197480Y-555180D01*
X1198340Y-556520D01*
X1198620Y-558080D01*
X1198240Y-559640D01*
X1197300Y-560920D01*
X1195920Y-562180D01*
X1193820Y-564980D01*
X1192240Y-568120D01*
X1191280Y-571500D01*
X1190960Y-575000D01*
X1191280Y-578500D01*
X1192240Y-581880D01*
X1193820Y-585020D01*
X1195920Y-587820D01*
X1198520Y-590200D01*
X1201520Y-592040D01*
X1204780Y-593320D01*
G37*
G36*
X450000Y-562180D02*
G01*
X453860Y-561840D01*
X457580Y-560840D01*
X461100Y-559220D01*
X464260Y-557000D01*
X467000Y-554260D01*
X469219Y-551100D01*
X470840Y-547580D01*
X471840Y-543860D01*
X472180Y-540000D01*
X471840Y-536140D01*
X470840Y-532420D01*
X469219Y-528900D01*
X467000Y-525740D01*
X464260Y-523000D01*
X461100Y-520780D01*
X457580Y-519159D01*
X453860Y-518160D01*
X450000Y-517819D01*
X446140Y-518160D01*
X442420Y-519159D01*
X438900Y-520780D01*
X435740Y-523000D01*
X433000Y-525740D01*
X430780Y-528900D01*
X429159Y-532420D01*
X428160Y-536140D01*
X427819Y-540000D01*
X428160Y-543860D01*
X429159Y-547580D01*
X430780Y-551100D01*
X433000Y-554260D01*
X435740Y-557000D01*
X438900Y-559220D01*
X442420Y-560840D01*
X446140Y-561840D01*
G37*
G36*
X850000Y-562180D02*
G01*
X853860Y-561840D01*
X857580Y-560840D01*
X861100Y-559220D01*
X864260Y-557000D01*
X867000Y-554260D01*
X869220Y-551100D01*
X870840Y-547580D01*
X871840Y-543860D01*
X872180Y-540000D01*
X871840Y-536140D01*
X870840Y-532420D01*
X869220Y-528900D01*
X867000Y-525740D01*
X864260Y-523000D01*
X861100Y-520780D01*
X857580Y-519159D01*
X853860Y-518160D01*
X850000Y-517819D01*
X846140Y-518160D01*
X842420Y-519159D01*
X838900Y-520780D01*
X835740Y-523000D01*
X833000Y-525740D01*
X830780Y-528900D01*
X829160Y-532420D01*
X828160Y-536140D01*
X827820Y-540000D01*
X828160Y-543860D01*
X829160Y-547580D01*
X830780Y-551100D01*
X833000Y-554260D01*
X835740Y-557000D01*
X838900Y-559220D01*
X842420Y-560840D01*
X846140Y-561840D01*
G37*
G36*
X1483240Y-548960D02*
G01*
X1486759Y-548960D01*
X1490220Y-548320D01*
X1493480Y-547040D01*
X1496480Y-545200D01*
X1499079Y-542820D01*
X1501180Y-540020D01*
X1502760Y-536880D01*
X1503720Y-533500D01*
X1504040Y-530000D01*
X1503720Y-526500D01*
X1502760Y-523120D01*
X1501180Y-519980D01*
X1499079Y-517180D01*
X1496480Y-514799D01*
X1493480Y-512960D01*
X1490220Y-511680D01*
X1486759Y-511040D01*
X1483240Y-511040D01*
X1479780Y-511680D01*
X1476519Y-512960D01*
X1473520Y-514799D01*
X1470920Y-517180D01*
X1468820Y-519980D01*
X1467240Y-523120D01*
X1466279Y-526500D01*
X1465960Y-530000D01*
X1466279Y-533500D01*
X1467240Y-536880D01*
X1468820Y-540020D01*
X1470920Y-542820D01*
X1473520Y-545200D01*
X1476519Y-547040D01*
X1479780Y-548320D01*
G37*
G36*
X978240Y-538960D02*
G01*
X981760Y-538960D01*
X985220Y-538320D01*
X988480Y-537040D01*
X991480Y-535200D01*
X994080Y-532820D01*
X996180Y-530020D01*
X997760Y-526880D01*
X998720Y-523500D01*
X999040Y-520000D01*
X998720Y-516500D01*
X997760Y-513120D01*
X996180Y-509980D01*
X994080Y-507180D01*
X991480Y-504799D01*
X988480Y-502960D01*
X987020Y-502380D01*
X985759Y-501620D01*
X984880Y-500439D01*
X984479Y-499020D01*
X984620Y-497560D01*
X985260Y-496240D01*
X986180Y-495020D01*
X987760Y-491880D01*
X988720Y-488500D01*
X989040Y-485000D01*
X988720Y-481500D01*
X987760Y-478120D01*
X986180Y-474980D01*
X984080Y-472180D01*
X981480Y-469799D01*
X978480Y-467960D01*
X975220Y-466680D01*
X971760Y-466040D01*
X968240Y-466040D01*
X964780Y-466680D01*
X961520Y-467960D01*
X958520Y-469799D01*
X955920Y-472180D01*
X953820Y-474980D01*
X952240Y-478120D01*
X951280Y-481500D01*
X951040Y-484020D01*
X950600Y-485540D01*
X949599Y-486760D01*
X948420Y-487380D01*
X949860Y-487840D01*
X951060Y-488840D01*
X951780Y-490240D01*
X952240Y-491880D01*
X953820Y-495020D01*
X955920Y-497819D01*
X958520Y-500200D01*
X961520Y-502040D01*
X962980Y-502620D01*
X964240Y-503380D01*
X965120Y-504560D01*
X965520Y-505980D01*
X965380Y-507440D01*
X964740Y-508760D01*
X963820Y-509980D01*
X962240Y-513120D01*
X961280Y-516500D01*
X960960Y-520000D01*
X961280Y-523500D01*
X962240Y-526880D01*
X963820Y-530020D01*
X965920Y-532820D01*
X968520Y-535200D01*
X971520Y-537040D01*
X974780Y-538320D01*
G37*
G36*
X1538240Y-518960D02*
G01*
X1541759Y-518960D01*
X1545220Y-518320D01*
X1548480Y-517040D01*
X1551480Y-515200D01*
X1554079Y-512819D01*
X1556180Y-510020D01*
X1557760Y-506880D01*
X1558720Y-503500D01*
X1559040Y-500000D01*
X1558720Y-496500D01*
X1557760Y-493120D01*
X1556180Y-489980D01*
X1554079Y-487180D01*
X1551480Y-484799D01*
X1548480Y-482960D01*
X1545220Y-481680D01*
X1541759Y-481040D01*
X1538240Y-481040D01*
X1534780Y-481680D01*
X1531519Y-482960D01*
X1528520Y-484799D01*
X1525920Y-487180D01*
X1523820Y-489980D01*
X1522240Y-493120D01*
X1521279Y-496500D01*
X1520960Y-500000D01*
X1521279Y-503500D01*
X1522240Y-506880D01*
X1523820Y-510020D01*
X1525920Y-512819D01*
X1528520Y-515200D01*
X1531519Y-517040D01*
X1534780Y-518320D01*
G37*
G36*
X1418240Y-513960D02*
G01*
X1421759Y-513960D01*
X1425220Y-513320D01*
X1428480Y-512040D01*
X1431480Y-510200D01*
X1434079Y-507819D01*
X1436180Y-505020D01*
X1437760Y-501880D01*
X1438720Y-498500D01*
X1439040Y-495000D01*
X1438720Y-491500D01*
X1437760Y-488120D01*
X1436180Y-484980D01*
X1434079Y-482180D01*
X1431480Y-479799D01*
X1428480Y-477960D01*
X1425220Y-476680D01*
X1421759Y-476040D01*
X1418240Y-476040D01*
X1414780Y-476680D01*
X1411519Y-477960D01*
X1408520Y-479799D01*
X1405920Y-482180D01*
X1403820Y-484980D01*
X1402240Y-488120D01*
X1401279Y-491500D01*
X1400960Y-495000D01*
X1401279Y-498500D01*
X1402240Y-501880D01*
X1403820Y-505020D01*
X1405920Y-507819D01*
X1408520Y-510200D01*
X1411519Y-512040D01*
X1414780Y-513320D01*
G37*
G36*
X1078240Y-803960D02*
G01*
X1081760Y-803960D01*
X1085220Y-803319D01*
X1088480Y-802039D01*
X1091480Y-800200D01*
X1094080Y-797820D01*
X1096180Y-795020D01*
X1097760Y-791880D01*
X1098720Y-788500D01*
X1099040Y-785000D01*
X1098720Y-781500D01*
X1097760Y-778120D01*
X1096180Y-774980D01*
X1094080Y-772180D01*
X1091480Y-769800D01*
X1088480Y-767960D01*
X1085220Y-766680D01*
X1081760Y-766040D01*
X1078240Y-766040D01*
X1074780Y-766680D01*
X1071520Y-767960D01*
X1068520Y-769800D01*
X1065920Y-772180D01*
X1063820Y-774980D01*
X1062240Y-778120D01*
X1061280Y-781500D01*
X1060960Y-785000D01*
X1061280Y-788500D01*
X1062240Y-791880D01*
X1063820Y-795020D01*
X1065920Y-797820D01*
X1068520Y-800200D01*
X1071520Y-802039D01*
X1074780Y-803319D01*
G37*

%LPD*%
G36*
X14200Y-1564600D02*
G01*
X12660Y-1564300D01*
X11379Y-1563420D01*
X10500Y-1562140D01*
X10200Y-1560600D01*
X10200Y-1004000D01*
X10500Y-1002460D01*
X11379Y-1001180D01*
X12660Y-1000300D01*
X14200Y-1000000D01*
X1954300Y-1000000D01*
X1955840Y-1000300D01*
X1957120Y-1001180D01*
X1958000Y-1002460D01*
X1958300Y-1004000D01*
X1958300Y-1560600D01*
X1958000Y-1562140D01*
X1957120Y-1563420D01*
X1955840Y-1564300D01*
X1954300Y-1564600D01*
G37*

%LPC*%
G36*
X119900Y-1525920D02*
G01*
X127000Y-1525360D01*
X134020Y-1524079D01*
X140860Y-1522100D01*
X147460Y-1519400D01*
X153760Y-1516060D01*
X159680Y-1512080D01*
X165140Y-1507520D01*
X170120Y-1502400D01*
X174560Y-1496819D01*
X178380Y-1490800D01*
X181560Y-1484420D01*
X184080Y-1477740D01*
X185900Y-1470860D01*
X187000Y-1463820D01*
X187360Y-1456699D01*
X187000Y-1449560D01*
X185900Y-1442520D01*
X184080Y-1435640D01*
X181560Y-1428959D01*
X178380Y-1422580D01*
X174560Y-1416560D01*
X170120Y-1410980D01*
X165140Y-1405860D01*
X159680Y-1401300D01*
X153760Y-1397320D01*
X147460Y-1393980D01*
X140860Y-1391279D01*
X134020Y-1389300D01*
X127000Y-1388020D01*
X119900Y-1387460D01*
X112760Y-1387640D01*
X105700Y-1388560D01*
X98760Y-1390200D01*
X92020Y-1392540D01*
X85559Y-1395560D01*
X79460Y-1399240D01*
X73740Y-1403520D01*
X68520Y-1408360D01*
X63800Y-1413720D01*
X59680Y-1419520D01*
X56160Y-1425720D01*
X53320Y-1432260D01*
X51140Y-1439060D01*
X49680Y-1446040D01*
X48960Y-1453120D01*
X48960Y-1460260D01*
X49680Y-1467340D01*
X51140Y-1474319D01*
X53320Y-1481120D01*
X56160Y-1487660D01*
X59680Y-1493860D01*
X63800Y-1499660D01*
X68520Y-1505020D01*
X73740Y-1509860D01*
X79460Y-1514139D01*
X85559Y-1517820D01*
X92020Y-1520840D01*
X98760Y-1523180D01*
X105700Y-1524820D01*
X112760Y-1525740D01*
G37*
G36*
X1358240Y-1413959D02*
G01*
X1361759Y-1413959D01*
X1365220Y-1413320D01*
X1368480Y-1412040D01*
X1370400Y-1410860D01*
X1371759Y-1410340D01*
X1373240Y-1410340D01*
X1374600Y-1410860D01*
X1376519Y-1412040D01*
X1379780Y-1413320D01*
X1383240Y-1413959D01*
X1386759Y-1413959D01*
X1390220Y-1413320D01*
X1393480Y-1412040D01*
X1396480Y-1410200D01*
X1397300Y-1409440D01*
X1398560Y-1408660D01*
X1400000Y-1408400D01*
X1401440Y-1408660D01*
X1402700Y-1409440D01*
X1403520Y-1410200D01*
X1406519Y-1412040D01*
X1409780Y-1413320D01*
X1413240Y-1413959D01*
X1416759Y-1413959D01*
X1420220Y-1413320D01*
X1423480Y-1412040D01*
X1425400Y-1410860D01*
X1426759Y-1410340D01*
X1428240Y-1410340D01*
X1429600Y-1410860D01*
X1431519Y-1412040D01*
X1434780Y-1413320D01*
X1438240Y-1413959D01*
X1441759Y-1413959D01*
X1445220Y-1413320D01*
X1448480Y-1412040D01*
X1451480Y-1410200D01*
X1454079Y-1407820D01*
X1456180Y-1405020D01*
X1457760Y-1401879D01*
X1458720Y-1398500D01*
X1459040Y-1395000D01*
X1458720Y-1391500D01*
X1457760Y-1388120D01*
X1456180Y-1384980D01*
X1454079Y-1382180D01*
X1451480Y-1379800D01*
X1448480Y-1377960D01*
X1445220Y-1376680D01*
X1441759Y-1376040D01*
X1438240Y-1376040D01*
X1434780Y-1376680D01*
X1431519Y-1377960D01*
X1429600Y-1379139D01*
X1428240Y-1379660D01*
X1426759Y-1379660D01*
X1425400Y-1379139D01*
X1423480Y-1377960D01*
X1420220Y-1376680D01*
X1416759Y-1376040D01*
X1413240Y-1376040D01*
X1409780Y-1376680D01*
X1406519Y-1377960D01*
X1403520Y-1379800D01*
X1402700Y-1380560D01*
X1401440Y-1381339D01*
X1400000Y-1381600D01*
X1398560Y-1381339D01*
X1397300Y-1380560D01*
X1396480Y-1379800D01*
X1393480Y-1377960D01*
X1390220Y-1376680D01*
X1386759Y-1376040D01*
X1383240Y-1376040D01*
X1379780Y-1376680D01*
X1376519Y-1377960D01*
X1374600Y-1379139D01*
X1373240Y-1379660D01*
X1371759Y-1379660D01*
X1370400Y-1379139D01*
X1368480Y-1377960D01*
X1365220Y-1376680D01*
X1361759Y-1376040D01*
X1358240Y-1376040D01*
X1354780Y-1376680D01*
X1351519Y-1377960D01*
X1348520Y-1379800D01*
X1345920Y-1382180D01*
X1343820Y-1384980D01*
X1342240Y-1388120D01*
X1341279Y-1391500D01*
X1340960Y-1395000D01*
X1341279Y-1398500D01*
X1342240Y-1401879D01*
X1343820Y-1405020D01*
X1345920Y-1407820D01*
X1348520Y-1410200D01*
X1351519Y-1412040D01*
X1354780Y-1413320D01*
G37*
G36*
X928240Y-1413959D02*
G01*
X931760Y-1413959D01*
X935220Y-1413320D01*
X938480Y-1412040D01*
X940400Y-1410860D01*
X941760Y-1410340D01*
X943240Y-1410340D01*
X944599Y-1410860D01*
X946520Y-1412040D01*
X949780Y-1413320D01*
X953240Y-1413959D01*
X956760Y-1413959D01*
X960220Y-1413320D01*
X963480Y-1412040D01*
X966480Y-1410200D01*
X970400Y-1406519D01*
X971760Y-1406000D01*
X973240Y-1406000D01*
X974599Y-1406519D01*
X978520Y-1410200D01*
X981520Y-1412040D01*
X984780Y-1413320D01*
X988240Y-1413959D01*
X991760Y-1413959D01*
X995220Y-1413320D01*
X998480Y-1412040D01*
X1000400Y-1410860D01*
X1001760Y-1410340D01*
X1003240Y-1410340D01*
X1004599Y-1410860D01*
X1006520Y-1412040D01*
X1009780Y-1413320D01*
X1013240Y-1413959D01*
X1016760Y-1413959D01*
X1020220Y-1413320D01*
X1023480Y-1412040D01*
X1026480Y-1410200D01*
X1029080Y-1407820D01*
X1031180Y-1405020D01*
X1032760Y-1401879D01*
X1033720Y-1398500D01*
X1034040Y-1395000D01*
X1033720Y-1391500D01*
X1032760Y-1388120D01*
X1031180Y-1384980D01*
X1029080Y-1382180D01*
X1026480Y-1379800D01*
X1023480Y-1377960D01*
X1020220Y-1376680D01*
X1016760Y-1376040D01*
X1013240Y-1376040D01*
X1009780Y-1376680D01*
X1006520Y-1377960D01*
X1004599Y-1379139D01*
X1003240Y-1379660D01*
X1001760Y-1379660D01*
X1000400Y-1379139D01*
X998480Y-1377960D01*
X995220Y-1376680D01*
X991760Y-1376040D01*
X988240Y-1376040D01*
X984780Y-1376680D01*
X981520Y-1377960D01*
X978520Y-1379800D01*
X974599Y-1383480D01*
X973240Y-1384000D01*
X971760Y-1384000D01*
X970400Y-1383480D01*
X966480Y-1379800D01*
X963480Y-1377960D01*
X960220Y-1376680D01*
X956760Y-1376040D01*
X953240Y-1376040D01*
X949780Y-1376680D01*
X946520Y-1377960D01*
X944599Y-1379139D01*
X943240Y-1379660D01*
X941760Y-1379660D01*
X940400Y-1379139D01*
X938480Y-1377960D01*
X935220Y-1376680D01*
X931760Y-1376040D01*
X928240Y-1376040D01*
X924780Y-1376680D01*
X921520Y-1377960D01*
X918520Y-1379800D01*
X915920Y-1382180D01*
X913820Y-1384980D01*
X912240Y-1388120D01*
X911280Y-1391500D01*
X910960Y-1395000D01*
X911280Y-1398500D01*
X912240Y-1401879D01*
X913820Y-1405020D01*
X915920Y-1407820D01*
X918520Y-1410200D01*
X921520Y-1412040D01*
X924780Y-1413320D01*
G37*
G36*
X1850000Y-1387180D02*
G01*
X1853860Y-1386840D01*
X1857580Y-1385840D01*
X1861100Y-1384220D01*
X1864259Y-1382000D01*
X1867000Y-1379259D01*
X1869220Y-1376080D01*
X1870320Y-1375020D01*
X1871740Y-1374440D01*
X1873260Y-1374440D01*
X1874680Y-1375020D01*
X1875780Y-1376080D01*
X1878000Y-1379259D01*
X1880740Y-1382000D01*
X1883899Y-1384220D01*
X1887420Y-1385840D01*
X1891140Y-1386840D01*
X1895000Y-1387180D01*
X1898860Y-1386840D01*
X1902580Y-1385840D01*
X1906100Y-1384220D01*
X1909259Y-1382000D01*
X1912000Y-1379259D01*
X1914220Y-1376100D01*
X1915840Y-1372580D01*
X1916840Y-1368860D01*
X1917180Y-1365000D01*
X1916840Y-1361140D01*
X1915840Y-1357420D01*
X1914220Y-1353899D01*
X1912000Y-1350740D01*
X1909259Y-1348000D01*
X1906080Y-1345780D01*
X1905020Y-1344680D01*
X1904440Y-1343260D01*
X1904440Y-1341740D01*
X1905020Y-1340320D01*
X1906080Y-1339220D01*
X1909259Y-1337000D01*
X1912000Y-1334259D01*
X1914220Y-1331100D01*
X1915840Y-1327580D01*
X1916840Y-1323860D01*
X1917180Y-1320000D01*
X1916840Y-1316140D01*
X1915840Y-1312420D01*
X1914220Y-1308899D01*
X1912000Y-1305740D01*
X1909079Y-1302820D01*
X1908220Y-1301540D01*
X1907920Y-1300000D01*
X1908220Y-1298460D01*
X1909079Y-1297180D01*
X1912000Y-1294259D01*
X1914220Y-1291100D01*
X1915840Y-1287580D01*
X1916840Y-1283860D01*
X1917180Y-1280000D01*
X1916840Y-1276140D01*
X1915840Y-1272420D01*
X1914220Y-1268900D01*
X1912000Y-1265740D01*
X1909259Y-1263000D01*
X1906100Y-1260780D01*
X1902580Y-1259160D01*
X1898860Y-1258160D01*
X1895000Y-1257820D01*
X1891140Y-1258160D01*
X1887420Y-1259160D01*
X1883899Y-1260780D01*
X1880740Y-1263000D01*
X1878000Y-1265740D01*
X1875780Y-1268920D01*
X1874680Y-1269980D01*
X1873260Y-1270560D01*
X1871740Y-1270560D01*
X1870320Y-1269980D01*
X1869220Y-1268920D01*
X1867000Y-1265740D01*
X1864259Y-1263000D01*
X1861100Y-1260780D01*
X1857580Y-1259160D01*
X1853860Y-1258160D01*
X1850000Y-1257820D01*
X1846140Y-1258160D01*
X1842420Y-1259160D01*
X1838899Y-1260780D01*
X1835740Y-1263000D01*
X1833000Y-1265740D01*
X1830780Y-1268920D01*
X1829680Y-1269980D01*
X1828260Y-1270560D01*
X1826740Y-1270560D01*
X1825320Y-1269980D01*
X1824220Y-1268920D01*
X1822000Y-1265740D01*
X1819259Y-1263000D01*
X1816100Y-1260780D01*
X1812580Y-1259160D01*
X1808860Y-1258160D01*
X1805000Y-1257820D01*
X1801140Y-1258160D01*
X1797420Y-1259160D01*
X1793899Y-1260780D01*
X1790740Y-1263000D01*
X1788000Y-1265740D01*
X1785780Y-1268900D01*
X1784160Y-1272420D01*
X1783160Y-1276140D01*
X1782820Y-1280000D01*
X1783160Y-1283860D01*
X1784160Y-1287580D01*
X1785780Y-1291100D01*
X1788000Y-1294259D01*
X1790740Y-1297000D01*
X1793320Y-1298800D01*
X1794480Y-1300080D01*
X1795000Y-1301720D01*
X1794780Y-1303440D01*
X1793839Y-1304900D01*
X1793000Y-1305740D01*
X1790780Y-1308899D01*
X1789160Y-1312420D01*
X1788160Y-1316140D01*
X1787820Y-1320000D01*
X1788160Y-1323860D01*
X1789160Y-1327580D01*
X1790780Y-1331100D01*
X1793000Y-1334259D01*
X1795920Y-1337180D01*
X1796780Y-1338460D01*
X1797080Y-1340000D01*
X1796780Y-1341540D01*
X1795920Y-1342820D01*
X1793000Y-1345740D01*
X1790780Y-1348899D01*
X1789160Y-1352420D01*
X1788160Y-1356140D01*
X1787820Y-1360000D01*
X1788160Y-1363860D01*
X1789160Y-1367580D01*
X1790780Y-1371100D01*
X1793000Y-1374259D01*
X1795740Y-1377000D01*
X1798899Y-1379220D01*
X1802420Y-1380840D01*
X1806140Y-1381840D01*
X1810000Y-1382180D01*
X1813860Y-1381840D01*
X1817580Y-1380840D01*
X1821100Y-1379220D01*
X1824259Y-1377000D01*
X1825100Y-1376160D01*
X1826560Y-1375220D01*
X1828280Y-1375000D01*
X1829920Y-1375520D01*
X1831200Y-1376680D01*
X1833000Y-1379259D01*
X1835740Y-1382000D01*
X1838899Y-1384220D01*
X1842420Y-1385840D01*
X1846140Y-1386840D01*
G37*
G36*
X210000Y-1291920D02*
G01*
X215140Y-1291560D01*
X220180Y-1290500D01*
X225020Y-1288720D01*
X229560Y-1286320D01*
X233740Y-1283280D01*
X237440Y-1279700D01*
X240600Y-1275640D01*
X243180Y-1271180D01*
X245120Y-1266400D01*
X246360Y-1261420D01*
X246900Y-1256280D01*
X246720Y-1251140D01*
X245820Y-1246060D01*
X244240Y-1241160D01*
X241980Y-1236540D01*
X239100Y-1232260D01*
X235640Y-1228440D01*
X231700Y-1225140D01*
X227340Y-1222400D01*
X222620Y-1220300D01*
X217680Y-1218880D01*
X212580Y-1218160D01*
X207420Y-1218160D01*
X202320Y-1218880D01*
X197380Y-1220300D01*
X192659Y-1222400D01*
X188299Y-1225140D01*
X184360Y-1228440D01*
X180900Y-1232260D01*
X178020Y-1236540D01*
X175760Y-1241160D01*
X174180Y-1246060D01*
X173280Y-1251140D01*
X173100Y-1256280D01*
X173640Y-1261420D01*
X174880Y-1266400D01*
X176820Y-1271180D01*
X179400Y-1275640D01*
X182560Y-1279700D01*
X186260Y-1283280D01*
X190440Y-1286320D01*
X194980Y-1288720D01*
X199820Y-1290500D01*
X204860Y-1291560D01*
G37*
G36*
X110000Y-1241920D02*
G01*
X115140Y-1241560D01*
X120180Y-1240500D01*
X125020Y-1238720D01*
X129560Y-1236320D01*
X133740Y-1233280D01*
X137440Y-1229700D01*
X140600Y-1225640D01*
X143180Y-1221180D01*
X145120Y-1216400D01*
X146360Y-1211420D01*
X146900Y-1206280D01*
X146720Y-1201140D01*
X145820Y-1196060D01*
X144240Y-1191160D01*
X141980Y-1186540D01*
X139100Y-1182260D01*
X135640Y-1178440D01*
X131700Y-1175140D01*
X127340Y-1172400D01*
X122620Y-1170300D01*
X117680Y-1168880D01*
X112579Y-1168160D01*
X107420Y-1168160D01*
X102320Y-1168880D01*
X97380Y-1170300D01*
X92660Y-1172400D01*
X88300Y-1175140D01*
X84360Y-1178440D01*
X80900Y-1182260D01*
X78020Y-1186540D01*
X75760Y-1191160D01*
X74180Y-1196060D01*
X73280Y-1201140D01*
X73100Y-1206280D01*
X73640Y-1211420D01*
X74880Y-1216400D01*
X76820Y-1221180D01*
X79400Y-1225640D01*
X82560Y-1229700D01*
X86260Y-1233280D01*
X90440Y-1236320D01*
X94980Y-1238720D01*
X99820Y-1240500D01*
X104860Y-1241560D01*
G37*
G36*
X1718240Y-1223960D02*
G01*
X1721759Y-1223960D01*
X1725220Y-1223320D01*
X1728480Y-1222040D01*
X1731480Y-1220200D01*
X1734079Y-1217820D01*
X1736180Y-1215020D01*
X1737760Y-1211880D01*
X1738720Y-1208500D01*
X1739040Y-1205000D01*
X1738720Y-1201500D01*
X1737760Y-1198120D01*
X1736180Y-1194980D01*
X1734079Y-1192180D01*
X1732180Y-1190460D01*
X1731220Y-1189120D01*
X1730880Y-1187500D01*
X1731220Y-1185880D01*
X1732180Y-1184540D01*
X1734079Y-1182820D01*
X1736180Y-1180020D01*
X1737760Y-1176880D01*
X1738720Y-1173500D01*
X1739040Y-1170000D01*
X1738720Y-1166500D01*
X1737760Y-1163120D01*
X1736180Y-1159980D01*
X1734079Y-1157180D01*
X1731480Y-1154800D01*
X1729199Y-1153400D01*
X1728040Y-1152300D01*
X1727400Y-1150800D01*
X1727400Y-1149200D01*
X1728040Y-1147700D01*
X1729199Y-1146600D01*
X1731480Y-1145200D01*
X1734079Y-1142820D01*
X1736180Y-1140020D01*
X1737760Y-1136880D01*
X1738720Y-1133500D01*
X1739040Y-1130000D01*
X1738720Y-1126500D01*
X1737760Y-1123120D01*
X1736180Y-1119980D01*
X1734079Y-1117180D01*
X1731480Y-1114800D01*
X1728480Y-1112960D01*
X1725220Y-1111680D01*
X1721759Y-1111040D01*
X1718240Y-1111040D01*
X1714780Y-1111680D01*
X1711519Y-1112960D01*
X1708520Y-1114800D01*
X1705920Y-1117180D01*
X1703820Y-1119980D01*
X1702240Y-1123120D01*
X1701279Y-1126500D01*
X1700960Y-1130000D01*
X1701279Y-1133500D01*
X1702240Y-1136880D01*
X1703820Y-1140020D01*
X1705920Y-1142820D01*
X1708520Y-1145200D01*
X1710800Y-1146600D01*
X1711960Y-1147700D01*
X1712600Y-1149200D01*
X1712600Y-1150800D01*
X1711960Y-1152300D01*
X1710800Y-1153400D01*
X1708520Y-1154800D01*
X1705920Y-1157180D01*
X1703820Y-1159980D01*
X1702240Y-1163120D01*
X1701279Y-1166500D01*
X1700960Y-1170000D01*
X1701279Y-1173500D01*
X1702240Y-1176880D01*
X1703820Y-1180020D01*
X1705920Y-1182820D01*
X1707820Y-1184540D01*
X1708779Y-1185880D01*
X1709120Y-1187500D01*
X1708779Y-1189120D01*
X1707820Y-1190460D01*
X1705920Y-1192180D01*
X1703820Y-1194980D01*
X1702240Y-1198120D01*
X1701279Y-1201500D01*
X1700960Y-1205000D01*
X1701279Y-1208500D01*
X1702240Y-1211880D01*
X1703820Y-1215020D01*
X1705920Y-1217820D01*
X1708520Y-1220200D01*
X1711519Y-1222040D01*
X1714780Y-1223320D01*
G37*
G36*
X708240Y-1203960D02*
G01*
X711760Y-1203960D01*
X715220Y-1203320D01*
X718480Y-1202040D01*
X721480Y-1200200D01*
X724080Y-1197820D01*
X726180Y-1195020D01*
X727760Y-1191880D01*
X728720Y-1188500D01*
X729040Y-1185000D01*
X728720Y-1181500D01*
X727760Y-1178120D01*
X726180Y-1174980D01*
X724080Y-1172180D01*
X721480Y-1169800D01*
X718480Y-1167960D01*
X715220Y-1166680D01*
X711760Y-1166040D01*
X708240Y-1166040D01*
X704780Y-1166680D01*
X701520Y-1167960D01*
X698520Y-1169800D01*
X695920Y-1172180D01*
X693820Y-1174980D01*
X692240Y-1178120D01*
X691280Y-1181500D01*
X690960Y-1185000D01*
X691280Y-1188500D01*
X692240Y-1191880D01*
X693820Y-1195020D01*
X695920Y-1197820D01*
X698520Y-1200200D01*
X701520Y-1202040D01*
X704780Y-1203320D01*
G37*
G36*
X503240Y-1413959D02*
G01*
X506760Y-1413959D01*
X510220Y-1413320D01*
X513480Y-1412040D01*
X515400Y-1410860D01*
X516760Y-1410340D01*
X518240Y-1410340D01*
X519600Y-1410860D01*
X521520Y-1412040D01*
X524780Y-1413320D01*
X528240Y-1413959D01*
X531760Y-1413959D01*
X535220Y-1413320D01*
X538480Y-1412040D01*
X541480Y-1410200D01*
X542300Y-1409440D01*
X543560Y-1408660D01*
X545000Y-1408400D01*
X546440Y-1408660D01*
X547700Y-1409440D01*
X548520Y-1410200D01*
X551520Y-1412040D01*
X554780Y-1413320D01*
X558240Y-1413959D01*
X561760Y-1413959D01*
X565220Y-1413320D01*
X568480Y-1412040D01*
X570400Y-1410860D01*
X571760Y-1410340D01*
X573240Y-1410340D01*
X574600Y-1410860D01*
X576520Y-1412040D01*
X579780Y-1413320D01*
X583240Y-1413959D01*
X586760Y-1413959D01*
X590220Y-1413320D01*
X593480Y-1412040D01*
X596480Y-1410200D01*
X599080Y-1407820D01*
X601180Y-1405020D01*
X602760Y-1401879D01*
X603720Y-1398500D01*
X604040Y-1395000D01*
X603720Y-1391500D01*
X602760Y-1388120D01*
X601180Y-1384980D01*
X599080Y-1382180D01*
X596480Y-1379800D01*
X593480Y-1377960D01*
X590220Y-1376680D01*
X586760Y-1376040D01*
X583240Y-1376040D01*
X579780Y-1376680D01*
X576520Y-1377960D01*
X574600Y-1379139D01*
X573240Y-1379660D01*
X571760Y-1379660D01*
X570400Y-1379139D01*
X568480Y-1377960D01*
X565220Y-1376680D01*
X561760Y-1376040D01*
X558240Y-1376040D01*
X554780Y-1376680D01*
X551520Y-1377960D01*
X548520Y-1379800D01*
X547700Y-1380560D01*
X546440Y-1381339D01*
X545000Y-1381600D01*
X543560Y-1381339D01*
X542300Y-1380560D01*
X541480Y-1379800D01*
X538480Y-1377960D01*
X535220Y-1376680D01*
X531760Y-1376040D01*
X528240Y-1376040D01*
X524780Y-1376680D01*
X521520Y-1377960D01*
X519600Y-1379139D01*
X518240Y-1379660D01*
X516760Y-1379660D01*
X515400Y-1379139D01*
X513480Y-1377960D01*
X510220Y-1376680D01*
X506760Y-1376040D01*
X503240Y-1376040D01*
X499780Y-1376680D01*
X496520Y-1377960D01*
X493519Y-1379800D01*
X490920Y-1382180D01*
X488820Y-1384980D01*
X487239Y-1388120D01*
X486280Y-1391500D01*
X485959Y-1395000D01*
X486280Y-1398500D01*
X487239Y-1401879D01*
X488820Y-1405020D01*
X490920Y-1407820D01*
X493519Y-1410200D01*
X496520Y-1412040D01*
X499780Y-1413320D01*
G37*
G36*
X868240Y-1188960D02*
G01*
X871760Y-1188960D01*
X875220Y-1188320D01*
X878480Y-1187040D01*
X881480Y-1185200D01*
X884080Y-1182820D01*
X886180Y-1180020D01*
X887760Y-1176880D01*
X888720Y-1173500D01*
X889040Y-1170000D01*
X888720Y-1166500D01*
X887760Y-1163120D01*
X886180Y-1159980D01*
X884080Y-1157180D01*
X881480Y-1154800D01*
X878480Y-1152960D01*
X875220Y-1151680D01*
X871760Y-1151040D01*
X868240Y-1151040D01*
X864780Y-1151680D01*
X861520Y-1152960D01*
X858520Y-1154800D01*
X855920Y-1157180D01*
X853820Y-1159980D01*
X852240Y-1163120D01*
X851280Y-1166500D01*
X850960Y-1170000D01*
X851280Y-1173500D01*
X852240Y-1176880D01*
X853820Y-1180020D01*
X855920Y-1182820D01*
X858520Y-1185200D01*
X861520Y-1187040D01*
X864780Y-1188320D01*
G37*
G36*
X1020000Y-1142180D02*
G01*
X1023860Y-1141840D01*
X1027580Y-1140840D01*
X1031100Y-1139220D01*
X1034260Y-1137000D01*
X1037000Y-1134260D01*
X1039220Y-1131100D01*
X1040840Y-1127580D01*
X1041840Y-1123860D01*
X1042180Y-1120000D01*
X1041840Y-1116140D01*
X1040840Y-1112420D01*
X1039220Y-1108900D01*
X1037000Y-1105740D01*
X1034260Y-1103000D01*
X1031100Y-1100780D01*
X1027580Y-1099160D01*
X1023860Y-1098160D01*
X1020000Y-1097820D01*
X1016140Y-1098160D01*
X1012420Y-1099160D01*
X1008900Y-1100780D01*
X1005740Y-1103000D01*
X1003000Y-1105740D01*
X1000780Y-1108900D01*
X999160Y-1112420D01*
X998160Y-1116140D01*
X997820Y-1120000D01*
X998160Y-1123860D01*
X999160Y-1127580D01*
X1000780Y-1131100D01*
X1003000Y-1134260D01*
X1005740Y-1137000D01*
X1008900Y-1139220D01*
X1012420Y-1140840D01*
X1016140Y-1141840D01*
G37*
G36*
X1233240Y-1128960D02*
G01*
X1236760Y-1128960D01*
X1240220Y-1128320D01*
X1243480Y-1127040D01*
X1246480Y-1125200D01*
X1249080Y-1122820D01*
X1251180Y-1120020D01*
X1252760Y-1116880D01*
X1253720Y-1113500D01*
X1254040Y-1110000D01*
X1253720Y-1106500D01*
X1252760Y-1103120D01*
X1251180Y-1099980D01*
X1249080Y-1097180D01*
X1246480Y-1094800D01*
X1243480Y-1092960D01*
X1240220Y-1091680D01*
X1236760Y-1091040D01*
X1233240Y-1091040D01*
X1229780Y-1091680D01*
X1226520Y-1092960D01*
X1223520Y-1094800D01*
X1220920Y-1097180D01*
X1218820Y-1099980D01*
X1217240Y-1103120D01*
X1216280Y-1106500D01*
X1215960Y-1110000D01*
X1216280Y-1113500D01*
X1217240Y-1116880D01*
X1218820Y-1120020D01*
X1220920Y-1122820D01*
X1223520Y-1125200D01*
X1226520Y-1127040D01*
X1229780Y-1128320D01*
G37*
G36*
X723240Y-1118960D02*
G01*
X726760Y-1118960D01*
X730220Y-1118320D01*
X733480Y-1117040D01*
X736480Y-1115200D01*
X739080Y-1112820D01*
X741180Y-1110020D01*
X742760Y-1106880D01*
X743720Y-1103500D01*
X744040Y-1100000D01*
X743720Y-1096500D01*
X742760Y-1093120D01*
X741180Y-1089980D01*
X739080Y-1087180D01*
X736480Y-1084800D01*
X733480Y-1082960D01*
X730220Y-1081680D01*
X726760Y-1081040D01*
X723240Y-1081040D01*
X719780Y-1081680D01*
X716520Y-1082960D01*
X713520Y-1084800D01*
X710920Y-1087180D01*
X708820Y-1089980D01*
X707240Y-1093120D01*
X706280Y-1096500D01*
X705960Y-1100000D01*
X706280Y-1103500D01*
X707240Y-1106880D01*
X708820Y-1110020D01*
X710920Y-1112820D01*
X713520Y-1115200D01*
X716520Y-1117040D01*
X719780Y-1118320D01*
G37*
G36*
X179520Y-1090560D02*
G01*
X184940Y-1090380D01*
X190300Y-1089480D01*
X195500Y-1087860D01*
X200440Y-1085580D01*
X205020Y-1082640D01*
X209160Y-1079140D01*
X212820Y-1075100D01*
X215880Y-1070620D01*
X218340Y-1065760D01*
X220120Y-1060640D01*
X221200Y-1055300D01*
X221580Y-1049880D01*
X221200Y-1044460D01*
X220120Y-1039120D01*
X218340Y-1034000D01*
X215880Y-1029140D01*
X212820Y-1024659D01*
X209160Y-1020620D01*
X205020Y-1017120D01*
X200440Y-1014180D01*
X195500Y-1011900D01*
X190300Y-1010280D01*
X184940Y-1009380D01*
X179520Y-1009200D01*
X174100Y-1009740D01*
X168820Y-1011000D01*
X163740Y-1012960D01*
X158960Y-1015580D01*
X154600Y-1018800D01*
X150680Y-1022580D01*
X147320Y-1026840D01*
X144540Y-1031520D01*
X142420Y-1036520D01*
X140980Y-1041780D01*
X140260Y-1047159D01*
X140260Y-1052600D01*
X140980Y-1057980D01*
X142420Y-1063240D01*
X144540Y-1068240D01*
X147320Y-1072920D01*
X150680Y-1077180D01*
X154600Y-1080960D01*
X158960Y-1084180D01*
X163740Y-1086800D01*
X168820Y-1088760D01*
X174100Y-1090020D01*
G37*
G36*
X1600000Y-1077180D02*
G01*
X1603860Y-1076840D01*
X1607580Y-1075840D01*
X1611100Y-1074220D01*
X1614259Y-1072000D01*
X1617000Y-1069260D01*
X1619220Y-1066100D01*
X1620840Y-1062580D01*
X1621840Y-1058860D01*
X1622180Y-1055000D01*
X1621840Y-1051140D01*
X1620840Y-1047420D01*
X1619220Y-1043900D01*
X1617000Y-1040740D01*
X1614259Y-1038000D01*
X1611100Y-1035780D01*
X1607580Y-1034160D01*
X1603860Y-1033160D01*
X1600000Y-1032820D01*
X1596140Y-1033160D01*
X1592420Y-1034160D01*
X1588899Y-1035780D01*
X1585740Y-1038000D01*
X1583000Y-1040740D01*
X1580780Y-1043900D01*
X1579160Y-1047420D01*
X1578160Y-1051140D01*
X1577820Y-1055000D01*
X1578160Y-1058860D01*
X1579160Y-1062580D01*
X1580780Y-1066100D01*
X1583000Y-1069260D01*
X1585740Y-1072000D01*
X1588899Y-1074220D01*
X1592420Y-1075840D01*
X1596140Y-1076840D01*
G37*
G36*
X210000Y-1191920D02*
G01*
X215140Y-1191560D01*
X220180Y-1190500D01*
X225020Y-1188720D01*
X229560Y-1186320D01*
X233740Y-1183280D01*
X237440Y-1179700D01*
X240600Y-1175640D01*
X243180Y-1171180D01*
X245120Y-1166400D01*
X246360Y-1161420D01*
X246900Y-1156280D01*
X246720Y-1151140D01*
X245820Y-1146060D01*
X244240Y-1141160D01*
X241980Y-1136540D01*
X239100Y-1132260D01*
X235640Y-1128440D01*
X231700Y-1125140D01*
X227340Y-1122400D01*
X222620Y-1120300D01*
X217680Y-1118880D01*
X212580Y-1118160D01*
X207420Y-1118160D01*
X202320Y-1118880D01*
X197380Y-1120300D01*
X192659Y-1122400D01*
X188299Y-1125140D01*
X184360Y-1128440D01*
X180900Y-1132260D01*
X178020Y-1136540D01*
X175760Y-1141160D01*
X174180Y-1146060D01*
X173280Y-1151140D01*
X173100Y-1156280D01*
X173640Y-1161420D01*
X174880Y-1166400D01*
X176820Y-1171180D01*
X179400Y-1175640D01*
X182560Y-1179700D01*
X186260Y-1183280D01*
X190440Y-1186320D01*
X194980Y-1188720D01*
X199820Y-1190500D01*
X204860Y-1191560D01*
G37*

%LPD*%
D10*
G01*
X1600000Y-100000D03*
D11*
G01*
X1550000Y-200000D03*
G01*
X1500000Y-100000D03*
G01*
X1450000Y-200000D03*
D10*
G01*
X290000Y-90000D03*
D11*
G01*
X240000Y-190000D03*
G01*
X190000Y-90000D03*
G01*
X140000Y-190000D03*
D10*
G01*
X1050000Y-100000D03*
D11*
G01*
X1000000Y-200000D03*
G01*
X950000Y-100000D03*
G01*
X900000Y-200000D03*
D10*
G01*
X110000Y-1105000D03*
D11*
G01*
X210000Y-1155000D03*
G01*
X110000Y-1205000D03*
G01*
X210000Y-1255000D03*
D12*
G01*
X60000Y-330079D03*
G01*
X60000Y-589920D03*
D13*
G01*
X990000Y-1395000D03*
G01*
X1015000Y-1395000D03*
G01*
X955000Y-1395000D03*
G01*
X930000Y-1395000D03*
G01*
X1360000Y-1395000D03*
G01*
X1385000Y-1395000D03*
G01*
X1415000Y-1395000D03*
G01*
X1440000Y-1395000D03*
G01*
X505000Y-1395000D03*
G01*
X530000Y-1395000D03*
G01*
X560000Y-1395000D03*
G01*
X585000Y-1395000D03*
G01*
X1720000Y-1130000D03*
G01*
X1720000Y-1170000D03*
G01*
X1720000Y-1205000D03*
G01*
X1815000Y-1130000D03*
G01*
X1805000Y-1170000D03*
G01*
X1700000Y-1240000D03*
G01*
X380000Y-1295000D03*
G01*
X810000Y-1295000D03*
G01*
X1235000Y-1295000D03*
G01*
X525000Y-1350000D03*
G01*
X565000Y-1350000D03*
G01*
X510000Y-1450000D03*
G01*
X545000Y-1450000D03*
G01*
X580000Y-1450000D03*
G01*
X975000Y-1450000D03*
G01*
X1010000Y-1450000D03*
G01*
X940000Y-1450000D03*
G01*
X1400000Y-1450000D03*
G01*
X1370000Y-1450000D03*
G01*
X1430000Y-1450000D03*
G01*
X955000Y-1345000D03*
G01*
X995000Y-1345000D03*
G01*
X1375000Y-1345000D03*
G01*
X1420000Y-1345000D03*
G01*
X595000Y-1215000D03*
G01*
X1025000Y-1215000D03*
G01*
X1450000Y-1215000D03*
G01*
X625000Y-1100000D03*
G01*
X1075000Y-1100000D03*
G01*
X1335000Y-1110000D03*
G01*
X1335000Y-1145000D03*
G01*
X885000Y-1110000D03*
G01*
X885000Y-1145000D03*
G01*
X1575000Y-1265000D03*
D14*
G01*
X1895000Y-1515000D03*
G01*
X1895000Y-1430000D03*
G01*
X1810000Y-1430000D03*
G01*
X1810000Y-1515000D03*
G01*
X1850730Y-1472719D03*
G01*
X1850000Y-1430000D03*
G01*
X1850000Y-1515000D03*
G01*
X1895000Y-1475000D03*
G01*
X1810000Y-1475000D03*
D13*
G01*
X1235000Y-1110000D03*
G01*
X870000Y-1170000D03*
G01*
X725000Y-1100000D03*
G01*
X710000Y-1185000D03*
D15*
G01*
X1600000Y-1055000D03*
G01*
X1020000Y-1120000D03*
G01*
X1915000Y-380000D03*
G01*
X1915000Y-475000D03*
G01*
X1920000Y-530000D03*
D13*
G01*
X1355000Y-745000D03*
G01*
X1385000Y-745000D03*
G01*
X1050000Y-855000D03*
G01*
X1050000Y-825000D03*
G01*
X905000Y-745000D03*
G01*
X935000Y-745000D03*
G01*
X600000Y-825000D03*
G01*
X600000Y-855000D03*
G01*
X340000Y-535000D03*
G01*
X205000Y-515000D03*
G01*
X515000Y-330000D03*
G01*
X515000Y-370000D03*
G01*
X1245000Y-130000D03*
G01*
X1305000Y-360000D03*
G01*
X1305000Y-425000D03*
G01*
X1305000Y-395000D03*
G01*
X435000Y-655000D03*
G01*
X435000Y-685000D03*
G01*
X1035000Y-685000D03*
G01*
X1010000Y-685000D03*
G01*
X985000Y-580000D03*
G01*
X1280000Y-700000D03*
G01*
X1280000Y-735000D03*
G01*
X780000Y-330000D03*
G01*
X780000Y-360000D03*
G01*
X1275000Y-375000D03*
G01*
X1240000Y-360000D03*
G01*
X980000Y-360000D03*
G01*
X770000Y-670000D03*
G01*
X1115000Y-685000D03*
G01*
X1335000Y-615000D03*
G01*
X1275000Y-585000D03*
G01*
X1325000Y-805000D03*
G01*
X1275000Y-820000D03*
G01*
X1210000Y-575000D03*
G01*
X1245000Y-680000D03*
G01*
X925000Y-490000D03*
G01*
X970000Y-485000D03*
G01*
X980000Y-520000D03*
G01*
X775000Y-800000D03*
G01*
X1500000Y-800000D03*
G01*
X1420000Y-495000D03*
G01*
X1485000Y-530000D03*
G01*
X1085000Y-385000D03*
G01*
X1115000Y-360000D03*
G01*
X1540000Y-500000D03*
G01*
X1180000Y-750000D03*
G01*
X920000Y-620000D03*
G01*
X980000Y-645000D03*
G01*
X1195000Y-535000D03*
G01*
X1175000Y-505000D03*
G01*
X1475000Y-395000D03*
G01*
X1925000Y-580000D03*
G01*
X1080000Y-785000D03*
G01*
X970000Y-740000D03*
G01*
X1500000Y-850000D03*
D15*
G01*
X740000Y-200000D03*
G01*
X500000Y-485000D03*
G01*
X450000Y-540000D03*
G01*
X850000Y-485000D03*
G01*
X850000Y-540000D03*
G01*
X1304669Y-50000D03*
G01*
X1895000Y-1365000D03*
G01*
X1895000Y-1320000D03*
G01*
X1850000Y-1280000D03*
G01*
X1850730Y-1322719D03*
G01*
X1895000Y-1280000D03*
G01*
X1805000Y-1280000D03*
G01*
X1810000Y-1320000D03*
G01*
X1850000Y-1365000D03*
G01*
X1810000Y-1360000D03*
M02*
