G04 Layer: TopSilkscreenLayer*
G04 EasyEDA v6.5.22, 2022-12-05 22:01:04*
G04 d1a99e3ffb4d45b387634f4a3d5e2a22,8bbad783b4b447a482771b0ae512d992,10*
G04 Gerber Generator version 0.2*
G04 Scale: 100 percent, Rotated: No, Reflected: No *
G04 Dimensions in inches *
G04 leading zeros omitted , absolute positions ,3 integer and 6 decimal *
%FSLAX36Y36*%
%MOIN*%

%ADD10C,0.0070*%
%ADD11C,0.0060*%
%ADD12C,0.0100*%
%ADD13C,0.0047*%
%ADD14C,0.0059*%
%ADD15C,0.0079*%
%ADD16C,0.0050*%
%ADD17C,0.0060*%
%ADD18C,0.0079*%
%ADD19C,0.0118*%
%ADD20C,0.0197*%

%LPD*%
G36*
X354500Y-718980D02*
G01*
X354500Y-742099D01*
X347120Y-750000D01*
X311880Y-750000D01*
X312247Y-757280D01*
X336980Y-757280D01*
X336980Y-760000D01*
X336560Y-761919D01*
X335540Y-762660D01*
X334300Y-762180D01*
X333240Y-760460D01*
X332440Y-758180D01*
X329020Y-763640D01*
X326220Y-758700D01*
X323840Y-763120D01*
X321040Y-758180D01*
X317920Y-763640D01*
X317860Y-757280D01*
X312247Y-757280D01*
X313348Y-779080D01*
X317960Y-779080D01*
X319900Y-773340D01*
X322400Y-777940D01*
X327100Y-773480D01*
X328760Y-778180D01*
X332440Y-772720D01*
X334060Y-777300D01*
X336980Y-775240D01*
X336980Y-779080D01*
X313348Y-779080D01*
X313520Y-782480D01*
X311640Y-790900D01*
X310240Y-795020D01*
X307660Y-801820D01*
X299620Y-821800D01*
X288860Y-847520D01*
X265405Y-902280D01*
X274860Y-902280D01*
X274860Y-899020D01*
X275080Y-898000D01*
X276820Y-892880D01*
X279980Y-884360D01*
X289220Y-860500D01*
X301440Y-829860D01*
X310940Y-806720D01*
X314320Y-798820D01*
X316360Y-794500D01*
X316620Y-794080D01*
X318140Y-792400D01*
X319700Y-792000D01*
X321659Y-792940D01*
X324420Y-795260D01*
X328160Y-798700D01*
X315240Y-830520D01*
X285440Y-904479D01*
X282660Y-904479D01*
X281380Y-904400D01*
X279960Y-904160D01*
X278560Y-903820D01*
X274860Y-902280D01*
X265405Y-902280D01*
X258760Y-917780D01*
X259007Y-920580D01*
X263700Y-920580D01*
X263700Y-915600D01*
X267240Y-912760D01*
X270360Y-910699D01*
X272960Y-910120D01*
X275400Y-911080D01*
X278040Y-913580D01*
X279320Y-915220D01*
X280260Y-916860D01*
X280840Y-918480D01*
X281080Y-920100D01*
X280980Y-921700D01*
X280520Y-923319D01*
X279720Y-924960D01*
X278580Y-926600D01*
X275960Y-929920D01*
X271740Y-929920D01*
X269840Y-929780D01*
X268200Y-929360D01*
X266820Y-928620D01*
X265700Y-927600D01*
X264820Y-926300D01*
X264200Y-924700D01*
X263820Y-922780D01*
X263700Y-920580D01*
X259007Y-920580D01*
X259720Y-928660D01*
X268360Y-935980D01*
X278180Y-935980D01*
X280760Y-932980D01*
X281460Y-931600D01*
X283860Y-926020D01*
X287420Y-917240D01*
X297060Y-892320D01*
X317300Y-838400D01*
X324920Y-818560D01*
X329460Y-807140D01*
X334120Y-796660D01*
X343820Y-785020D01*
X347939Y-780580D01*
X352400Y-776180D01*
X356620Y-772360D01*
X367000Y-764120D01*
X370920Y-753360D01*
X368459Y-741480D01*
X367760Y-738900D01*
X366100Y-733980D01*
X365160Y-731680D01*
X364159Y-729520D01*
X363100Y-727520D01*
X362020Y-725720D01*
X360900Y-724140D01*
X359780Y-722780D01*
X358660Y-721660D01*
X357540Y-720840D01*
G37*
G36*
X327780Y-719120D02*
G01*
X327000Y-719340D01*
X325840Y-719960D01*
X322939Y-721979D01*
X322080Y-722800D01*
X319860Y-725520D01*
X317200Y-729320D01*
X314440Y-733760D01*
X311800Y-738379D01*
X309080Y-742720D01*
X306500Y-746380D01*
X305380Y-747800D01*
X304400Y-748880D01*
X303600Y-749580D01*
X300340Y-751860D01*
X300340Y-761160D01*
X309100Y-760000D01*
X309100Y-747280D01*
X333000Y-745460D01*
X329020Y-742520D01*
X329020Y-719120D01*
G37*
G36*
X123520Y-749760D02*
G01*
X123520Y-776760D01*
X155380Y-776760D01*
X181340Y-778780D01*
X189640Y-785819D01*
X190640Y-801320D01*
X183800Y-809620D01*
X176840Y-811620D01*
X173580Y-812400D01*
X169820Y-813040D01*
X166020Y-813460D01*
X162640Y-813620D01*
X155380Y-813620D01*
X155380Y-776760D01*
X123520Y-776760D01*
X123520Y-840420D01*
X155380Y-840420D01*
X181660Y-842020D01*
X191100Y-847240D01*
X195520Y-860520D01*
X191220Y-870860D01*
X180080Y-877220D01*
X155380Y-877220D01*
X155380Y-840420D01*
X123520Y-840420D01*
X123520Y-906300D01*
X191439Y-906300D01*
X208740Y-900500D01*
X223580Y-883040D01*
X227160Y-863379D01*
X223560Y-844220D01*
X218939Y-838240D01*
X216780Y-835720D01*
X214280Y-833340D01*
X211780Y-831320D01*
X209540Y-829980D01*
X204760Y-827720D01*
X219080Y-813319D01*
X224259Y-793000D01*
X220400Y-773259D01*
X213400Y-764520D01*
X210380Y-761340D01*
X207079Y-758319D01*
X205460Y-756979D01*
X202480Y-754880D01*
X196000Y-750920D01*
G37*
G36*
X66180Y-750000D02*
G01*
X66180Y-866480D01*
X58360Y-875400D01*
X52660Y-875400D01*
X50020Y-875200D01*
X47020Y-874640D01*
X44040Y-873800D01*
X41440Y-872780D01*
X35920Y-870140D01*
X35920Y-902500D01*
X41880Y-904380D01*
X45020Y-905120D01*
X49140Y-905720D01*
X53720Y-906120D01*
X58220Y-906280D01*
X68580Y-906260D01*
X84640Y-897740D01*
X93180Y-886140D01*
X98040Y-867480D01*
X98040Y-750000D01*
G37*
G36*
X318620Y-795440D02*
G01*
X318060Y-796300D01*
X316960Y-798620D01*
X276720Y-898120D01*
X281880Y-902700D01*
X283900Y-900100D01*
X285700Y-896180D01*
X288900Y-888700D01*
X298080Y-866380D01*
X310040Y-836580D01*
X319160Y-813379D01*
X322280Y-805140D01*
X324000Y-800260D01*
X324240Y-799340D01*
X323640Y-798139D01*
X322200Y-796860D01*
X320360Y-795860D01*
G37*
G36*
X172420Y-914220D02*
G01*
X163380Y-920480D01*
X161308Y-928960D01*
X170479Y-928960D01*
X170760Y-926900D01*
X171520Y-925140D01*
X172659Y-923760D01*
X174080Y-922780D01*
X175680Y-922260D01*
X177360Y-922240D01*
X179020Y-922780D01*
X180560Y-923940D01*
X181700Y-926080D01*
X182060Y-928960D01*
X181700Y-931820D01*
X180560Y-933960D01*
X179020Y-935120D01*
X177360Y-935660D01*
X175680Y-935639D01*
X174080Y-935120D01*
X172659Y-934140D01*
X171520Y-932760D01*
X170760Y-931020D01*
X170479Y-928960D01*
X161308Y-928960D01*
X160980Y-930300D01*
X165219Y-939360D01*
X173500Y-943740D01*
X184060Y-942280D01*
X191160Y-934180D01*
X191160Y-923720D01*
X183960Y-915520D01*
G37*
G36*
X88440Y-914320D02*
G01*
X79980Y-919740D01*
X77260Y-926979D01*
X78680Y-936060D01*
X84820Y-942320D01*
X94900Y-943660D01*
X102020Y-940879D01*
X105600Y-934760D01*
X106420Y-933020D01*
X106980Y-931580D01*
X107180Y-930600D01*
X107180Y-928960D01*
X98760Y-928960D01*
X96199Y-934880D01*
X90239Y-935740D01*
X86500Y-932580D01*
X86500Y-929060D01*
X86900Y-926180D01*
X88080Y-924080D01*
X89980Y-922800D01*
X92579Y-922360D01*
X95540Y-922360D01*
X98420Y-927080D01*
X106880Y-926060D01*
X106260Y-923680D01*
X105780Y-922520D01*
X104940Y-921120D01*
X103840Y-919680D01*
X102620Y-918379D01*
X99600Y-915480D01*
G37*
G36*
X40000Y-914460D02*
G01*
X40000Y-935540D01*
X37420Y-935540D01*
X37420Y-943439D01*
X39860Y-943439D01*
X41040Y-943240D01*
X42480Y-942700D01*
X43980Y-941900D01*
X45340Y-940920D01*
X48400Y-938400D01*
X49300Y-914460D01*
G37*
G36*
X59260Y-914460D02*
G01*
X52920Y-920920D01*
X52920Y-943439D01*
X61640Y-943439D01*
X63280Y-932900D01*
X61580Y-922020D01*
X65199Y-923240D01*
X65940Y-943439D01*
X73600Y-943439D01*
X73600Y-919740D01*
X68420Y-914460D01*
G37*
G36*
X111060Y-914460D02*
G01*
X111060Y-943439D01*
X119980Y-943439D01*
X120740Y-928300D01*
X126180Y-942780D01*
X130900Y-943199D01*
X134060Y-943360D01*
X135280Y-942640D01*
X134660Y-940280D01*
X131120Y-932900D01*
X129400Y-928700D01*
X129140Y-927660D01*
X129400Y-926700D01*
X130100Y-925140D01*
X131120Y-923180D01*
X134660Y-917240D01*
X135300Y-915280D01*
X134260Y-914560D01*
X131400Y-914460D01*
X127200Y-914460D01*
X120740Y-926919D01*
X119960Y-914460D01*
G37*
G36*
X138180Y-914460D02*
G01*
X138180Y-943439D01*
X147240Y-943439D01*
X147240Y-922360D01*
X149180Y-922360D01*
X149920Y-922460D01*
X150540Y-922760D01*
X150960Y-923180D01*
X151100Y-923680D01*
X151000Y-924200D01*
X150720Y-924620D01*
X150320Y-924900D01*
X149820Y-925000D01*
X148520Y-925000D01*
X148520Y-932900D01*
X150460Y-932900D01*
X151220Y-933000D01*
X151840Y-933280D01*
X152240Y-933700D01*
X152400Y-934220D01*
X152240Y-934740D01*
X151840Y-935160D01*
X151220Y-935440D01*
X150460Y-935540D01*
X148520Y-935540D01*
X148520Y-943620D01*
X155380Y-942780D01*
X160760Y-935400D01*
X156280Y-927440D01*
X157580Y-924980D01*
X158560Y-922680D01*
X158720Y-920840D01*
X157960Y-919080D01*
X156280Y-917099D01*
X153700Y-914460D01*
G37*
G36*
X192460Y-914460D02*
G01*
X192460Y-922360D01*
X198920Y-922360D01*
X198920Y-943439D01*
X207960Y-943439D01*
X207960Y-922360D01*
X214420Y-922360D01*
X214420Y-914460D01*
G37*
D10*
X1759882Y-1507721D02*
G01*
X1759882Y-1470922D01*
X1735282Y-1457422D02*
G01*
X1778283Y-1457422D01*
X1735282Y-1457422D02*
G01*
X1735282Y-1439022D01*
X1737382Y-1432822D01*
X1739382Y-1430821D01*
X1743482Y-1428721D01*
X1747583Y-1428721D01*
X1751683Y-1430821D01*
X1753683Y-1432822D01*
X1755783Y-1439022D01*
X1755783Y-1457422D02*
G01*
X1755783Y-1439022D01*
X1757782Y-1432822D01*
X1759882Y-1430821D01*
X1763982Y-1428721D01*
X1770083Y-1428721D01*
X1774183Y-1430821D01*
X1776183Y-1432822D01*
X1778283Y-1439022D01*
X1778283Y-1457422D01*
X1735282Y-1398921D02*
G01*
X1778283Y-1415221D01*
X1735282Y-1398921D02*
G01*
X1778283Y-1382521D01*
X1763982Y-1409122D02*
G01*
X1763982Y-1388721D01*
X1735282Y-1354722D02*
G01*
X1778283Y-1354722D01*
X1735282Y-1369022D02*
G01*
X1735282Y-1340421D01*
X1741482Y-1308521D02*
G01*
X1778283Y-1308521D01*
X1759882Y-1326921D02*
G01*
X1759882Y-1290122D01*
D11*
X975699Y-659800D02*
G01*
X973599Y-655700D01*
X969499Y-651599D01*
X965500Y-649600D01*
X957299Y-649600D01*
X953199Y-651599D01*
X949099Y-655700D01*
X946999Y-659800D01*
X945000Y-665999D01*
X945000Y-676199D01*
X946999Y-682300D01*
X949099Y-686399D01*
X953199Y-690500D01*
X957299Y-692500D01*
X965500Y-692500D01*
X969499Y-690500D01*
X973599Y-686399D01*
X975699Y-682300D01*
X991199Y-659800D02*
G01*
X991199Y-657800D01*
X993299Y-653699D01*
X995299Y-651599D01*
X999399Y-649600D01*
X1007600Y-649600D01*
X1011700Y-651599D01*
X1013699Y-653699D01*
X1015799Y-657800D01*
X1015799Y-661900D01*
X1013699Y-665999D01*
X1009600Y-672100D01*
X989200Y-692500D01*
X1017799Y-692500D01*
X1057899Y-663899D02*
G01*
X1055900Y-670000D01*
X1051800Y-674099D01*
X1045600Y-676199D01*
X1043599Y-676199D01*
X1037500Y-674099D01*
X1033400Y-670000D01*
X1031300Y-663899D01*
X1031300Y-661900D01*
X1033400Y-655700D01*
X1037500Y-651599D01*
X1043599Y-649600D01*
X1045600Y-649600D01*
X1051800Y-651599D01*
X1055900Y-655700D01*
X1057899Y-663899D01*
X1057899Y-674099D01*
X1055900Y-684400D01*
X1051800Y-690500D01*
X1045600Y-692500D01*
X1041499Y-692500D01*
X1035399Y-690500D01*
X1033400Y-686399D01*
X1245699Y-89800D02*
G01*
X1243599Y-85700D01*
X1239499Y-81599D01*
X1235500Y-79600D01*
X1227299Y-79600D01*
X1223199Y-81599D01*
X1219099Y-85700D01*
X1216999Y-89800D01*
X1215000Y-95999D01*
X1215000Y-106199D01*
X1216999Y-112300D01*
X1219099Y-116399D01*
X1223199Y-120500D01*
X1227299Y-122500D01*
X1235500Y-122500D01*
X1239499Y-120500D01*
X1243599Y-116399D01*
X1245699Y-112300D01*
X1263299Y-79600D02*
G01*
X1285799Y-79600D01*
X1273500Y-95999D01*
X1279600Y-95999D01*
X1283699Y-98000D01*
X1285799Y-100000D01*
X1287799Y-106199D01*
X1287799Y-110300D01*
X1285799Y-116399D01*
X1281700Y-120500D01*
X1275500Y-122500D01*
X1269399Y-122500D01*
X1263299Y-120500D01*
X1261199Y-118499D01*
X1259200Y-114400D01*
X1313599Y-79600D02*
G01*
X1307500Y-81599D01*
X1303400Y-87800D01*
X1301300Y-98000D01*
X1301300Y-104099D01*
X1303400Y-114400D01*
X1307500Y-120500D01*
X1313599Y-122500D01*
X1317700Y-122500D01*
X1323800Y-120500D01*
X1327899Y-114400D01*
X1330000Y-104099D01*
X1330000Y-98000D01*
X1327899Y-87800D01*
X1323800Y-81599D01*
X1317700Y-79600D01*
X1313599Y-79600D01*
D10*
X1049997Y-1279634D02*
G01*
X1049997Y-1322534D01*
X1049997Y-1279634D02*
G01*
X1066397Y-1322534D01*
X1082698Y-1279634D02*
G01*
X1066397Y-1322534D01*
X1082698Y-1279634D02*
G01*
X1082698Y-1322534D01*
X1096198Y-1287734D02*
G01*
X1100298Y-1285734D01*
X1106498Y-1279634D01*
X1106498Y-1322534D01*
X1479998Y-1284623D02*
G01*
X1479998Y-1327523D01*
X1479998Y-1284623D02*
G01*
X1496399Y-1327523D01*
X1512699Y-1284623D02*
G01*
X1496399Y-1327523D01*
X1512699Y-1284623D02*
G01*
X1512699Y-1327523D01*
X1528298Y-1294823D02*
G01*
X1528298Y-1292824D01*
X1530299Y-1288724D01*
X1532398Y-1286624D01*
X1536499Y-1284623D01*
X1544598Y-1284623D01*
X1548698Y-1286624D01*
X1550798Y-1288724D01*
X1552799Y-1292824D01*
X1552799Y-1296824D01*
X1550798Y-1300924D01*
X1546698Y-1307123D01*
X1526198Y-1327523D01*
X1554898Y-1327523D01*
X625003Y-1279623D02*
G01*
X625003Y-1322523D01*
X625003Y-1279623D02*
G01*
X641404Y-1322523D01*
X657703Y-1279623D02*
G01*
X641404Y-1322523D01*
X657703Y-1279623D02*
G01*
X657703Y-1322523D01*
X675304Y-1279623D02*
G01*
X697804Y-1279623D01*
X685504Y-1295924D01*
X691703Y-1295924D01*
X695803Y-1298024D01*
X697804Y-1300023D01*
X699904Y-1306224D01*
X699904Y-1310324D01*
X697804Y-1316424D01*
X693703Y-1320524D01*
X687604Y-1322523D01*
X681503Y-1322523D01*
X675304Y-1320524D01*
X673303Y-1318424D01*
X671203Y-1314324D01*
D11*
X444800Y-234299D02*
G01*
X440700Y-236399D01*
X436599Y-240500D01*
X434600Y-244499D01*
X434600Y-252699D01*
X436599Y-256799D01*
X440700Y-260900D01*
X444800Y-263000D01*
X450999Y-265000D01*
X461199Y-265000D01*
X467300Y-263000D01*
X471399Y-260900D01*
X475500Y-256799D01*
X477500Y-252699D01*
X477500Y-244499D01*
X475500Y-240500D01*
X471399Y-236399D01*
X467300Y-234299D01*
X442800Y-220799D02*
G01*
X440700Y-216700D01*
X434600Y-210599D01*
X477500Y-210599D01*
X448899Y-170500D02*
G01*
X455000Y-172500D01*
X459099Y-176599D01*
X461199Y-182800D01*
X461199Y-184800D01*
X459099Y-190999D01*
X455000Y-195000D01*
X448899Y-197100D01*
X446900Y-197100D01*
X440700Y-195000D01*
X436599Y-190999D01*
X434600Y-184800D01*
X434600Y-182800D01*
X436599Y-176599D01*
X440700Y-172500D01*
X448899Y-170500D01*
X459099Y-170500D01*
X469400Y-172500D01*
X475500Y-176599D01*
X477500Y-182800D01*
X477500Y-186900D01*
X475500Y-193000D01*
X471399Y-195000D01*
X695700Y-214800D02*
G01*
X693600Y-210700D01*
X689499Y-206599D01*
X685500Y-204600D01*
X677300Y-204600D01*
X673200Y-206599D01*
X669099Y-210700D01*
X666999Y-214800D01*
X665000Y-220999D01*
X665000Y-231199D01*
X666999Y-237300D01*
X669099Y-241399D01*
X673200Y-245500D01*
X677300Y-247500D01*
X685500Y-247500D01*
X689499Y-245500D01*
X693600Y-241399D01*
X695700Y-237300D01*
X711199Y-214800D02*
G01*
X711199Y-212800D01*
X713299Y-208699D01*
X715300Y-206599D01*
X719400Y-204600D01*
X727600Y-204600D01*
X731700Y-206599D01*
X733699Y-208699D01*
X735799Y-212800D01*
X735799Y-216900D01*
X733699Y-220999D01*
X729600Y-227100D01*
X709200Y-247500D01*
X737800Y-247500D01*
X763599Y-204600D02*
G01*
X757500Y-206599D01*
X753400Y-212800D01*
X751300Y-223000D01*
X751300Y-229099D01*
X753400Y-239400D01*
X757500Y-245500D01*
X763599Y-247500D01*
X767700Y-247500D01*
X773800Y-245500D01*
X777899Y-239400D01*
X780000Y-229099D01*
X780000Y-223000D01*
X777899Y-212800D01*
X773800Y-206599D01*
X767700Y-204600D01*
X763599Y-204600D01*
X1190699Y-764800D02*
G01*
X1188599Y-760700D01*
X1184499Y-756599D01*
X1180500Y-754600D01*
X1172299Y-754600D01*
X1168199Y-756599D01*
X1164099Y-760700D01*
X1161999Y-764800D01*
X1160000Y-770999D01*
X1160000Y-781199D01*
X1161999Y-787300D01*
X1164099Y-791399D01*
X1168199Y-795500D01*
X1172299Y-797500D01*
X1180500Y-797500D01*
X1184499Y-795500D01*
X1188599Y-791399D01*
X1190699Y-787300D01*
X1206199Y-764800D02*
G01*
X1206199Y-762800D01*
X1208299Y-758699D01*
X1210299Y-756599D01*
X1214399Y-754600D01*
X1222600Y-754600D01*
X1226700Y-756599D01*
X1228699Y-758699D01*
X1230799Y-762800D01*
X1230799Y-766900D01*
X1228699Y-770999D01*
X1224600Y-777100D01*
X1204200Y-797500D01*
X1232799Y-797500D01*
X1246300Y-762800D02*
G01*
X1250399Y-760700D01*
X1256499Y-754600D01*
X1256499Y-797500D01*
X1835699Y-1084800D02*
G01*
X1833599Y-1080700D01*
X1829499Y-1076599D01*
X1825500Y-1074600D01*
X1817299Y-1074600D01*
X1813199Y-1076599D01*
X1809099Y-1080700D01*
X1806999Y-1084800D01*
X1805000Y-1090999D01*
X1805000Y-1101199D01*
X1806999Y-1107300D01*
X1809099Y-1111399D01*
X1813199Y-1115500D01*
X1817299Y-1117500D01*
X1825500Y-1117500D01*
X1829499Y-1115500D01*
X1833599Y-1111399D01*
X1835699Y-1107300D01*
X1851199Y-1084800D02*
G01*
X1851199Y-1082800D01*
X1853299Y-1078699D01*
X1855299Y-1076599D01*
X1859399Y-1074600D01*
X1867600Y-1074600D01*
X1871700Y-1076599D01*
X1873699Y-1078699D01*
X1875799Y-1082800D01*
X1875799Y-1086900D01*
X1873699Y-1090999D01*
X1869600Y-1097100D01*
X1849200Y-1117500D01*
X1877799Y-1117500D01*
X1893400Y-1084800D02*
G01*
X1893400Y-1082800D01*
X1895399Y-1078699D01*
X1897500Y-1076599D01*
X1901499Y-1074600D01*
X1909700Y-1074600D01*
X1913800Y-1076599D01*
X1915900Y-1078699D01*
X1917899Y-1082800D01*
X1917899Y-1086900D01*
X1915900Y-1090999D01*
X1911800Y-1097100D01*
X1891300Y-1117500D01*
X1920000Y-1117500D01*
X1550699Y-1139800D02*
G01*
X1548599Y-1135700D01*
X1544499Y-1131599D01*
X1540500Y-1129600D01*
X1532299Y-1129600D01*
X1528199Y-1131599D01*
X1524099Y-1135700D01*
X1521999Y-1139800D01*
X1520000Y-1145999D01*
X1520000Y-1156199D01*
X1521999Y-1162300D01*
X1524099Y-1166399D01*
X1528199Y-1170500D01*
X1532299Y-1172500D01*
X1540500Y-1172500D01*
X1544499Y-1170500D01*
X1548599Y-1166399D01*
X1550699Y-1162300D01*
X1566199Y-1139800D02*
G01*
X1566199Y-1137800D01*
X1568299Y-1133699D01*
X1570299Y-1131599D01*
X1574399Y-1129600D01*
X1582600Y-1129600D01*
X1586700Y-1131599D01*
X1588699Y-1133699D01*
X1590799Y-1137800D01*
X1590799Y-1141900D01*
X1588699Y-1145999D01*
X1584600Y-1152100D01*
X1564200Y-1172500D01*
X1592799Y-1172500D01*
X1610399Y-1129600D02*
G01*
X1632899Y-1129600D01*
X1620600Y-1145999D01*
X1626800Y-1145999D01*
X1630900Y-1148000D01*
X1632899Y-1150000D01*
X1635000Y-1156199D01*
X1635000Y-1160300D01*
X1632899Y-1166399D01*
X1628800Y-1170500D01*
X1622700Y-1172500D01*
X1616499Y-1172500D01*
X1610399Y-1170500D01*
X1608400Y-1168499D01*
X1606300Y-1164400D01*
X1360699Y-279800D02*
G01*
X1358599Y-275700D01*
X1354499Y-271599D01*
X1350500Y-269600D01*
X1342299Y-269600D01*
X1338199Y-271599D01*
X1334099Y-275700D01*
X1331999Y-279800D01*
X1330000Y-285999D01*
X1330000Y-296199D01*
X1331999Y-302300D01*
X1334099Y-306399D01*
X1338199Y-310500D01*
X1342299Y-312500D01*
X1350500Y-312500D01*
X1354499Y-310500D01*
X1358599Y-306399D01*
X1360699Y-302300D01*
X1376199Y-279800D02*
G01*
X1376199Y-277800D01*
X1378299Y-273699D01*
X1380299Y-271599D01*
X1384399Y-269600D01*
X1392600Y-269600D01*
X1396700Y-271599D01*
X1398699Y-273699D01*
X1400799Y-277800D01*
X1400799Y-281900D01*
X1398699Y-285999D01*
X1394600Y-292100D01*
X1374200Y-312500D01*
X1402799Y-312500D01*
X1436800Y-269600D02*
G01*
X1416300Y-298200D01*
X1446999Y-298200D01*
X1436800Y-269600D02*
G01*
X1436800Y-312500D01*
X1445699Y-494800D02*
G01*
X1443599Y-490700D01*
X1439499Y-486599D01*
X1435500Y-484600D01*
X1427299Y-484600D01*
X1423199Y-486599D01*
X1419099Y-490700D01*
X1416999Y-494800D01*
X1415000Y-500999D01*
X1415000Y-511199D01*
X1416999Y-517300D01*
X1419099Y-521399D01*
X1423199Y-525500D01*
X1427299Y-527500D01*
X1435500Y-527500D01*
X1439499Y-525500D01*
X1443599Y-521399D01*
X1445699Y-517300D01*
X1463299Y-484600D02*
G01*
X1485799Y-484600D01*
X1473500Y-500999D01*
X1479600Y-500999D01*
X1483699Y-503000D01*
X1485799Y-505000D01*
X1487799Y-511199D01*
X1487799Y-515300D01*
X1485799Y-521399D01*
X1481700Y-525500D01*
X1475500Y-527500D01*
X1469399Y-527500D01*
X1463299Y-525500D01*
X1461199Y-523499D01*
X1459200Y-519400D01*
X1505399Y-484600D02*
G01*
X1527899Y-484600D01*
X1515600Y-500999D01*
X1521800Y-500999D01*
X1525900Y-503000D01*
X1527899Y-505000D01*
X1530000Y-511199D01*
X1530000Y-515300D01*
X1527899Y-521399D01*
X1523800Y-525500D01*
X1517700Y-527500D01*
X1511499Y-527500D01*
X1505399Y-525500D01*
X1503400Y-523499D01*
X1501300Y-519400D01*
X1030699Y-1114800D02*
G01*
X1028599Y-1110700D01*
X1024499Y-1106599D01*
X1020500Y-1104600D01*
X1012299Y-1104600D01*
X1008199Y-1106599D01*
X1004099Y-1110700D01*
X1001999Y-1114800D01*
X1000000Y-1120999D01*
X1000000Y-1131199D01*
X1001999Y-1137300D01*
X1004099Y-1141399D01*
X1008199Y-1145500D01*
X1012299Y-1147500D01*
X1020500Y-1147500D01*
X1024499Y-1145500D01*
X1028599Y-1141399D01*
X1030699Y-1137300D01*
X1046199Y-1114800D02*
G01*
X1046199Y-1112800D01*
X1048299Y-1108699D01*
X1050299Y-1106599D01*
X1054399Y-1104600D01*
X1062600Y-1104600D01*
X1066700Y-1106599D01*
X1068699Y-1108699D01*
X1070799Y-1112800D01*
X1070799Y-1116900D01*
X1068699Y-1120999D01*
X1064600Y-1127100D01*
X1044200Y-1147500D01*
X1072799Y-1147500D01*
X1110900Y-1104600D02*
G01*
X1090399Y-1104600D01*
X1088400Y-1123000D01*
X1090399Y-1120999D01*
X1096499Y-1118899D01*
X1102700Y-1118899D01*
X1108800Y-1120999D01*
X1112899Y-1125000D01*
X1115000Y-1131199D01*
X1115000Y-1135300D01*
X1112899Y-1141399D01*
X1108800Y-1145500D01*
X1102700Y-1147500D01*
X1096499Y-1147500D01*
X1090399Y-1145500D01*
X1088400Y-1143499D01*
X1086300Y-1139400D01*
X1370699Y-719800D02*
G01*
X1368599Y-715700D01*
X1364499Y-711599D01*
X1360500Y-709600D01*
X1352299Y-709600D01*
X1348199Y-711599D01*
X1344099Y-715700D01*
X1341999Y-719800D01*
X1340000Y-725999D01*
X1340000Y-736199D01*
X1341999Y-742300D01*
X1344099Y-746399D01*
X1348199Y-750500D01*
X1352299Y-752500D01*
X1360500Y-752500D01*
X1364499Y-750500D01*
X1368599Y-746399D01*
X1370699Y-742300D01*
X1386199Y-719800D02*
G01*
X1386199Y-717800D01*
X1388299Y-713699D01*
X1390299Y-711599D01*
X1394399Y-709600D01*
X1402600Y-709600D01*
X1406700Y-711599D01*
X1408699Y-713699D01*
X1410799Y-717800D01*
X1410799Y-721900D01*
X1408699Y-725999D01*
X1404600Y-732100D01*
X1384200Y-752500D01*
X1412799Y-752500D01*
X1450900Y-715700D02*
G01*
X1448800Y-711599D01*
X1442700Y-709600D01*
X1438599Y-709600D01*
X1432500Y-711599D01*
X1428400Y-717800D01*
X1426300Y-728000D01*
X1426300Y-738200D01*
X1428400Y-746399D01*
X1432500Y-750500D01*
X1438599Y-752500D01*
X1440600Y-752500D01*
X1446800Y-750500D01*
X1450900Y-746399D01*
X1452899Y-740300D01*
X1452899Y-738200D01*
X1450900Y-732100D01*
X1446800Y-728000D01*
X1440600Y-725999D01*
X1438599Y-725999D01*
X1432500Y-728000D01*
X1428400Y-732100D01*
X1426300Y-738200D01*
X815699Y-739800D02*
G01*
X813599Y-735700D01*
X809499Y-731599D01*
X805500Y-729600D01*
X797299Y-729600D01*
X793199Y-731599D01*
X789099Y-735700D01*
X786999Y-739800D01*
X785000Y-745999D01*
X785000Y-756199D01*
X786999Y-762300D01*
X789099Y-766399D01*
X793199Y-770500D01*
X797299Y-772500D01*
X805500Y-772500D01*
X809499Y-770500D01*
X813599Y-766399D01*
X815699Y-762300D01*
X831199Y-739800D02*
G01*
X831199Y-737800D01*
X833299Y-733699D01*
X835299Y-731599D01*
X839399Y-729600D01*
X847600Y-729600D01*
X851700Y-731599D01*
X853699Y-733699D01*
X855799Y-737800D01*
X855799Y-741900D01*
X853699Y-745999D01*
X849600Y-752100D01*
X829200Y-772500D01*
X857799Y-772500D01*
X900000Y-729600D02*
G01*
X879499Y-772500D01*
X871300Y-729600D02*
G01*
X900000Y-729600D01*
X1255699Y-1114800D02*
G01*
X1253599Y-1110700D01*
X1249499Y-1106599D01*
X1245500Y-1104600D01*
X1237299Y-1104600D01*
X1233199Y-1106599D01*
X1229099Y-1110700D01*
X1226999Y-1114800D01*
X1225000Y-1120999D01*
X1225000Y-1131199D01*
X1226999Y-1137300D01*
X1229099Y-1141399D01*
X1233199Y-1145500D01*
X1237299Y-1147500D01*
X1245500Y-1147500D01*
X1249499Y-1145500D01*
X1253599Y-1141399D01*
X1255699Y-1137300D01*
X1271199Y-1114800D02*
G01*
X1271199Y-1112800D01*
X1273299Y-1108699D01*
X1275299Y-1106599D01*
X1279399Y-1104600D01*
X1287600Y-1104600D01*
X1291700Y-1106599D01*
X1293699Y-1108699D01*
X1295799Y-1112800D01*
X1295799Y-1116900D01*
X1293699Y-1120999D01*
X1289600Y-1127100D01*
X1269200Y-1147500D01*
X1297799Y-1147500D01*
X1321499Y-1104600D02*
G01*
X1315399Y-1106599D01*
X1313400Y-1110700D01*
X1313400Y-1114800D01*
X1315399Y-1118899D01*
X1319499Y-1120999D01*
X1327700Y-1123000D01*
X1333800Y-1125000D01*
X1337899Y-1129099D01*
X1340000Y-1133200D01*
X1340000Y-1139400D01*
X1337899Y-1143499D01*
X1335900Y-1145500D01*
X1329700Y-1147500D01*
X1321499Y-1147500D01*
X1315399Y-1145500D01*
X1313400Y-1143499D01*
X1311300Y-1139400D01*
X1311300Y-1133200D01*
X1313400Y-1129099D01*
X1317500Y-1125000D01*
X1323599Y-1123000D01*
X1331800Y-1120999D01*
X1335900Y-1118899D01*
X1337899Y-1114800D01*
X1337899Y-1110700D01*
X1335900Y-1106599D01*
X1329700Y-1104600D01*
X1321499Y-1104600D01*
X1740699Y-634800D02*
G01*
X1738599Y-630700D01*
X1734499Y-626599D01*
X1730500Y-624600D01*
X1722299Y-624600D01*
X1718199Y-626599D01*
X1714099Y-630700D01*
X1711999Y-634800D01*
X1710000Y-640999D01*
X1710000Y-651199D01*
X1711999Y-657300D01*
X1714099Y-661399D01*
X1718199Y-665500D01*
X1722299Y-667500D01*
X1730500Y-667500D01*
X1734499Y-665500D01*
X1738599Y-661399D01*
X1740699Y-657300D01*
X1754200Y-624600D02*
G01*
X1754200Y-667500D01*
X1754200Y-624600D02*
G01*
X1782799Y-667500D01*
X1782799Y-624600D02*
G01*
X1782799Y-667500D01*
X1796300Y-632800D02*
G01*
X1800399Y-630700D01*
X1806499Y-624600D01*
X1806499Y-667500D01*
X1460000Y-824600D02*
G01*
X1460000Y-867500D01*
X1473500Y-832800D02*
G01*
X1477600Y-830700D01*
X1483699Y-824600D01*
X1483699Y-867500D01*
X550000Y-844600D02*
G01*
X550000Y-887500D01*
X565500Y-854800D02*
G01*
X565500Y-852800D01*
X567600Y-848699D01*
X569600Y-846599D01*
X573699Y-844600D01*
X581900Y-844600D01*
X585999Y-846599D01*
X588000Y-848699D01*
X590100Y-852800D01*
X590100Y-856900D01*
X588000Y-860999D01*
X584000Y-867100D01*
X563499Y-887500D01*
X592100Y-887500D01*
X1710500Y-44600D02*
G01*
X1710500Y-77300D01*
X1708400Y-83499D01*
X1706400Y-85500D01*
X1702299Y-87500D01*
X1698199Y-87500D01*
X1694099Y-85500D01*
X1691999Y-83499D01*
X1690000Y-77300D01*
X1690000Y-73200D01*
X1723999Y-52800D02*
G01*
X1728000Y-50700D01*
X1734200Y-44600D01*
X1734200Y-87500D01*
X400500Y-34600D02*
G01*
X400500Y-67300D01*
X398400Y-73499D01*
X396399Y-75500D01*
X392300Y-77500D01*
X388200Y-77500D01*
X384099Y-75500D01*
X381999Y-73499D01*
X380000Y-67300D01*
X380000Y-63200D01*
X415999Y-44800D02*
G01*
X415999Y-42800D01*
X418000Y-38699D01*
X420100Y-36599D01*
X424200Y-34600D01*
X432399Y-34600D01*
X436500Y-36599D01*
X438499Y-38699D01*
X440500Y-42800D01*
X440500Y-46900D01*
X438499Y-50999D01*
X434400Y-57100D01*
X414000Y-77500D01*
X442600Y-77500D01*
X1155500Y-44600D02*
G01*
X1155500Y-77300D01*
X1153400Y-83499D01*
X1151400Y-85500D01*
X1147299Y-87500D01*
X1143199Y-87500D01*
X1139099Y-85500D01*
X1136999Y-83499D01*
X1135000Y-77300D01*
X1135000Y-73200D01*
X1173000Y-44600D02*
G01*
X1195500Y-44600D01*
X1183299Y-60999D01*
X1189399Y-60999D01*
X1193500Y-63000D01*
X1195500Y-65000D01*
X1197600Y-71199D01*
X1197600Y-75300D01*
X1195500Y-81399D01*
X1191499Y-85500D01*
X1185299Y-87500D01*
X1179200Y-87500D01*
X1173000Y-85500D01*
X1171000Y-83499D01*
X1168999Y-79400D01*
X75500Y-979600D02*
G01*
X75500Y-1012300D01*
X73400Y-1018499D01*
X71399Y-1020500D01*
X67300Y-1022500D01*
X63200Y-1022500D01*
X59099Y-1020500D01*
X56999Y-1018499D01*
X55000Y-1012300D01*
X55000Y-1008200D01*
X109400Y-979600D02*
G01*
X89000Y-1008200D01*
X119600Y-1008200D01*
X109400Y-979600D02*
G01*
X109400Y-1022500D01*
X600000Y-584600D02*
G01*
X600000Y-627500D01*
X600000Y-627500D02*
G01*
X624499Y-627500D01*
X638000Y-584600D02*
G01*
X638000Y-627500D01*
X638000Y-584600D02*
G01*
X664600Y-584600D01*
X638000Y-605000D02*
G01*
X654400Y-605000D01*
X638000Y-627500D02*
G01*
X664600Y-627500D01*
X678099Y-584600D02*
G01*
X678099Y-627500D01*
X678099Y-584600D02*
G01*
X692500Y-584600D01*
X698600Y-586599D01*
X702699Y-590700D01*
X704699Y-594800D01*
X706799Y-600999D01*
X706799Y-611199D01*
X704699Y-617300D01*
X702699Y-621399D01*
X698600Y-625500D01*
X692500Y-627500D01*
X678099Y-627500D01*
X720300Y-592800D02*
G01*
X724400Y-590700D01*
X730500Y-584600D01*
X730500Y-627500D01*
X1345000Y-614600D02*
G01*
X1345000Y-657500D01*
X1345000Y-614600D02*
G01*
X1361400Y-657500D01*
X1377700Y-614600D02*
G01*
X1361400Y-657500D01*
X1377700Y-614600D02*
G01*
X1377700Y-657500D01*
X1421899Y-624800D02*
G01*
X1419899Y-620700D01*
X1415799Y-616599D01*
X1411700Y-614600D01*
X1403500Y-614600D01*
X1399399Y-616599D01*
X1395299Y-620700D01*
X1393299Y-624800D01*
X1391199Y-630999D01*
X1391199Y-641199D01*
X1393299Y-647300D01*
X1395299Y-651399D01*
X1399399Y-655500D01*
X1403500Y-657500D01*
X1411700Y-657500D01*
X1415799Y-655500D01*
X1419899Y-651399D01*
X1421899Y-647300D01*
X1435399Y-622800D02*
G01*
X1439499Y-620700D01*
X1445600Y-614600D01*
X1445600Y-657500D01*
X800000Y-1219600D02*
G01*
X800000Y-1262500D01*
X800000Y-1219600D02*
G01*
X818400Y-1219600D01*
X824499Y-1221599D01*
X826599Y-1223699D01*
X828599Y-1227800D01*
X828599Y-1231900D01*
X826599Y-1235999D01*
X824499Y-1238000D01*
X818400Y-1240000D01*
X800000Y-1240000D01*
X814300Y-1240000D02*
G01*
X828599Y-1262500D01*
X842100Y-1227800D02*
G01*
X846199Y-1225700D01*
X852399Y-1219600D01*
X852399Y-1262500D01*
X950000Y-1169600D02*
G01*
X950000Y-1212500D01*
X950000Y-1169600D02*
G01*
X968400Y-1169600D01*
X974499Y-1171599D01*
X976599Y-1173699D01*
X978599Y-1177800D01*
X978599Y-1181900D01*
X976599Y-1185999D01*
X974499Y-1188000D01*
X968400Y-1190000D01*
X950000Y-1190000D01*
X964300Y-1190000D02*
G01*
X978599Y-1212500D01*
X994200Y-1179800D02*
G01*
X994200Y-1177800D01*
X996199Y-1173699D01*
X998299Y-1171599D01*
X1002399Y-1169600D01*
X1010500Y-1169600D01*
X1014600Y-1171599D01*
X1016700Y-1173699D01*
X1018699Y-1177800D01*
X1018699Y-1181900D01*
X1016700Y-1185999D01*
X1012600Y-1192100D01*
X992100Y-1212500D01*
X1020799Y-1212500D01*
X1345000Y-1164600D02*
G01*
X1345000Y-1207500D01*
X1345000Y-1164600D02*
G01*
X1363400Y-1164600D01*
X1369499Y-1166599D01*
X1371599Y-1168699D01*
X1373599Y-1172800D01*
X1373599Y-1176900D01*
X1371599Y-1180999D01*
X1369499Y-1183000D01*
X1363400Y-1185000D01*
X1345000Y-1185000D01*
X1359300Y-1185000D02*
G01*
X1373599Y-1207500D01*
X1391199Y-1164600D02*
G01*
X1413699Y-1164600D01*
X1401499Y-1180999D01*
X1407600Y-1180999D01*
X1411700Y-1183000D01*
X1413699Y-1185000D01*
X1415799Y-1191199D01*
X1415799Y-1195300D01*
X1413699Y-1201399D01*
X1409600Y-1205500D01*
X1403500Y-1207500D01*
X1397399Y-1207500D01*
X1391199Y-1205500D01*
X1389200Y-1203499D01*
X1387100Y-1199400D01*
X1225000Y-1219600D02*
G01*
X1225000Y-1262500D01*
X1225000Y-1219600D02*
G01*
X1243400Y-1219600D01*
X1249499Y-1221599D01*
X1251599Y-1223699D01*
X1253599Y-1227800D01*
X1253599Y-1231900D01*
X1251599Y-1235999D01*
X1249499Y-1238000D01*
X1243400Y-1240000D01*
X1225000Y-1240000D01*
X1239300Y-1240000D02*
G01*
X1253599Y-1262500D01*
X1287600Y-1219600D02*
G01*
X1267100Y-1248200D01*
X1297799Y-1248200D01*
X1287600Y-1219600D02*
G01*
X1287600Y-1262500D01*
X510000Y-1169600D02*
G01*
X510000Y-1212500D01*
X510000Y-1169600D02*
G01*
X528400Y-1169600D01*
X534499Y-1171599D01*
X536599Y-1173699D01*
X538600Y-1177800D01*
X538600Y-1181900D01*
X536599Y-1185999D01*
X534499Y-1188000D01*
X528400Y-1190000D01*
X510000Y-1190000D01*
X524299Y-1190000D02*
G01*
X538600Y-1212500D01*
X576700Y-1169600D02*
G01*
X556199Y-1169600D01*
X554200Y-1188000D01*
X556199Y-1185999D01*
X562399Y-1183899D01*
X568499Y-1183899D01*
X574600Y-1185999D01*
X578699Y-1190000D01*
X580799Y-1196199D01*
X580799Y-1200300D01*
X578699Y-1206399D01*
X574600Y-1210500D01*
X568499Y-1212500D01*
X562399Y-1212500D01*
X556199Y-1210500D01*
X554200Y-1208499D01*
X552100Y-1204400D01*
X370000Y-1219600D02*
G01*
X370000Y-1262500D01*
X370000Y-1219600D02*
G01*
X388400Y-1219600D01*
X394499Y-1221599D01*
X396599Y-1223699D01*
X398600Y-1227800D01*
X398600Y-1231900D01*
X396599Y-1235999D01*
X394499Y-1238000D01*
X388400Y-1240000D01*
X370000Y-1240000D01*
X384299Y-1240000D02*
G01*
X398600Y-1262500D01*
X436700Y-1225700D02*
G01*
X434600Y-1221599D01*
X428499Y-1219600D01*
X424400Y-1219600D01*
X418299Y-1221599D01*
X414200Y-1227800D01*
X412100Y-1238000D01*
X412100Y-1248200D01*
X414200Y-1256399D01*
X418299Y-1260500D01*
X424400Y-1262500D01*
X426500Y-1262500D01*
X432600Y-1260500D01*
X436700Y-1256399D01*
X438699Y-1250300D01*
X438699Y-1248200D01*
X436700Y-1242100D01*
X432600Y-1238000D01*
X426500Y-1235999D01*
X424400Y-1235999D01*
X418299Y-1238000D01*
X414200Y-1242100D01*
X412100Y-1248200D01*
X470000Y-594600D02*
G01*
X470000Y-637500D01*
X470000Y-594600D02*
G01*
X488400Y-594600D01*
X494499Y-596599D01*
X496599Y-598699D01*
X498600Y-602800D01*
X498600Y-606900D01*
X496599Y-610999D01*
X494499Y-613000D01*
X488400Y-615000D01*
X470000Y-615000D01*
X484299Y-615000D02*
G01*
X498600Y-637500D01*
X540799Y-594600D02*
G01*
X520300Y-637500D01*
X512100Y-594600D02*
G01*
X540799Y-594600D01*
X280000Y-314600D02*
G01*
X280000Y-345300D01*
X281999Y-351399D01*
X286100Y-355500D01*
X292300Y-357500D01*
X296399Y-357500D01*
X302500Y-355500D01*
X306599Y-351399D01*
X308600Y-345300D01*
X308600Y-314600D01*
X324200Y-324800D02*
G01*
X324200Y-322800D01*
X326199Y-318699D01*
X328299Y-316599D01*
X332399Y-314600D01*
X340500Y-314600D01*
X344600Y-316599D01*
X346700Y-318699D01*
X348699Y-322800D01*
X348699Y-326900D01*
X346700Y-330999D01*
X342600Y-337100D01*
X322100Y-357500D01*
X350799Y-357500D01*
X560000Y-394600D02*
G01*
X576399Y-437500D01*
X592699Y-394600D02*
G01*
X576399Y-437500D01*
X606199Y-394600D02*
G01*
X606199Y-437500D01*
X606199Y-394600D02*
G01*
X624600Y-394600D01*
X630799Y-396599D01*
X632800Y-398699D01*
X634899Y-402800D01*
X634899Y-406900D01*
X632800Y-410999D01*
X630799Y-413000D01*
X624600Y-415000D01*
X606199Y-415000D01*
X620500Y-415000D02*
G01*
X634899Y-437500D01*
X648400Y-402800D02*
G01*
X652500Y-400700D01*
X658600Y-394600D01*
X658600Y-437500D01*
X1655000Y-1064600D02*
G01*
X1671400Y-1107500D01*
X1687700Y-1064600D02*
G01*
X1671400Y-1107500D01*
X1701199Y-1064600D02*
G01*
X1701199Y-1107500D01*
X1701199Y-1064600D02*
G01*
X1719600Y-1064600D01*
X1725799Y-1066599D01*
X1727799Y-1068699D01*
X1729899Y-1072800D01*
X1729899Y-1076900D01*
X1727799Y-1080999D01*
X1725799Y-1083000D01*
X1719600Y-1085000D01*
X1701199Y-1085000D01*
X1715500Y-1085000D02*
G01*
X1729899Y-1107500D01*
X1745399Y-1074800D02*
G01*
X1745399Y-1072800D01*
X1747500Y-1068699D01*
X1749499Y-1066599D01*
X1753599Y-1064600D01*
X1761800Y-1064600D01*
X1765900Y-1066599D01*
X1767899Y-1068699D01*
X1770000Y-1072800D01*
X1770000Y-1076900D01*
X1767899Y-1080999D01*
X1763800Y-1087100D01*
X1743400Y-1107500D01*
X1771999Y-1107500D01*
X145000Y-634600D02*
G01*
X145000Y-665300D01*
X146999Y-671399D01*
X151100Y-675500D01*
X157300Y-677500D01*
X161399Y-677500D01*
X167500Y-675500D01*
X171599Y-671399D01*
X173600Y-665300D01*
X173600Y-634600D01*
X187100Y-642800D02*
G01*
X191199Y-640700D01*
X197399Y-634600D01*
X197399Y-677500D01*
D12*
X1109724Y-714261D02*
G01*
X1109724Y-745758D01*
X1066033Y-702062D02*
G01*
X1097529Y-702062D01*
X1066033Y-757953D02*
G01*
X1097529Y-757953D01*
X1043361Y-701833D02*
G01*
X1011864Y-701833D01*
X999666Y-714031D02*
G01*
X999666Y-745525D01*
X1043361Y-757723D02*
G01*
X1011864Y-757723D01*
X1220275Y-175738D02*
G01*
X1220275Y-144241D01*
X1263966Y-187937D02*
G01*
X1232470Y-187937D01*
X1263966Y-132046D02*
G01*
X1232470Y-132046D01*
X1286638Y-188166D02*
G01*
X1318135Y-188166D01*
X1330333Y-175969D02*
G01*
X1330333Y-144474D01*
X1286638Y-132276D02*
G01*
X1318135Y-132276D01*
D13*
X913180Y-1314018D02*
G01*
X913180Y-1307127D01*
X924989Y-1307127D01*
X1035219Y-1314018D02*
G01*
X1035219Y-1307127D01*
X1023410Y-1307127D01*
X1460218Y-1314023D02*
G01*
X1460218Y-1307134D01*
X1448409Y-1307134D01*
X1338179Y-1314023D02*
G01*
X1338179Y-1307134D01*
X1349988Y-1307134D01*
X605221Y-1314023D02*
G01*
X605221Y-1307134D01*
X593411Y-1307134D01*
X483182Y-1314023D02*
G01*
X483182Y-1307134D01*
X494992Y-1307134D01*
D12*
X454261Y-280275D02*
G01*
X485758Y-280275D01*
X442062Y-323966D02*
G01*
X442062Y-292471D01*
X497953Y-323966D02*
G01*
X497953Y-292471D01*
X441833Y-346639D02*
G01*
X441833Y-378135D01*
X454030Y-390333D02*
G01*
X485525Y-390333D01*
X497723Y-346639D02*
G01*
X497723Y-378135D01*
X724261Y-260275D02*
G01*
X755758Y-260275D01*
X712062Y-303966D02*
G01*
X712062Y-272471D01*
X767953Y-303966D02*
G01*
X767953Y-272471D01*
X711833Y-326639D02*
G01*
X711833Y-358135D01*
X724031Y-370333D02*
G01*
X755525Y-370333D01*
X767722Y-326639D02*
G01*
X767722Y-358135D01*
X1155275Y-730738D02*
G01*
X1155275Y-699241D01*
X1198966Y-742937D02*
G01*
X1167470Y-742937D01*
X1198966Y-687046D02*
G01*
X1167470Y-687046D01*
X1221638Y-743166D02*
G01*
X1253135Y-743166D01*
X1265333Y-730969D02*
G01*
X1265333Y-699474D01*
X1221638Y-687276D02*
G01*
X1253135Y-687276D01*
X1860739Y-1239724D02*
G01*
X1829242Y-1239724D01*
X1872938Y-1196033D02*
G01*
X1872938Y-1227528D01*
X1817046Y-1196033D02*
G01*
X1817046Y-1227528D01*
X1873167Y-1173360D02*
G01*
X1873167Y-1141864D01*
X1860968Y-1129666D02*
G01*
X1829474Y-1129666D01*
X1817277Y-1173360D02*
G01*
X1817277Y-1141864D01*
X1594260Y-1185275D02*
G01*
X1625757Y-1185275D01*
X1582061Y-1228966D02*
G01*
X1582061Y-1197471D01*
X1637953Y-1228966D02*
G01*
X1637953Y-1197471D01*
X1581832Y-1251639D02*
G01*
X1581832Y-1283135D01*
X1594031Y-1295333D02*
G01*
X1625525Y-1295333D01*
X1637722Y-1251639D02*
G01*
X1637722Y-1283135D01*
X1220275Y-245738D02*
G01*
X1220275Y-214241D01*
X1263966Y-257937D02*
G01*
X1232470Y-257937D01*
X1263966Y-202046D02*
G01*
X1232470Y-202046D01*
X1286638Y-258166D02*
G01*
X1318135Y-258166D01*
X1330333Y-245969D02*
G01*
X1330333Y-214474D01*
X1286638Y-202276D02*
G01*
X1318135Y-202276D01*
X1455739Y-474724D02*
G01*
X1424242Y-474724D01*
X1467938Y-431033D02*
G01*
X1467938Y-462528D01*
X1412046Y-431033D02*
G01*
X1412046Y-462528D01*
X1468167Y-408360D02*
G01*
X1468167Y-376864D01*
X1455968Y-364666D02*
G01*
X1424474Y-364666D01*
X1412277Y-408360D02*
G01*
X1412277Y-376864D01*
D14*
X1860000Y-505000D02*
G01*
X1770000Y-505000D01*
X1770000Y-455000D01*
X1860000Y-455000D01*
D15*
X1827520Y-608346D02*
G01*
X1692479Y-608346D01*
X1827520Y-351653D02*
G01*
X1692479Y-351653D01*
D12*
X1053000Y-904499D02*
G01*
X1053000Y-995500D01*
X1446999Y-995500D02*
G01*
X1446999Y-962500D01*
X1446999Y-938499D01*
X1446999Y-904499D01*
X603000Y-904499D02*
G01*
X603000Y-995500D01*
X996999Y-995500D02*
G01*
X996999Y-962500D01*
X996999Y-938499D01*
X996999Y-904499D01*
D16*
X1664759Y-214169D02*
G01*
X1664759Y-252359D01*
X1386419Y-252359D01*
X1386419Y-47640D01*
X1664759Y-47640D01*
X1664759Y-127559D01*
X354760Y-204169D02*
G01*
X354760Y-242359D01*
X76419Y-242359D01*
X76419Y-37640D01*
X354760Y-37640D01*
X354760Y-117559D01*
X1114759Y-214169D02*
G01*
X1114759Y-252359D01*
X836419Y-252359D01*
X836419Y-47640D01*
X1114759Y-47640D01*
X1114759Y-127559D01*
X224169Y-1040239D02*
G01*
X262359Y-1040239D01*
X262359Y-1318580D01*
X57640Y-1318580D01*
X57640Y-1040239D01*
X137559Y-1040239D01*
D14*
X673677Y-682737D02*
G01*
X673285Y-682737D01*
X660291Y-669742D01*
X673677Y-655963D02*
G01*
X673677Y-656356D01*
X660291Y-669742D01*
X673677Y-655963D02*
G01*
X673677Y-682737D01*
X674466Y-640212D02*
G01*
X719742Y-640212D01*
X674466Y-699272D02*
G01*
X719742Y-699272D01*
X719742Y-640216D02*
G01*
X719742Y-698481D01*
X659506Y-699364D02*
G01*
X618162Y-699364D01*
X606354Y-683613D02*
G01*
X606354Y-687550D01*
X618162Y-699364D01*
X606354Y-656055D02*
G01*
X606354Y-683613D01*
X606354Y-656055D02*
G01*
X606354Y-652112D01*
X618162Y-640304D01*
X659506Y-640304D02*
G01*
X618162Y-640304D01*
X673677Y-669742D02*
G01*
X660291Y-669742D01*
D11*
X1054205Y-343445D02*
G01*
X1054205Y-329205D01*
X1068445Y-329205D01*
X1335794Y-343445D02*
G01*
X1335794Y-329205D01*
X1321554Y-329205D01*
X1054205Y-596554D02*
G01*
X1054205Y-610794D01*
X1068445Y-610794D01*
X1335794Y-596554D02*
G01*
X1335794Y-610794D01*
X1321554Y-610794D01*
X1070141Y-594857D02*
G01*
X1070141Y-345142D01*
X1319858Y-345142D01*
X1319858Y-594857D01*
X1070141Y-594857D01*
X818991Y-1341779D02*
G01*
X818991Y-1379531D01*
X871008Y-1379531D01*
X871008Y-1341779D01*
X818991Y-1308220D02*
G01*
X818991Y-1270468D01*
X871008Y-1270468D01*
X871008Y-1308220D01*
X978220Y-1218991D02*
G01*
X940469Y-1218991D01*
X940469Y-1271008D01*
X978220Y-1271008D01*
X1011779Y-1218991D02*
G01*
X1049530Y-1218991D01*
X1049530Y-1271008D01*
X1011779Y-1271008D01*
X1403220Y-1218991D02*
G01*
X1365469Y-1218991D01*
X1365469Y-1271008D01*
X1403220Y-1271008D01*
X1436779Y-1218991D02*
G01*
X1474530Y-1218991D01*
X1474530Y-1271008D01*
X1436779Y-1271008D01*
X1243991Y-1341779D02*
G01*
X1243991Y-1379531D01*
X1296008Y-1379531D01*
X1296008Y-1341779D01*
X1243991Y-1308220D02*
G01*
X1243991Y-1270468D01*
X1296008Y-1270468D01*
X1296008Y-1308220D01*
X548220Y-1218991D02*
G01*
X510468Y-1218991D01*
X510468Y-1271008D01*
X548220Y-1271008D01*
X581779Y-1218991D02*
G01*
X619531Y-1218991D01*
X619531Y-1271008D01*
X581779Y-1271008D01*
X388991Y-1341779D02*
G01*
X388991Y-1379531D01*
X441008Y-1379531D01*
X441008Y-1341779D01*
X388991Y-1308220D02*
G01*
X388991Y-1270468D01*
X441008Y-1270468D01*
X441008Y-1308220D01*
X536779Y-696008D02*
G01*
X574531Y-696008D01*
X574531Y-643991D01*
X536779Y-643991D01*
X503220Y-696008D02*
G01*
X465468Y-696008D01*
X465468Y-643991D01*
X503220Y-643991D01*
D16*
X278189Y-481500D02*
G01*
X278189Y-418499D01*
X401810Y-481500D02*
G01*
X401810Y-418499D01*
D17*
X577995Y-266725D02*
G01*
X577995Y-265999D01*
X577995Y-384000D02*
G01*
X577995Y-383274D01*
X641995Y-383274D02*
G01*
X641995Y-384000D01*
X641995Y-308470D02*
G01*
X641995Y-341529D01*
X641995Y-265999D02*
G01*
X641995Y-266725D01*
X641995Y-384000D02*
G01*
X577995Y-384000D01*
X577995Y-265999D02*
G01*
X641995Y-265999D01*
X1752004Y-1233274D02*
G01*
X1752004Y-1234000D01*
X1752004Y-1115999D02*
G01*
X1752004Y-1116725D01*
X1688005Y-1116725D02*
G01*
X1688005Y-1115999D01*
X1688005Y-1191529D02*
G01*
X1688005Y-1158470D01*
X1688005Y-1234000D02*
G01*
X1688005Y-1233274D01*
X1688005Y-1115999D02*
G01*
X1752004Y-1115999D01*
X1752004Y-1234000D02*
G01*
X1688005Y-1234000D01*
D16*
X2910Y-310390D02*
G01*
X2910Y-609609D01*
X119059Y-310390D02*
G01*
X103310Y-310390D01*
X103310Y-609609D02*
G01*
X119059Y-609609D01*
X16689Y-310390D02*
G01*
X4879Y-310390D01*
X16689Y-609609D02*
G01*
X4879Y-609609D01*
D12*
G75*
G01*
X999665Y-714031D02*
G02*
X1011863Y-701833I12198J0D01*
G75*
G01*
X1011863Y-757725D02*
G02*
X999665Y-745526I0J12198D01*
G75*
G01*
X1097527Y-702062D02*
G02*
X1109725Y-714261I0J-12198D01*
G75*
G01*
X1109725Y-745756D02*
G02*
X1097527Y-757954I-12198J0D01*
G75*
G01*
X1330335Y-175969D02*
G02*
X1318137Y-188167I-12198J0D01*
G75*
G01*
X1318137Y-132275D02*
G02*
X1330335Y-144474I0J-12198D01*
G75*
G01*
X1232473Y-187938D02*
G02*
X1220275Y-175739I0J12198D01*
G75*
G01*
X1220275Y-144244D02*
G02*
X1232473Y-132046I12198J0D01*
D13*
G75*
G01*
X887590Y-1333698D02*
G03*
X887580Y-1333918I-4919J113D01*
G75*
G01*
X1312589Y-1333704D02*
G03*
X1312579Y-1333924I-4919J113D01*
G75*
G01*
X457592Y-1333704D02*
G03*
X457582Y-1333924I-4919J113D01*
D12*
G75*
G01*
X454031Y-390335D02*
G02*
X441833Y-378137I0J12198D01*
G75*
G01*
X497725Y-378137D02*
G02*
X485526Y-390335I-12198J0D01*
G75*
G01*
X442062Y-292473D02*
G02*
X454261Y-280275I12198J0D01*
G75*
G01*
X485756Y-280275D02*
G02*
X497954Y-292473I0J-12198D01*
G75*
G01*
X724031Y-370335D02*
G02*
X711833Y-358137I0J12198D01*
G75*
G01*
X767725Y-358137D02*
G02*
X755526Y-370335I-12198J0D01*
G75*
G01*
X712062Y-272473D02*
G02*
X724261Y-260275I12198J0D01*
G75*
G01*
X755756Y-260275D02*
G02*
X767954Y-272473I0J-12198D01*
G75*
G01*
X1265335Y-730969D02*
G02*
X1253137Y-743167I-12198J0D01*
G75*
G01*
X1253137Y-687275D02*
G02*
X1265335Y-699474I0J-12198D01*
G75*
G01*
X1167473Y-742938D02*
G02*
X1155275Y-730739I0J12198D01*
G75*
G01*
X1155275Y-699244D02*
G02*
X1167473Y-687046I12198J0D01*
G75*
G01*
X1860969Y-1129665D02*
G02*
X1873167Y-1141863I0J-12198D01*
G75*
G01*
X1817275Y-1141863D02*
G02*
X1829474Y-1129665I12198J0D01*
G75*
G01*
X1872938Y-1227527D02*
G02*
X1860739Y-1239725I-12198J0D01*
G75*
G01*
X1829244Y-1239725D02*
G02*
X1817046Y-1227527I0J12198D01*
G75*
G01*
X1594031Y-1295335D02*
G02*
X1581833Y-1283137I0J12198D01*
G75*
G01*
X1637725Y-1283137D02*
G02*
X1625526Y-1295335I-12198J0D01*
G75*
G01*
X1582062Y-1197473D02*
G02*
X1594261Y-1185275I12198J0D01*
G75*
G01*
X1625756Y-1185275D02*
G02*
X1637954Y-1197473I0J-12198D01*
G75*
G01*
X1330335Y-245969D02*
G02*
X1318137Y-258167I-12198J0D01*
G75*
G01*
X1318137Y-202275D02*
G02*
X1330335Y-214474I0J-12198D01*
G75*
G01*
X1232473Y-257938D02*
G02*
X1220275Y-245739I0J12198D01*
G75*
G01*
X1220275Y-214244D02*
G02*
X1232473Y-202046I12198J0D01*
G75*
G01*
X1455969Y-364665D02*
G02*
X1468167Y-376863I0J-12198D01*
G75*
G01*
X1412275Y-376863D02*
G02*
X1424474Y-364665I12198J0D01*
G75*
G01*
X1467938Y-462527D02*
G02*
X1455739Y-474725I-12198J0D01*
G75*
G01*
X1424244Y-474725D02*
G02*
X1412046Y-462527I0J12198D01*
D15*
G75*
G01*
X1840118Y-625276D02*
G03*
X1840293Y-625279I20J-3937D01*
D12*
G75*
G01*
X1446999Y-962500D02*
G02*
X1446999Y-938500I0J12000D01*
G75*
G01*
X996999Y-962500D02*
G02*
X996999Y-938500I0J12000D01*
D18*
G75*
G01*
X1603940Y-20950D02*
G03*
X1603930Y-21120I-3937J146D01*
G75*
G01*
X293940Y-10950D02*
G03*
X293930Y-11120I-3937J146D01*
G75*
G01*
X1053940Y-20950D02*
G03*
X1053930Y-21120I-3937J146D01*
G75*
G01*
X30950Y-1101060D02*
G03*
X31120Y-1101070I-146J-3937D01*
G75*
G01*
X302600Y-542520D02*
G03*
X302770Y-542520I85J-3939D01*
G75*
G01*
X197790Y-385200D02*
G03*
X197620Y-385190I146J3937D01*
D15*
G75*
G01
X1088700Y-681980D02*
G03X1088700Y-681980I-3940J0D01*
D19*
G75*
G01
X1095740Y-575180D02*
G03X1095740Y-575180I-5910J0D01*
D15*
G75*
G01
X569930Y-260000D02*
G03X569930Y-260000I-3940J0D01*
G75*
G01
X1767950Y-1240000D02*
G03X1767950Y-1240000I-3940J0D01*
M02*
