G04 Layer: TopLayer*
G04 EasyEDA v6.5.22, 2022-12-05 22:01:04*
G04 d1a99e3ffb4d45b387634f4a3d5e2a22,8bbad783b4b447a482771b0ae512d992,10*
G04 Gerber Generator version 0.2*
G04 Scale: 100 percent, Rotated: No, Reflected: No *
G04 Dimensions in inches *
G04 leading zeros omitted , absolute positions ,3 integer and 6 decimal *
%FSLAX36Y36*%
%MOIN*%

%AMMACRO1*4,1,4,-0.0049,0.0118,0.0049,0.0118,0.0049,-0.0118,-0.0049,-0.0118,-0.0049,0.0118,0*%
%AMMACRO2*21,1,$1,$2,0,0,$3*%
%AMMACRO3*4,1,4,0.0266,0.0079,0.0266,-0.0079,-0.0266,-0.0079,-0.0266,0.0079,0.0266,0.0079,0*%
%ADD10C,0.0220*%
%ADD11C,0.0120*%
%ADD12C,0.0120*%
%ADD13C,0.0190*%
%ADD14C,0.0240*%
%ADD15C,0.0102*%
%ADD16R,0.1181X0.1181*%
%ADD17R,0.0315X0.0354*%
%ADD18R,0.0236X0.0098*%
%ADD19R,0.1378X0.0197*%
%ADD20R,0.0659X0.0197*%
%ADD21R,0.1378X0.0551*%
%ADD22MACRO1*%
%ADD23R,0.0354X0.0315*%
%ADD24R,0.0374X0.0413*%
%ADD25R,0.1181X0.0354*%
%ADD26R,0.0240X0.0810*%
%ADD27R,0.0315X0.0315*%
%ADD28O,0.017638X0.066299*%
%ADD29O,0.066299X0.017638*%
%ADD30MACRO2,0.034X0.0318X0.0000*%
%ADD31R,0.0340X0.0318*%
%ADD32MACRO2,0.034X0.0318X-90.0000*%
%ADD33MACRO2,0.034X0.0318X90.0000*%
%ADD34R,0.0394X0.0276*%
%ADD35MACRO3*%
%ADD36R,0.0551X0.0630*%
%ADD37R,0.0748X0.0748*%
%ADD38R,0.0535X0.0535*%
%ADD39C,0.0535*%
%ADD40O,0.06299199999999999X0.035433*%
%ADD41C,0.0177*%
%ADD42C,0.0240*%
%ADD43C,0.0109*%

%LPD*%
G36*
X1229940Y-251000D02*
G01*
X1228420Y-250700D01*
X1227140Y-249840D01*
X1226260Y-248580D01*
X1225940Y-247060D01*
X1224060Y-119060D01*
X1224340Y-117520D01*
X1225220Y-116199D01*
X1226520Y-115320D01*
X1228060Y-115000D01*
X1266000Y-115000D01*
X1267540Y-115300D01*
X1268820Y-116180D01*
X1269700Y-117460D01*
X1270000Y-119000D01*
X1270000Y-247000D01*
X1269700Y-248540D01*
X1268820Y-249820D01*
X1267540Y-250700D01*
X1266000Y-251000D01*
G37*

%LPD*%
G36*
X1292160Y-341000D02*
G01*
X1290580Y-340680D01*
X1289259Y-339739D01*
X1288400Y-338380D01*
X1288160Y-336780D01*
X1288580Y-335220D01*
X1289480Y-333420D01*
X1290320Y-330420D01*
X1290620Y-327140D01*
X1290620Y-278840D01*
X1290320Y-275560D01*
X1289480Y-272560D01*
X1288080Y-269780D01*
X1286800Y-268080D01*
X1286200Y-266940D01*
X1286000Y-265680D01*
X1286000Y-115000D01*
X1286300Y-113460D01*
X1287180Y-112180D01*
X1288460Y-111300D01*
X1290000Y-111000D01*
X1314340Y-111000D01*
X1315880Y-111300D01*
X1317180Y-112180D01*
X1318820Y-113820D01*
X1319700Y-115120D01*
X1320000Y-116660D01*
X1320000Y-337000D01*
X1319700Y-338540D01*
X1318820Y-339820D01*
X1317540Y-340700D01*
X1316000Y-341000D01*
G37*

%LPD*%
G36*
X719000Y-370000D02*
G01*
X717460Y-369700D01*
X716180Y-368820D01*
X715300Y-367540D01*
X715000Y-366000D01*
X715000Y-324000D01*
X715300Y-322460D01*
X716180Y-321180D01*
X717460Y-320300D01*
X719000Y-320000D01*
X787000Y-320000D01*
X788540Y-320300D01*
X789820Y-321180D01*
X790699Y-322460D01*
X791000Y-324000D01*
X791000Y-366000D01*
X790699Y-367540D01*
X789820Y-368820D01*
X788540Y-369700D01*
X787000Y-370000D01*
G37*

%LPD*%
G36*
X552080Y-382000D02*
G01*
X550540Y-381700D01*
X549240Y-380820D01*
X548380Y-379540D01*
X548080Y-378000D01*
X548080Y-357320D01*
X548380Y-355760D01*
X549280Y-354460D01*
X550600Y-353600D01*
X552160Y-353320D01*
X589700Y-354060D01*
X590880Y-354000D01*
X592860Y-353519D01*
X594560Y-352620D01*
X596020Y-351340D01*
X597120Y-349739D01*
X597800Y-347920D01*
X598080Y-345760D01*
X598080Y-310120D01*
X598020Y-309140D01*
X597520Y-307140D01*
X596620Y-305440D01*
X595340Y-303980D01*
X593740Y-302880D01*
X591920Y-302200D01*
X589760Y-301940D01*
X536240Y-301940D01*
X534080Y-302200D01*
X532260Y-302880D01*
X530660Y-303980D01*
X529380Y-305440D01*
X528480Y-307140D01*
X528060Y-308880D01*
X527260Y-310460D01*
X525880Y-311540D01*
X524159Y-311940D01*
X444000Y-311940D01*
X442460Y-311620D01*
X441180Y-310760D01*
X440300Y-309460D01*
X440000Y-307940D01*
X440000Y-254000D01*
X440300Y-252460D01*
X441180Y-251180D01*
X442460Y-250300D01*
X444000Y-250000D01*
X635000Y-250000D01*
X636540Y-250300D01*
X637820Y-251180D01*
X638700Y-252460D01*
X639000Y-254000D01*
X639000Y-262040D01*
X638660Y-263640D01*
X637700Y-264980D01*
X636280Y-265820D01*
X634040Y-266580D01*
X632540Y-267520D01*
X631260Y-268800D01*
X630300Y-270320D01*
X629720Y-272020D01*
X629480Y-274040D01*
X629480Y-301160D01*
X629720Y-303160D01*
X630300Y-304860D01*
X631260Y-306400D01*
X632540Y-307660D01*
X634040Y-308620D01*
X636280Y-309380D01*
X637700Y-310200D01*
X638660Y-311540D01*
X639000Y-313160D01*
X639000Y-336840D01*
X638660Y-338459D01*
X637700Y-339799D01*
X636280Y-340620D01*
X634040Y-341380D01*
X632540Y-342340D01*
X631260Y-343600D01*
X630300Y-345140D01*
X629720Y-346840D01*
X629480Y-348840D01*
X629480Y-375959D01*
X629660Y-377560D01*
X629500Y-379219D01*
X628680Y-380660D01*
X627320Y-381659D01*
X625680Y-382000D01*
G37*

%LPD*%
G36*
X444000Y-390000D02*
G01*
X442460Y-389700D01*
X441180Y-388820D01*
X440300Y-387540D01*
X440000Y-386000D01*
X440000Y-331880D01*
X440300Y-330340D01*
X441180Y-329040D01*
X442460Y-328180D01*
X444000Y-327879D01*
X445540Y-328180D01*
X447260Y-329480D01*
X448800Y-330439D01*
X450500Y-331040D01*
X452500Y-331260D01*
X487500Y-331260D01*
X489500Y-331040D01*
X491200Y-330439D01*
X492740Y-329480D01*
X494000Y-328200D01*
X494960Y-326680D01*
X495560Y-324980D01*
X495720Y-323560D01*
X496140Y-322160D01*
X497040Y-321019D01*
X498260Y-320260D01*
X499700Y-320000D01*
X535600Y-320000D01*
X536000Y-319600D01*
X536000Y-314000D01*
X536300Y-312460D01*
X537180Y-311180D01*
X538460Y-310300D01*
X540000Y-310000D01*
X586000Y-310000D01*
X587540Y-310300D01*
X588820Y-311180D01*
X589700Y-312460D01*
X590000Y-314000D01*
X590000Y-337160D01*
X589720Y-338660D01*
X588900Y-339920D01*
X587660Y-340800D01*
X586180Y-341160D01*
X584220Y-340780D01*
X582220Y-340560D01*
X543300Y-340560D01*
X541280Y-340780D01*
X539580Y-341380D01*
X538060Y-342340D01*
X536780Y-343600D01*
X535820Y-345140D01*
X535220Y-346840D01*
X535000Y-348840D01*
X535000Y-375959D01*
X535220Y-377980D01*
X535820Y-379680D01*
X536780Y-381200D01*
X538560Y-382920D01*
X539560Y-384180D01*
X540000Y-385760D01*
X539760Y-387360D01*
X538920Y-388740D01*
X537580Y-389680D01*
X536000Y-390000D01*
G37*

%LPD*%
G36*
X1411040Y-411000D02*
G01*
X1409500Y-410700D01*
X1408200Y-409820D01*
X1405440Y-407060D01*
X1403740Y-405880D01*
X1401920Y-405200D01*
X1399760Y-404940D01*
X1328000Y-404940D01*
X1326459Y-404620D01*
X1325180Y-403760D01*
X1324300Y-402460D01*
X1324000Y-400940D01*
X1324000Y-385080D01*
X1324300Y-383540D01*
X1325180Y-382239D01*
X1326459Y-381380D01*
X1328000Y-381079D01*
X1397880Y-381079D01*
X1398860Y-381019D01*
X1400860Y-380520D01*
X1402560Y-379620D01*
X1404019Y-378340D01*
X1405120Y-376719D01*
X1406020Y-375800D01*
X1407160Y-375200D01*
X1408420Y-375000D01*
X1480000Y-375000D01*
X1481540Y-375300D01*
X1482820Y-376180D01*
X1483700Y-377460D01*
X1484000Y-379000D01*
X1484000Y-405340D01*
X1483700Y-406880D01*
X1482820Y-408180D01*
X1481180Y-409820D01*
X1479880Y-410700D01*
X1478340Y-411000D01*
G37*

%LPD*%
G36*
X1404000Y-475000D02*
G01*
X1402460Y-474700D01*
X1401180Y-473820D01*
X1400300Y-472540D01*
X1400000Y-471000D01*
X1400000Y-465240D01*
X1400160Y-464140D01*
X1400600Y-463140D01*
X1401440Y-461780D01*
X1402560Y-458860D01*
X1403140Y-455800D01*
X1403140Y-452700D01*
X1402560Y-449640D01*
X1401440Y-446740D01*
X1400600Y-445379D01*
X1400160Y-444360D01*
X1400000Y-443260D01*
X1399940Y-441100D01*
X1399259Y-441240D01*
X1397560Y-441220D01*
X1396020Y-440520D01*
X1395220Y-439900D01*
X1392440Y-438519D01*
X1389440Y-437660D01*
X1386160Y-437360D01*
X1337860Y-437360D01*
X1334580Y-437660D01*
X1331579Y-438519D01*
X1328820Y-439900D01*
X1325880Y-442160D01*
X1324720Y-442780D01*
X1323440Y-443000D01*
X1298000Y-443000D01*
X1296459Y-442700D01*
X1295180Y-441820D01*
X1294300Y-440540D01*
X1294000Y-439000D01*
X1294000Y-353000D01*
X1294300Y-351460D01*
X1295180Y-350180D01*
X1296459Y-349300D01*
X1298000Y-349000D01*
X1394000Y-349000D01*
X1395540Y-349300D01*
X1396819Y-350180D01*
X1397700Y-351460D01*
X1398000Y-353000D01*
X1398000Y-369000D01*
X1397700Y-370540D01*
X1396819Y-371820D01*
X1395540Y-372700D01*
X1394000Y-373000D01*
X1316399Y-373000D01*
X1315720Y-373280D01*
X1314079Y-375040D01*
X1314000Y-375400D01*
X1314000Y-414600D01*
X1314280Y-414720D01*
X1314820Y-414180D01*
X1316120Y-413300D01*
X1317660Y-413000D01*
X1398000Y-413000D01*
X1399540Y-413300D01*
X1400820Y-414180D01*
X1401699Y-415460D01*
X1402000Y-417000D01*
X1402000Y-428600D01*
X1402400Y-429000D01*
X1470000Y-429000D01*
X1471540Y-429300D01*
X1472820Y-430180D01*
X1473700Y-431460D01*
X1474000Y-433000D01*
X1474000Y-471000D01*
X1473700Y-472540D01*
X1472820Y-473820D01*
X1471540Y-474700D01*
X1470000Y-475000D01*
G37*

%LPD*%
G36*
X134000Y-535000D02*
G01*
X132460Y-534700D01*
X131180Y-533820D01*
X130300Y-532540D01*
X130000Y-531000D01*
X130000Y-506760D01*
X130280Y-505260D01*
X131100Y-503980D01*
X132340Y-503100D01*
X133820Y-502760D01*
X135320Y-502980D01*
X136480Y-503380D01*
X138960Y-503660D01*
X191660Y-503660D01*
X194160Y-503380D01*
X196300Y-502620D01*
X199780Y-500300D01*
X201300Y-500000D01*
X211000Y-500000D01*
X212540Y-500300D01*
X213820Y-501180D01*
X214700Y-502460D01*
X215000Y-504000D01*
X215000Y-531000D01*
X214700Y-532540D01*
X213820Y-533820D01*
X212540Y-534700D01*
X211000Y-535000D01*
G37*

%LPD*%
G36*
X329000Y-545000D02*
G01*
X327460Y-544700D01*
X326180Y-543820D01*
X325300Y-542540D01*
X325000Y-541000D01*
X325000Y-478420D01*
X325300Y-476880D01*
X326180Y-475580D01*
X327460Y-474720D01*
X329000Y-474420D01*
X351000Y-474420D01*
X352540Y-474720D01*
X353820Y-475580D01*
X354700Y-476880D01*
X355000Y-478420D01*
X355000Y-541000D01*
X354700Y-542540D01*
X353820Y-543820D01*
X352540Y-544700D01*
X351000Y-545000D01*
G37*

%LPD*%
G36*
X1757800Y-555660D02*
G01*
X1756260Y-555340D01*
X1754980Y-554480D01*
X1754100Y-553180D01*
X1753800Y-551660D01*
X1753800Y-355620D01*
X1754100Y-354099D01*
X1754960Y-352800D01*
X1756240Y-351940D01*
X1757760Y-351620D01*
X1925960Y-350040D01*
X1927500Y-350340D01*
X1928820Y-351200D01*
X1929700Y-352500D01*
X1930000Y-354040D01*
X1930000Y-401019D01*
X1929700Y-402540D01*
X1928839Y-403840D01*
X1927540Y-404700D01*
X1926020Y-405020D01*
X1907900Y-405100D01*
X1906800Y-404940D01*
X1905760Y-404480D01*
X1903580Y-403120D01*
X1901440Y-402360D01*
X1898959Y-402080D01*
X1781279Y-402080D01*
X1778800Y-402360D01*
X1776660Y-403120D01*
X1774720Y-404320D01*
X1773120Y-405940D01*
X1771900Y-407860D01*
X1771140Y-410020D01*
X1770860Y-412500D01*
X1770860Y-447500D01*
X1771140Y-449980D01*
X1771900Y-452140D01*
X1773120Y-454060D01*
X1774720Y-455680D01*
X1776660Y-456880D01*
X1778800Y-457640D01*
X1781279Y-457920D01*
X1898959Y-457920D01*
X1901440Y-457640D01*
X1903580Y-456880D01*
X1905520Y-455680D01*
X1906360Y-454820D01*
X1907660Y-453960D01*
X1909199Y-453660D01*
X1917960Y-453660D01*
X1931320Y-454720D01*
X1932740Y-455100D01*
X1933940Y-455980D01*
X1934720Y-457239D01*
X1935000Y-458700D01*
X1935000Y-551160D01*
X1934720Y-552660D01*
X1933880Y-553940D01*
X1932640Y-554820D01*
X1931180Y-555160D01*
X1919720Y-555660D01*
X1908500Y-555660D01*
X1906960Y-555340D01*
X1905520Y-554320D01*
X1903580Y-553120D01*
X1901440Y-552360D01*
X1898959Y-552080D01*
X1781279Y-552080D01*
X1778800Y-552360D01*
X1776660Y-553120D01*
X1773280Y-555340D01*
X1771740Y-555660D01*
G37*

%LPD*%
G36*
X978000Y-594000D02*
G01*
X976460Y-593700D01*
X975180Y-592820D01*
X974300Y-591540D01*
X974000Y-590000D01*
X974000Y-574000D01*
X974300Y-572460D01*
X975180Y-571180D01*
X976460Y-570300D01*
X978000Y-570000D01*
X1056000Y-570000D01*
X1057540Y-570300D01*
X1058820Y-571180D01*
X1059700Y-572460D01*
X1060000Y-574000D01*
X1060000Y-590000D01*
X1059700Y-591540D01*
X1058820Y-592820D01*
X1057540Y-593700D01*
X1056000Y-594000D01*
G37*

%LPD*%
G36*
X1759000Y-610000D02*
G01*
X1757460Y-609700D01*
X1756180Y-608820D01*
X1755300Y-607540D01*
X1755000Y-606000D01*
X1755000Y-567720D01*
X1755300Y-566200D01*
X1756180Y-564900D01*
X1757460Y-564020D01*
X1759000Y-563720D01*
X1919720Y-563720D01*
X1935260Y-563060D01*
X1937860Y-562520D01*
X1939139Y-561840D01*
X1940720Y-561400D01*
X1942320Y-561600D01*
X1943720Y-562460D01*
X1944660Y-563780D01*
X1945000Y-565380D01*
X1945000Y-606000D01*
X1944700Y-607540D01*
X1943820Y-608820D01*
X1942540Y-609700D01*
X1941000Y-610000D01*
G37*

%LPD*%
G36*
X431659Y-699000D02*
G01*
X430120Y-698700D01*
X428820Y-697820D01*
X427180Y-696180D01*
X426300Y-694880D01*
X426000Y-693340D01*
X426000Y-649000D01*
X426300Y-647460D01*
X427180Y-646180D01*
X428459Y-645300D01*
X430000Y-645000D01*
X506000Y-645000D01*
X507540Y-645300D01*
X508820Y-646180D01*
X509700Y-647460D01*
X510000Y-649000D01*
X510000Y-695000D01*
X509700Y-696540D01*
X508820Y-697820D01*
X507540Y-698700D01*
X506000Y-699000D01*
G37*

%LPD*%
G36*
X1225660Y-750000D02*
G01*
X1224120Y-749700D01*
X1222820Y-748820D01*
X1221180Y-747180D01*
X1220300Y-745879D01*
X1220000Y-744340D01*
X1220000Y-694000D01*
X1220300Y-692460D01*
X1221180Y-691180D01*
X1222460Y-690300D01*
X1224000Y-690000D01*
X1229560Y-690000D01*
X1231140Y-690320D01*
X1232460Y-691240D01*
X1233920Y-692780D01*
X1236540Y-694640D01*
X1239460Y-695980D01*
X1242600Y-696740D01*
X1245800Y-696900D01*
X1248980Y-696440D01*
X1252020Y-695380D01*
X1254800Y-693780D01*
X1258220Y-690699D01*
X1259300Y-690180D01*
X1260500Y-690000D01*
X1287120Y-690000D01*
X1288660Y-690300D01*
X1289960Y-691180D01*
X1290820Y-692460D01*
X1291120Y-694000D01*
X1291120Y-746000D01*
X1290820Y-747540D01*
X1289960Y-748820D01*
X1288660Y-749700D01*
X1287120Y-750000D01*
G37*

%LPD*%
G36*
X1007120Y-754320D02*
G01*
X1005660Y-754040D01*
X1004400Y-753240D01*
X1003520Y-752060D01*
X1003139Y-750620D01*
X997720Y-676620D01*
X997940Y-675000D01*
X998780Y-673600D01*
X1000120Y-672660D01*
X1001720Y-672320D01*
X1043400Y-672320D01*
X1044940Y-672620D01*
X1046240Y-673500D01*
X1047099Y-674780D01*
X1047400Y-676320D01*
X1047400Y-750320D01*
X1047099Y-751860D01*
X1046240Y-753139D01*
X1044940Y-754020D01*
X1043400Y-754320D01*
G37*

%LPD*%
G36*
X1066660Y-800000D02*
G01*
X1065120Y-799700D01*
X1063820Y-798820D01*
X1061180Y-796180D01*
X1060300Y-794880D01*
X1060000Y-793340D01*
X1060000Y-607360D01*
X1060360Y-605700D01*
X1061360Y-604360D01*
X1064560Y-602620D01*
X1066380Y-601000D01*
X1067620Y-600260D01*
X1069040Y-600000D01*
X1096000Y-600000D01*
X1097540Y-600300D01*
X1098820Y-601180D01*
X1099700Y-602460D01*
X1100000Y-604000D01*
X1100000Y-607880D01*
X1099680Y-609580D01*
X1099380Y-612860D01*
X1099380Y-661160D01*
X1099680Y-664440D01*
X1100000Y-666140D01*
X1100000Y-676400D01*
X1099720Y-677900D01*
X1098780Y-680240D01*
X1098160Y-683400D01*
X1098160Y-686600D01*
X1098780Y-689760D01*
X1099720Y-692099D01*
X1100000Y-693600D01*
X1100000Y-796000D01*
X1099700Y-797540D01*
X1098820Y-798820D01*
X1097540Y-799700D01*
X1096000Y-800000D01*
G37*

%LPD*%
G36*
X1064000Y-900000D02*
G01*
X1062460Y-899700D01*
X1061180Y-898820D01*
X1060300Y-897540D01*
X1060000Y-896000D01*
X1060000Y-865400D01*
X1059600Y-865000D01*
X1044000Y-865000D01*
X1042460Y-864700D01*
X1041180Y-863820D01*
X1040300Y-862540D01*
X1040000Y-861000D01*
X1040000Y-814000D01*
X1040300Y-812460D01*
X1041180Y-811180D01*
X1042460Y-810300D01*
X1044000Y-810000D01*
X1086000Y-810000D01*
X1087540Y-810300D01*
X1088820Y-811180D01*
X1089700Y-812460D01*
X1090000Y-814000D01*
X1090000Y-896000D01*
X1089700Y-897540D01*
X1088820Y-898820D01*
X1087540Y-899700D01*
X1086000Y-900000D01*
G37*

%LPD*%
G36*
X901200Y-900000D02*
G01*
X899659Y-899700D01*
X898379Y-898820D01*
X897500Y-897540D01*
X897200Y-896000D01*
X897200Y-815220D01*
X896919Y-812740D01*
X896160Y-810580D01*
X895160Y-808680D01*
X895000Y-807580D01*
X895000Y-739000D01*
X895300Y-737460D01*
X896180Y-736180D01*
X897460Y-735300D01*
X899000Y-735000D01*
X941000Y-735000D01*
X942540Y-735300D01*
X943820Y-736180D01*
X944700Y-737480D01*
X945000Y-739000D01*
X945000Y-756180D01*
X944640Y-759560D01*
X944640Y-800440D01*
X945000Y-803840D01*
X945000Y-896000D01*
X944700Y-897540D01*
X943820Y-898820D01*
X942540Y-899700D01*
X941000Y-900000D01*
G37*

%LPD*%
G36*
X614000Y-900000D02*
G01*
X612460Y-899700D01*
X611180Y-898820D01*
X610300Y-897540D01*
X610000Y-896000D01*
X610000Y-865400D01*
X609600Y-865000D01*
X594000Y-865000D01*
X592460Y-864700D01*
X591180Y-863820D01*
X590300Y-862540D01*
X590000Y-861000D01*
X590000Y-814000D01*
X590300Y-812460D01*
X591180Y-811180D01*
X592460Y-810300D01*
X594000Y-810000D01*
X636000Y-810000D01*
X637540Y-810300D01*
X638820Y-811180D01*
X639700Y-812460D01*
X640000Y-814000D01*
X640000Y-896000D01*
X639700Y-897540D01*
X638820Y-898820D01*
X637540Y-899700D01*
X636000Y-900000D01*
G37*

%LPD*%
G36*
X957080Y-900000D02*
G01*
X955540Y-899700D01*
X954240Y-898820D01*
X953379Y-897540D01*
X953080Y-896000D01*
X953080Y-735120D01*
X953020Y-734140D01*
X952520Y-732140D01*
X951620Y-730440D01*
X951000Y-729740D01*
X950260Y-728500D01*
X950000Y-727080D01*
X950000Y-724000D01*
X950300Y-722460D01*
X951180Y-721180D01*
X952460Y-720300D01*
X954000Y-720000D01*
X989080Y-720000D01*
X990560Y-720280D01*
X991820Y-721080D01*
X992700Y-722260D01*
X993080Y-723700D01*
X995380Y-755100D01*
X995900Y-757180D01*
X996800Y-758880D01*
X997800Y-760040D01*
X998580Y-761320D01*
X998820Y-762800D01*
X995100Y-896120D01*
X994780Y-897600D01*
X993900Y-898860D01*
X992620Y-899700D01*
X991100Y-900000D01*
G37*

%LPD*%
G36*
X1350200Y-905000D02*
G01*
X1348720Y-904720D01*
X1347440Y-903900D01*
X1346560Y-902660D01*
X1346200Y-901180D01*
X1346420Y-899680D01*
X1346920Y-898259D01*
X1347200Y-895780D01*
X1347200Y-815220D01*
X1346920Y-812740D01*
X1346160Y-810580D01*
X1345160Y-808680D01*
X1345000Y-807580D01*
X1345000Y-739000D01*
X1345300Y-737460D01*
X1346180Y-736180D01*
X1347460Y-735300D01*
X1349000Y-735000D01*
X1391000Y-735000D01*
X1392540Y-735300D01*
X1393820Y-736180D01*
X1394700Y-737480D01*
X1395000Y-739000D01*
X1395000Y-756180D01*
X1394640Y-759560D01*
X1394640Y-800440D01*
X1395000Y-803840D01*
X1395000Y-901000D01*
X1394700Y-902540D01*
X1393820Y-903820D01*
X1392540Y-904700D01*
X1391000Y-905000D01*
G37*

%LPD*%
G36*
X1054000Y-1117760D02*
G01*
X1052460Y-1117460D01*
X1051180Y-1116600D01*
X1050300Y-1115300D01*
X1050000Y-1113760D01*
X1050060Y-1112440D01*
X1053000Y-1094840D01*
X1053000Y-1004000D01*
X1053300Y-1002480D01*
X1054180Y-1001180D01*
X1055460Y-1000320D01*
X1057000Y-1000000D01*
X1094060Y-1000000D01*
X1095580Y-1000300D01*
X1096880Y-1001160D01*
X1097740Y-1002440D01*
X1098060Y-1003940D01*
X1099940Y-1113700D01*
X1099640Y-1115240D01*
X1098780Y-1116560D01*
X1097480Y-1117460D01*
X1095940Y-1117760D01*
G37*

%LPD*%
G36*
X604000Y-1118260D02*
G01*
X602460Y-1117960D01*
X601180Y-1117100D01*
X600300Y-1115800D01*
X600000Y-1114260D01*
X600060Y-1112940D01*
X603000Y-1095340D01*
X603000Y-1004500D01*
X603300Y-1002980D01*
X604180Y-1001680D01*
X605460Y-1000819D01*
X607000Y-1000500D01*
X644060Y-1000500D01*
X645580Y-1000800D01*
X646880Y-1001660D01*
X647740Y-1002940D01*
X648060Y-1004440D01*
X649940Y-1114200D01*
X649640Y-1115740D01*
X648780Y-1117060D01*
X647480Y-1117960D01*
X645939Y-1118260D01*
G37*

%LPD*%
G36*
X1329000Y-1155000D02*
G01*
X1327460Y-1154700D01*
X1326180Y-1153820D01*
X1325300Y-1152540D01*
X1325000Y-1151000D01*
X1325000Y-1107700D01*
X1325320Y-1106160D01*
X1326200Y-1104860D01*
X1327520Y-1104000D01*
X1349660Y-1095140D01*
X1350000Y-1094600D01*
X1350000Y-1004000D01*
X1350300Y-1002460D01*
X1351180Y-1001180D01*
X1352460Y-1000300D01*
X1354000Y-1000000D01*
X1391000Y-1000000D01*
X1392540Y-1000300D01*
X1393820Y-1001180D01*
X1394700Y-1002460D01*
X1395000Y-1004000D01*
X1395000Y-1148340D01*
X1394700Y-1149880D01*
X1393820Y-1151180D01*
X1391180Y-1153820D01*
X1389880Y-1154700D01*
X1388340Y-1155000D01*
G37*

%LPD*%
G36*
X879000Y-1155000D02*
G01*
X877460Y-1154700D01*
X876180Y-1153820D01*
X875300Y-1152540D01*
X875000Y-1151000D01*
X875000Y-1107700D01*
X875320Y-1106160D01*
X876200Y-1104860D01*
X877520Y-1104000D01*
X899659Y-1095140D01*
X900000Y-1094600D01*
X900000Y-1004000D01*
X900300Y-1002460D01*
X901180Y-1001180D01*
X902460Y-1000300D01*
X904000Y-1000000D01*
X941000Y-1000000D01*
X942540Y-1000300D01*
X943820Y-1001180D01*
X944700Y-1002460D01*
X945000Y-1004000D01*
X945000Y-1148340D01*
X944700Y-1149880D01*
X943820Y-1151180D01*
X941180Y-1153820D01*
X939880Y-1154700D01*
X938340Y-1155000D01*
G37*

%LPD*%
G36*
X1752080Y-1181940D02*
G01*
X1750540Y-1181620D01*
X1749240Y-1180760D01*
X1748380Y-1179460D01*
X1748080Y-1177940D01*
X1748080Y-1167080D01*
X1748380Y-1165540D01*
X1749240Y-1164240D01*
X1750540Y-1163380D01*
X1752080Y-1163080D01*
X1789880Y-1163080D01*
X1790860Y-1163020D01*
X1792860Y-1162520D01*
X1794560Y-1161620D01*
X1796020Y-1160340D01*
X1797120Y-1158740D01*
X1797840Y-1156820D01*
X1798700Y-1155460D01*
X1800020Y-1154560D01*
X1801579Y-1154240D01*
X1805100Y-1154240D01*
X1805500Y-1153840D01*
X1805500Y-1134860D01*
X1805680Y-1133660D01*
X1809120Y-1122800D01*
X1809940Y-1121340D01*
X1811300Y-1120340D01*
X1812920Y-1120000D01*
X1866040Y-1120000D01*
X1867560Y-1120300D01*
X1868839Y-1121160D01*
X1869720Y-1122440D01*
X1870040Y-1123960D01*
X1870440Y-1177900D01*
X1870140Y-1179440D01*
X1869280Y-1180740D01*
X1867980Y-1181620D01*
X1866440Y-1181940D01*
G37*

%LPD*%
G36*
X1721160Y-1235000D02*
G01*
X1719720Y-1234720D01*
X1718480Y-1233960D01*
X1717580Y-1232780D01*
X1716180Y-1229980D01*
X1714079Y-1227180D01*
X1711480Y-1224800D01*
X1708480Y-1222960D01*
X1705200Y-1221680D01*
X1703860Y-1220820D01*
X1702960Y-1219520D01*
X1702640Y-1217960D01*
X1702640Y-1198840D01*
X1702360Y-1196360D01*
X1701620Y-1194200D01*
X1700400Y-1192280D01*
X1698779Y-1190660D01*
X1696879Y-1189460D01*
X1695880Y-1188560D01*
X1695220Y-1187400D01*
X1695000Y-1186080D01*
X1695000Y-1163920D01*
X1695220Y-1162600D01*
X1695880Y-1161440D01*
X1696879Y-1160540D01*
X1698779Y-1159340D01*
X1700400Y-1157720D01*
X1701620Y-1155800D01*
X1702360Y-1153640D01*
X1702640Y-1151160D01*
X1702640Y-1124040D01*
X1702360Y-1121560D01*
X1701940Y-1120320D01*
X1701720Y-1118820D01*
X1702060Y-1117340D01*
X1702940Y-1116100D01*
X1704220Y-1115280D01*
X1705700Y-1115000D01*
X1786000Y-1115000D01*
X1787540Y-1115300D01*
X1788820Y-1116180D01*
X1789700Y-1117460D01*
X1790000Y-1119000D01*
X1790000Y-1147020D01*
X1789700Y-1148560D01*
X1788820Y-1149840D01*
X1787540Y-1150720D01*
X1786000Y-1151020D01*
X1747780Y-1151020D01*
X1745300Y-1151300D01*
X1743140Y-1152060D01*
X1741220Y-1153260D01*
X1739600Y-1154880D01*
X1738400Y-1156800D01*
X1737640Y-1158960D01*
X1737360Y-1161440D01*
X1737360Y-1188560D01*
X1737640Y-1191040D01*
X1738400Y-1193200D01*
X1739600Y-1195120D01*
X1741220Y-1196740D01*
X1743140Y-1197940D01*
X1745300Y-1198700D01*
X1747780Y-1198980D01*
X1786699Y-1198980D01*
X1789199Y-1198700D01*
X1791339Y-1197940D01*
X1793280Y-1196740D01*
X1794880Y-1195120D01*
X1796100Y-1193200D01*
X1797120Y-1191280D01*
X1798460Y-1190340D01*
X1800060Y-1190000D01*
X1876000Y-1190000D01*
X1877540Y-1190300D01*
X1878820Y-1191180D01*
X1879700Y-1192460D01*
X1880000Y-1194000D01*
X1880000Y-1231000D01*
X1879700Y-1232540D01*
X1878820Y-1233820D01*
X1877540Y-1234700D01*
X1876000Y-1235000D01*
G37*

%LPD*%
G36*
X579000Y-1265000D02*
G01*
X577460Y-1264700D01*
X576180Y-1263820D01*
X575300Y-1262540D01*
X575000Y-1261000D01*
X575000Y-1209000D01*
X575300Y-1207460D01*
X576180Y-1206180D01*
X577460Y-1205300D01*
X579000Y-1205000D01*
X611000Y-1205000D01*
X612540Y-1205300D01*
X613820Y-1206180D01*
X614700Y-1207460D01*
X615000Y-1209000D01*
X615000Y-1261000D01*
X614700Y-1262540D01*
X613820Y-1263820D01*
X612540Y-1264700D01*
X611000Y-1265000D01*
G37*

%LPD*%
G36*
X1009000Y-1265000D02*
G01*
X1007460Y-1264700D01*
X1006180Y-1263820D01*
X1005300Y-1262540D01*
X1005000Y-1261000D01*
X1005000Y-1209000D01*
X1005300Y-1207460D01*
X1006180Y-1206180D01*
X1007460Y-1205300D01*
X1009000Y-1205000D01*
X1041000Y-1205000D01*
X1042540Y-1205300D01*
X1043820Y-1206180D01*
X1044700Y-1207460D01*
X1045000Y-1209000D01*
X1045000Y-1261000D01*
X1044700Y-1262540D01*
X1043820Y-1263820D01*
X1042540Y-1264700D01*
X1041000Y-1265000D01*
G37*

%LPD*%
G36*
X1434000Y-1265000D02*
G01*
X1432460Y-1264700D01*
X1431180Y-1263820D01*
X1430300Y-1262540D01*
X1430000Y-1261000D01*
X1430000Y-1209000D01*
X1430300Y-1207460D01*
X1431180Y-1206180D01*
X1432460Y-1205300D01*
X1434000Y-1205000D01*
X1466000Y-1205000D01*
X1467540Y-1205300D01*
X1468820Y-1206180D01*
X1469700Y-1207460D01*
X1470000Y-1209000D01*
X1470000Y-1261000D01*
X1469700Y-1262540D01*
X1468820Y-1263820D01*
X1467540Y-1264700D01*
X1466000Y-1265000D01*
G37*

%LPD*%
G36*
X1569000Y-1285000D02*
G01*
X1567460Y-1284700D01*
X1566180Y-1283820D01*
X1565300Y-1282540D01*
X1565000Y-1281000D01*
X1565000Y-1249000D01*
X1565300Y-1247460D01*
X1566180Y-1246180D01*
X1567460Y-1245300D01*
X1569000Y-1245000D01*
X1631000Y-1245000D01*
X1632540Y-1245300D01*
X1633820Y-1246180D01*
X1634700Y-1247460D01*
X1635000Y-1249000D01*
X1635000Y-1281000D01*
X1634700Y-1282540D01*
X1633820Y-1283820D01*
X1632540Y-1284700D01*
X1631000Y-1285000D01*
G37*

%LPD*%
G36*
X374000Y-1315000D02*
G01*
X372460Y-1314700D01*
X371180Y-1313820D01*
X370300Y-1312540D01*
X370000Y-1311000D01*
X370000Y-1279000D01*
X370300Y-1277460D01*
X371180Y-1276180D01*
X372460Y-1275300D01*
X374000Y-1275000D01*
X431000Y-1275000D01*
X432540Y-1275300D01*
X433820Y-1276180D01*
X434700Y-1277460D01*
X435000Y-1279000D01*
X435000Y-1311000D01*
X434700Y-1312540D01*
X433820Y-1313820D01*
X432540Y-1314700D01*
X431000Y-1315000D01*
G37*

%LPD*%
G36*
X804000Y-1315000D02*
G01*
X802460Y-1314700D01*
X801180Y-1313820D01*
X800300Y-1312540D01*
X800000Y-1311000D01*
X800000Y-1279000D01*
X800300Y-1277460D01*
X801180Y-1276180D01*
X802460Y-1275300D01*
X804000Y-1275000D01*
X861000Y-1275000D01*
X862540Y-1275300D01*
X863820Y-1276180D01*
X864700Y-1277460D01*
X865000Y-1279000D01*
X865000Y-1311000D01*
X864700Y-1312540D01*
X863820Y-1313820D01*
X862540Y-1314700D01*
X861000Y-1315000D01*
G37*

%LPD*%
G36*
X1229000Y-1315000D02*
G01*
X1227460Y-1314700D01*
X1226180Y-1313820D01*
X1225300Y-1312540D01*
X1225000Y-1311000D01*
X1225000Y-1279000D01*
X1225300Y-1277460D01*
X1226180Y-1276180D01*
X1227460Y-1275300D01*
X1229000Y-1275000D01*
X1286000Y-1275000D01*
X1287540Y-1275300D01*
X1288820Y-1276180D01*
X1289700Y-1277460D01*
X1290000Y-1279000D01*
X1290000Y-1311000D01*
X1289700Y-1312540D01*
X1288820Y-1313820D01*
X1287540Y-1314700D01*
X1286000Y-1315000D01*
G37*

%LPD*%
G36*
X512960Y-1377800D02*
G01*
X511440Y-1377500D01*
X510140Y-1376639D01*
X509260Y-1375340D01*
X508960Y-1373800D01*
X508960Y-1368380D01*
X508740Y-1366360D01*
X508100Y-1364560D01*
X507879Y-1363240D01*
X508100Y-1361920D01*
X508740Y-1360100D01*
X508960Y-1358080D01*
X508960Y-1348700D01*
X508740Y-1346680D01*
X508100Y-1344880D01*
X507879Y-1343540D01*
X508100Y-1342220D01*
X508740Y-1340420D01*
X508960Y-1338400D01*
X508960Y-1329000D01*
X508740Y-1327000D01*
X508140Y-1325300D01*
X507180Y-1323760D01*
X506180Y-1322760D01*
X505300Y-1321459D01*
X505000Y-1319920D01*
X505000Y-1299000D01*
X505300Y-1297460D01*
X506180Y-1296180D01*
X507460Y-1295300D01*
X509000Y-1295000D01*
X517620Y-1295000D01*
X519260Y-1295340D01*
X520600Y-1296339D01*
X521440Y-1297780D01*
X521599Y-1299440D01*
X521380Y-1301440D01*
X521380Y-1324620D01*
X521599Y-1326639D01*
X522200Y-1328340D01*
X523160Y-1329860D01*
X523820Y-1330540D01*
X524700Y-1331840D01*
X525000Y-1333380D01*
X525060Y-1334940D01*
X525400Y-1335000D01*
X544600Y-1335000D01*
X545000Y-1334600D01*
X545000Y-1331940D01*
X545160Y-1330820D01*
X545620Y-1329800D01*
X546540Y-1328340D01*
X547120Y-1326639D01*
X547360Y-1324620D01*
X547360Y-1301440D01*
X547120Y-1299440D01*
X547300Y-1297780D01*
X548120Y-1296339D01*
X549460Y-1295340D01*
X551100Y-1295000D01*
X581000Y-1295000D01*
X582540Y-1295300D01*
X583820Y-1296180D01*
X584700Y-1297460D01*
X585000Y-1299000D01*
X585000Y-1318720D01*
X584780Y-1320040D01*
X584120Y-1321200D01*
X582500Y-1322500D01*
X581220Y-1323760D01*
X580260Y-1325300D01*
X579660Y-1327000D01*
X579440Y-1329000D01*
X579440Y-1338400D01*
X579660Y-1340420D01*
X580300Y-1342220D01*
X580520Y-1343540D01*
X580300Y-1344880D01*
X579660Y-1346680D01*
X579440Y-1348700D01*
X579440Y-1358080D01*
X579660Y-1360100D01*
X580260Y-1361800D01*
X581220Y-1363320D01*
X582500Y-1364600D01*
X584020Y-1365560D01*
X585720Y-1366160D01*
X587740Y-1366380D01*
X611000Y-1366380D01*
X612540Y-1366680D01*
X613820Y-1367560D01*
X614700Y-1368860D01*
X615000Y-1370380D01*
X615000Y-1373800D01*
X614700Y-1375340D01*
X613820Y-1376639D01*
X612540Y-1377500D01*
X611000Y-1377800D01*
G37*

%LPD*%
G36*
X942960Y-1377800D02*
G01*
X941420Y-1377500D01*
X940140Y-1376620D01*
X939260Y-1375320D01*
X938960Y-1373800D01*
X938960Y-1368380D01*
X938740Y-1366360D01*
X938100Y-1364540D01*
X937880Y-1363220D01*
X938100Y-1361900D01*
X938740Y-1360100D01*
X938960Y-1358080D01*
X938960Y-1348700D01*
X938740Y-1346680D01*
X938100Y-1344860D01*
X937880Y-1343540D01*
X938100Y-1342220D01*
X938740Y-1340400D01*
X938960Y-1338400D01*
X938960Y-1329000D01*
X938740Y-1326980D01*
X938139Y-1325280D01*
X937180Y-1323760D01*
X936180Y-1322760D01*
X935300Y-1321459D01*
X935000Y-1319920D01*
X935000Y-1299000D01*
X935300Y-1297460D01*
X936180Y-1296180D01*
X937460Y-1295300D01*
X939000Y-1295000D01*
X947620Y-1295000D01*
X949260Y-1295340D01*
X950600Y-1296339D01*
X951440Y-1297780D01*
X951600Y-1299440D01*
X951360Y-1301440D01*
X951360Y-1324620D01*
X951600Y-1326639D01*
X952200Y-1328340D01*
X953160Y-1329860D01*
X953820Y-1330540D01*
X954700Y-1331840D01*
X955000Y-1333380D01*
X955060Y-1334940D01*
X955400Y-1335000D01*
X974599Y-1335000D01*
X975000Y-1334600D01*
X975000Y-1331920D01*
X975160Y-1330820D01*
X975620Y-1329800D01*
X976520Y-1328340D01*
X977120Y-1326639D01*
X977340Y-1324620D01*
X977340Y-1301440D01*
X977120Y-1299440D01*
X977280Y-1297780D01*
X978120Y-1296339D01*
X979460Y-1295340D01*
X981100Y-1295000D01*
X1011000Y-1295000D01*
X1012540Y-1295300D01*
X1013820Y-1296180D01*
X1014700Y-1297460D01*
X1015000Y-1299000D01*
X1015000Y-1318700D01*
X1014780Y-1320020D01*
X1014120Y-1321200D01*
X1012500Y-1322480D01*
X1011220Y-1323760D01*
X1010260Y-1325280D01*
X1009659Y-1326980D01*
X1009440Y-1329000D01*
X1009440Y-1338400D01*
X1009659Y-1340400D01*
X1010300Y-1342220D01*
X1010520Y-1343540D01*
X1010300Y-1344860D01*
X1009659Y-1346680D01*
X1009440Y-1348700D01*
X1009440Y-1358080D01*
X1009659Y-1360100D01*
X1010260Y-1361800D01*
X1011220Y-1363320D01*
X1012500Y-1364600D01*
X1014020Y-1365560D01*
X1015720Y-1366160D01*
X1017740Y-1366380D01*
X1041000Y-1366380D01*
X1042540Y-1366680D01*
X1043820Y-1367540D01*
X1044700Y-1368839D01*
X1045000Y-1370380D01*
X1045000Y-1373800D01*
X1044700Y-1375320D01*
X1043820Y-1376620D01*
X1042540Y-1377500D01*
X1041000Y-1377800D01*
G37*

%LPD*%
G36*
X1367960Y-1377800D02*
G01*
X1366420Y-1377500D01*
X1365140Y-1376639D01*
X1364259Y-1375340D01*
X1363959Y-1373800D01*
X1363959Y-1368380D01*
X1363740Y-1366360D01*
X1363100Y-1364560D01*
X1362880Y-1363240D01*
X1363100Y-1361920D01*
X1363740Y-1360100D01*
X1363959Y-1358080D01*
X1363959Y-1348700D01*
X1363740Y-1346680D01*
X1363100Y-1344880D01*
X1362880Y-1343540D01*
X1363100Y-1342220D01*
X1363740Y-1340420D01*
X1363959Y-1338400D01*
X1363959Y-1329000D01*
X1363740Y-1327000D01*
X1363140Y-1325300D01*
X1362180Y-1323760D01*
X1361180Y-1322760D01*
X1360300Y-1321459D01*
X1360000Y-1319940D01*
X1360000Y-1299000D01*
X1360300Y-1297460D01*
X1361180Y-1296180D01*
X1362460Y-1295300D01*
X1364000Y-1295000D01*
X1372620Y-1295000D01*
X1374259Y-1295340D01*
X1375600Y-1296339D01*
X1376440Y-1297780D01*
X1376600Y-1299440D01*
X1376360Y-1301440D01*
X1376360Y-1324620D01*
X1376600Y-1326639D01*
X1377200Y-1328340D01*
X1378140Y-1329860D01*
X1378820Y-1330540D01*
X1379700Y-1331840D01*
X1380000Y-1333380D01*
X1380060Y-1334940D01*
X1380400Y-1335000D01*
X1399600Y-1335000D01*
X1400000Y-1334600D01*
X1400000Y-1331920D01*
X1400160Y-1330820D01*
X1400620Y-1329800D01*
X1401519Y-1328340D01*
X1402120Y-1326639D01*
X1402340Y-1324620D01*
X1402340Y-1301440D01*
X1402120Y-1299440D01*
X1402280Y-1297780D01*
X1403120Y-1296339D01*
X1404460Y-1295340D01*
X1406100Y-1295000D01*
X1436000Y-1295000D01*
X1437540Y-1295300D01*
X1438820Y-1296180D01*
X1439700Y-1297460D01*
X1440000Y-1299000D01*
X1440000Y-1318700D01*
X1439780Y-1320020D01*
X1439120Y-1321200D01*
X1437500Y-1322500D01*
X1436220Y-1323760D01*
X1435260Y-1325300D01*
X1434660Y-1327000D01*
X1434440Y-1329000D01*
X1434440Y-1338400D01*
X1434660Y-1340420D01*
X1435300Y-1342220D01*
X1435520Y-1343540D01*
X1435300Y-1344880D01*
X1434660Y-1346680D01*
X1434440Y-1348700D01*
X1434440Y-1358080D01*
X1434660Y-1360100D01*
X1435260Y-1361800D01*
X1436220Y-1363320D01*
X1437500Y-1364600D01*
X1439019Y-1365560D01*
X1440720Y-1366160D01*
X1442740Y-1366380D01*
X1466000Y-1366380D01*
X1467540Y-1366680D01*
X1468820Y-1367560D01*
X1469700Y-1368860D01*
X1470000Y-1370380D01*
X1470000Y-1373800D01*
X1469700Y-1375340D01*
X1468820Y-1376639D01*
X1467540Y-1377500D01*
X1466000Y-1377800D01*
G37*

%LPD*%
G36*
X1484000Y-1564600D02*
G01*
X1482460Y-1564300D01*
X1481180Y-1563420D01*
X1480300Y-1562140D01*
X1480000Y-1560600D01*
X1480000Y-1442900D01*
X1479720Y-1442220D01*
X1476180Y-1438680D01*
X1475600Y-1437960D01*
X1474379Y-1435960D01*
X1473120Y-1434700D01*
X1471579Y-1433740D01*
X1469880Y-1433160D01*
X1467880Y-1432920D01*
X1408300Y-1432920D01*
X1406780Y-1432620D01*
X1405480Y-1431759D01*
X1404620Y-1430460D01*
X1404300Y-1428920D01*
X1404300Y-1417620D01*
X1404620Y-1416100D01*
X1405480Y-1414800D01*
X1406780Y-1413920D01*
X1408300Y-1413620D01*
X1467880Y-1413620D01*
X1469880Y-1413400D01*
X1471819Y-1412720D01*
X1473140Y-1412500D01*
X1606000Y-1412500D01*
X1607540Y-1412800D01*
X1608820Y-1413680D01*
X1609700Y-1414960D01*
X1610000Y-1416500D01*
X1610000Y-1560600D01*
X1609700Y-1562140D01*
X1608820Y-1563420D01*
X1607540Y-1564300D01*
X1606000Y-1564600D01*
G37*

%LPD*%
G36*
X1189100Y-1564600D02*
G01*
X1187460Y-1564240D01*
X1186100Y-1563240D01*
X1185280Y-1561759D01*
X1185140Y-1560060D01*
X1185720Y-1558480D01*
X1186300Y-1557540D01*
X1186900Y-1555840D01*
X1187120Y-1553839D01*
X1187120Y-1436160D01*
X1186900Y-1434160D01*
X1186300Y-1432460D01*
X1185620Y-1431360D01*
X1185160Y-1430340D01*
X1185000Y-1429220D01*
X1185000Y-1414000D01*
X1185300Y-1412460D01*
X1186180Y-1411180D01*
X1187460Y-1410300D01*
X1189000Y-1410000D01*
X1321780Y-1410000D01*
X1323320Y-1410300D01*
X1324620Y-1411180D01*
X1325280Y-1411840D01*
X1326800Y-1412800D01*
X1328500Y-1413400D01*
X1330520Y-1413620D01*
X1387920Y-1413620D01*
X1389460Y-1413920D01*
X1390760Y-1414800D01*
X1391620Y-1416100D01*
X1391940Y-1417620D01*
X1391940Y-1428920D01*
X1391620Y-1430460D01*
X1390760Y-1431759D01*
X1389460Y-1432620D01*
X1387920Y-1432920D01*
X1330520Y-1432920D01*
X1328500Y-1433160D01*
X1326800Y-1433740D01*
X1324760Y-1434840D01*
X1323660Y-1435000D01*
X1315400Y-1435000D01*
X1315000Y-1435400D01*
X1315000Y-1560600D01*
X1314700Y-1562140D01*
X1313820Y-1563420D01*
X1312540Y-1564300D01*
X1311000Y-1564600D01*
G37*

%LPD*%
G36*
X1059000Y-1564600D02*
G01*
X1057460Y-1564300D01*
X1056180Y-1563420D01*
X1055300Y-1562140D01*
X1055000Y-1560600D01*
X1055000Y-1440400D01*
X1054720Y-1439720D01*
X1050280Y-1435280D01*
X1047620Y-1434379D01*
X1046580Y-1433740D01*
X1044880Y-1433140D01*
X1042880Y-1432920D01*
X983300Y-1432920D01*
X981780Y-1432620D01*
X980480Y-1431740D01*
X979620Y-1430440D01*
X979300Y-1428920D01*
X979300Y-1417620D01*
X979620Y-1416080D01*
X980480Y-1414780D01*
X981780Y-1413920D01*
X983300Y-1413620D01*
X1042880Y-1413620D01*
X1044880Y-1413400D01*
X1046580Y-1412800D01*
X1048120Y-1411840D01*
X1048780Y-1411180D01*
X1050080Y-1410300D01*
X1051600Y-1410000D01*
X1172920Y-1410000D01*
X1174460Y-1410300D01*
X1175760Y-1411180D01*
X1176620Y-1412460D01*
X1176940Y-1414000D01*
X1176940Y-1560600D01*
X1176620Y-1562140D01*
X1175760Y-1563420D01*
X1174460Y-1564300D01*
X1172920Y-1564600D01*
G37*

%LPD*%
G36*
X769000Y-1564600D02*
G01*
X767460Y-1564300D01*
X766180Y-1563420D01*
X765300Y-1562140D01*
X765000Y-1560600D01*
X765000Y-1414000D01*
X765300Y-1412460D01*
X766180Y-1411180D01*
X767460Y-1410300D01*
X769000Y-1410000D01*
X896780Y-1410000D01*
X898319Y-1410300D01*
X899620Y-1411180D01*
X900280Y-1411840D01*
X901800Y-1412800D01*
X903500Y-1413400D01*
X905520Y-1413620D01*
X962920Y-1413620D01*
X964460Y-1413920D01*
X965759Y-1414780D01*
X966620Y-1416080D01*
X966940Y-1417620D01*
X966940Y-1428920D01*
X966620Y-1430440D01*
X965759Y-1431740D01*
X964460Y-1432620D01*
X962920Y-1432920D01*
X905520Y-1432920D01*
X903500Y-1433140D01*
X901800Y-1433740D01*
X899760Y-1434840D01*
X898660Y-1435000D01*
X895400Y-1435000D01*
X895000Y-1435400D01*
X895000Y-1560600D01*
X894700Y-1562140D01*
X893820Y-1563420D01*
X892540Y-1564300D01*
X891000Y-1564600D01*
G37*

%LPD*%
G36*
X334000Y-1564600D02*
G01*
X332460Y-1564300D01*
X331180Y-1563420D01*
X330300Y-1562140D01*
X330000Y-1560600D01*
X330000Y-1414000D01*
X330300Y-1412460D01*
X331180Y-1411180D01*
X332460Y-1410300D01*
X334000Y-1410000D01*
X466780Y-1410000D01*
X468320Y-1410300D01*
X469620Y-1411180D01*
X470280Y-1411840D01*
X471820Y-1412800D01*
X473519Y-1413400D01*
X475520Y-1413620D01*
X535100Y-1413620D01*
X536620Y-1413920D01*
X537920Y-1414800D01*
X538780Y-1416100D01*
X539100Y-1417620D01*
X539100Y-1428920D01*
X538780Y-1430460D01*
X537920Y-1431759D01*
X536620Y-1432620D01*
X535100Y-1432920D01*
X475520Y-1432920D01*
X473519Y-1433160D01*
X471820Y-1433740D01*
X469780Y-1434840D01*
X468660Y-1435000D01*
X465400Y-1435000D01*
X465000Y-1435400D01*
X465000Y-1560600D01*
X464700Y-1562140D01*
X463820Y-1563420D01*
X462540Y-1564300D01*
X461000Y-1564600D01*
G37*

%LPD*%
G36*
X628460Y-1564600D02*
G01*
X626940Y-1564300D01*
X625640Y-1563420D01*
X624760Y-1562120D01*
X624460Y-1560580D01*
X625000Y-1440380D01*
X624720Y-1439720D01*
X620280Y-1435280D01*
X617620Y-1434379D01*
X616600Y-1433740D01*
X614900Y-1433160D01*
X612880Y-1432920D01*
X557080Y-1432920D01*
X555540Y-1432620D01*
X554240Y-1431759D01*
X553380Y-1430460D01*
X553080Y-1428920D01*
X553080Y-1417620D01*
X553380Y-1416100D01*
X554240Y-1414800D01*
X555540Y-1413920D01*
X557080Y-1413620D01*
X612880Y-1413620D01*
X614900Y-1413400D01*
X616600Y-1412800D01*
X618120Y-1411840D01*
X618780Y-1411180D01*
X620080Y-1410300D01*
X621620Y-1410000D01*
X750980Y-1410000D01*
X752520Y-1410300D01*
X753820Y-1411180D01*
X754680Y-1412480D01*
X754980Y-1414019D01*
X754460Y-1560620D01*
X754160Y-1562140D01*
X753280Y-1563440D01*
X751979Y-1564300D01*
X750460Y-1564600D01*
G37*

%LPD*%
D10*
X1423540Y-780000D02*
G01*
X1425000Y-781460D01*
X1425000Y-855500D01*
X740000Y-287440D02*
G01*
X737440Y-287440D01*
X650000Y-200000D01*
X450000Y-200000D01*
X400000Y-250000D01*
X300000Y-250000D01*
X240000Y-190000D01*
D11*
X1195000Y-535000D02*
G01*
X1212749Y-517249D01*
X1362010Y-517249D01*
X1175000Y-505000D02*
G01*
X1194239Y-485760D01*
X1362010Y-485760D01*
X875000Y-855500D02*
G01*
X875000Y-750000D01*
X980000Y-645000D01*
X825000Y-855500D02*
G01*
X825000Y-715000D01*
X920000Y-620000D01*
X1180000Y-750000D02*
G01*
X1182439Y-747559D01*
X1182439Y-715000D01*
X1679899Y-380000D02*
G01*
X1560000Y-380000D01*
X1540000Y-400000D01*
X1540000Y-500000D01*
X1679880Y-530000D02*
G01*
X1485000Y-530000D01*
X1179250Y-637020D02*
G01*
X1182439Y-640210D01*
X1182439Y-715000D01*
X1115000Y-360000D02*
G01*
X1116260Y-358739D01*
X1116260Y-303000D01*
X1085000Y-385000D02*
G01*
X1084799Y-303000D01*
X1679880Y-580000D02*
G01*
X1505000Y-580000D01*
X1420000Y-495000D01*
X1500000Y-800000D02*
G01*
X1500000Y-620000D01*
X1459799Y-580199D01*
X1361999Y-580199D01*
X775000Y-855500D02*
G01*
X775000Y-800000D01*
X980000Y-520000D02*
G01*
X982749Y-517249D01*
X1027989Y-517249D01*
X970000Y-485000D02*
G01*
X1028000Y-485799D01*
X925000Y-490000D02*
G01*
X925000Y-530000D01*
X945000Y-550000D01*
X946250Y-548750D01*
X1027989Y-548750D01*
X1245000Y-680000D02*
G01*
X1242240Y-677240D01*
X1242240Y-637020D01*
X1210000Y-575000D02*
G01*
X1210799Y-636999D01*
X1275000Y-855500D02*
G01*
X1275000Y-820000D01*
X1325000Y-855500D02*
G01*
X1325000Y-805000D01*
X1275000Y-585000D02*
G01*
X1273739Y-586260D01*
X1273739Y-637020D01*
X1325000Y-680000D02*
G01*
X1335000Y-670000D01*
X1335000Y-615000D01*
X1225000Y-855500D02*
G01*
X1225000Y-800000D01*
X1260000Y-800000D01*
X1270000Y-790000D01*
X1300000Y-790000D01*
X1325000Y-765000D01*
X1325000Y-680000D01*
X1175000Y-855500D02*
G01*
X1175000Y-795000D01*
X1195000Y-775000D01*
X1250000Y-775000D01*
X1260000Y-765000D01*
X1295000Y-765000D01*
X1305200Y-754800D01*
X1305200Y-636999D01*
X1115000Y-685000D02*
G01*
X1116260Y-683739D01*
X1116260Y-637019D01*
X725000Y-855500D02*
G01*
X725000Y-760000D01*
X900000Y-585000D01*
X900000Y-455000D01*
X904260Y-454259D01*
X1027989Y-454259D01*
D12*
X696469Y-669861D02*
G01*
X696608Y-670000D01*
X770000Y-670000D01*
D13*
X657199Y-287600D02*
G01*
X740000Y-287399D01*
D12*
X980000Y-360000D02*
G01*
X1028000Y-359800D01*
X1275000Y-375000D02*
G01*
X1273739Y-373739D01*
X1273739Y-303000D01*
X1240000Y-360000D02*
G01*
X1242240Y-357759D01*
X1242240Y-303000D01*
X210000Y-1155000D02*
G01*
X730000Y-1155000D01*
X775000Y-1110000D01*
X775000Y-1044499D01*
X1390299Y-1245000D02*
G01*
X1389399Y-1313000D01*
X965299Y-1245000D02*
G01*
X964399Y-1313000D01*
X535300Y-1245000D02*
G01*
X534400Y-1313000D01*
X489079Y-1353389D02*
G01*
X487809Y-1354659D01*
X415000Y-1354659D01*
X845000Y-1354659D02*
G01*
X846270Y-1353389D01*
X919080Y-1353389D01*
X1270000Y-1354659D02*
G01*
X1271270Y-1353389D01*
X1344080Y-1353389D01*
X1454319Y-1353389D02*
G01*
X1516610Y-1353389D01*
X1550000Y-1320000D01*
X1550000Y-1180000D01*
X1540000Y-1170000D01*
X1315000Y-1170000D01*
X1310000Y-1165000D01*
X1310000Y-1100000D01*
X1325000Y-1085000D01*
X1325000Y-1044499D01*
X1029319Y-1333699D02*
G01*
X1046300Y-1333699D01*
X1175000Y-1205000D01*
X1175000Y-1044499D01*
X599319Y-1333699D02*
G01*
X621300Y-1333699D01*
X825000Y-1130000D01*
X825000Y-1044499D01*
X1344099Y-1373099D02*
G01*
X1316899Y-1373099D01*
X1300000Y-1390000D01*
X1225000Y-1390000D01*
X1210000Y-1375000D01*
X1210000Y-1270500D01*
X1240000Y-1240000D01*
X1029319Y-1353389D02*
G01*
X1086610Y-1353389D01*
X1205000Y-1235000D01*
X1205000Y-1095000D01*
X1225000Y-1075000D01*
X1225000Y-1044499D01*
X1240000Y-1240000D02*
G01*
X1240000Y-1115000D01*
X1235000Y-1110000D01*
X725000Y-1100000D02*
G01*
X725000Y-1044499D01*
X919099Y-1373099D02*
G01*
X876899Y-1373099D01*
X860000Y-1390000D01*
X815000Y-1390000D01*
X800000Y-1375000D01*
X800000Y-1350000D01*
X785000Y-1335000D01*
X785000Y-1270000D01*
X820000Y-1235000D01*
X840000Y-1235000D01*
X870000Y-1205000D01*
X870000Y-1170000D01*
X599299Y-1353400D02*
G01*
X646599Y-1353400D01*
X855000Y-1145000D01*
X855000Y-1064499D01*
X875000Y-1044499D01*
X1454300Y-1333699D02*
G01*
X1466300Y-1333699D01*
X1485000Y-1315000D01*
X1485000Y-1190000D01*
X1275000Y-1190000D01*
X1275000Y-1044499D01*
X489079Y-1373069D02*
G01*
X466930Y-1373069D01*
X445000Y-1395000D01*
X355000Y-1395000D01*
X355000Y-1225000D01*
X395000Y-1185000D01*
X710000Y-1185000D01*
D14*
X1672799Y-1212399D02*
G01*
X1610000Y-1212399D01*
X1610000Y-1212440D02*
G01*
X1610000Y-1160000D01*
X1575000Y-1125000D01*
X1423540Y-1125000D01*
X1575000Y-1125000D02*
G01*
X1600000Y-1100000D01*
X1600000Y-1055000D01*
X1423540Y-1125000D02*
G01*
X1425000Y-1123539D01*
X1425000Y-1044499D01*
X1020000Y-1120000D02*
G01*
X973540Y-1120000D01*
X973540Y-1120000D02*
G01*
X975000Y-1118539D01*
X975000Y-1044499D01*
D12*
X549699Y-670000D02*
G01*
X633499Y-670100D01*
D15*
X165300Y-460000D02*
G01*
X175300Y-460000D01*
X179099Y-456300D01*
X239800Y-456300D01*
X242600Y-459099D01*
X359099Y-459099D01*
X377399Y-477399D01*
X377399Y-496300D01*
X165300Y-434400D02*
G01*
X175300Y-434400D01*
X179099Y-438099D01*
X247300Y-438099D01*
X250100Y-440900D01*
X309099Y-440900D01*
X360000Y-440000D01*
X377399Y-403739D01*
X377399Y-403699D01*
X377399Y-496300D02*
G01*
X399200Y-496300D01*
X436399Y-459099D01*
X750900Y-459099D01*
X950000Y-260000D01*
X1154399Y-260000D01*
X1154399Y-271999D01*
X1147799Y-278699D01*
X1147799Y-303000D01*
X377399Y-403699D02*
G01*
X399200Y-403699D01*
X436399Y-440900D01*
X739099Y-440900D01*
X940000Y-240000D01*
X1172600Y-240000D01*
X1172600Y-271999D01*
X1179200Y-278699D01*
X1179200Y-303000D01*
D13*
X165309Y-408820D02*
G01*
X170390Y-403739D01*
X302600Y-403739D01*
X302600Y-403739D02*
G01*
X398899Y-307440D01*
X470000Y-307440D01*
D10*
X740000Y-287440D02*
G01*
X740000Y-260000D01*
X850000Y-150000D01*
X950000Y-150000D01*
X1000000Y-200000D01*
X740000Y-287440D02*
G01*
X740000Y-200000D01*
D12*
X500000Y-485000D02*
G01*
X850000Y-485000D01*
X450000Y-540000D02*
G01*
X850000Y-540000D01*
D10*
X1304700Y-50000D02*
G01*
X1305000Y-123000D01*
X1500000Y-850000D02*
G01*
X1430000Y-780000D01*
X1423540Y-780000D01*
D16*
G01*
X1850730Y-1472719D03*
G01*
X1850730Y-1322719D03*
D17*
G01*
X1082560Y-730000D03*
G01*
X1027439Y-730000D03*
G01*
X1247439Y-160000D03*
G01*
X1302560Y-160000D03*
D18*
G01*
X919080Y-1333699D03*
G01*
X919080Y-1353389D03*
G01*
X919080Y-1373069D03*
D19*
G01*
X974200Y-1395709D03*
D20*
G01*
X938270Y-1423270D03*
D21*
G01*
X974200Y-1468550D03*
D20*
G01*
X1010129Y-1423270D03*
D18*
G01*
X1029319Y-1373069D03*
G01*
X1029319Y-1353389D03*
G01*
X1029319Y-1333699D03*
D22*
G01*
X1003730Y-1313033D03*
G01*
X984040Y-1313033D03*
G01*
X964360Y-1313033D03*
G01*
X944670Y-1313033D03*
G01*
X1369668Y-1313039D03*
G01*
X1389358Y-1313039D03*
G01*
X1409039Y-1313039D03*
G01*
X1428728Y-1313039D03*
D18*
G01*
X1454319Y-1333699D03*
G01*
X1454319Y-1353389D03*
G01*
X1454319Y-1373069D03*
D20*
G01*
X1435129Y-1423270D03*
D21*
G01*
X1399200Y-1468550D03*
D20*
G01*
X1363270Y-1423270D03*
D19*
G01*
X1399200Y-1395709D03*
D18*
G01*
X1344080Y-1373069D03*
G01*
X1344080Y-1353389D03*
G01*
X1344080Y-1333699D03*
D22*
G01*
X514671Y-1313039D03*
G01*
X534361Y-1313039D03*
G01*
X554042Y-1313039D03*
G01*
X573732Y-1313039D03*
D18*
G01*
X599319Y-1333699D03*
G01*
X599319Y-1353389D03*
G01*
X599319Y-1373069D03*
D20*
G01*
X580129Y-1423270D03*
D21*
G01*
X544200Y-1468550D03*
D20*
G01*
X508270Y-1423270D03*
D19*
G01*
X544200Y-1395709D03*
D18*
G01*
X489079Y-1373069D03*
G01*
X489079Y-1353389D03*
G01*
X489079Y-1333699D03*
D23*
G01*
X470000Y-307440D03*
G01*
X470000Y-362559D03*
G01*
X740000Y-287440D03*
G01*
X740000Y-342559D03*
D17*
G01*
X1182439Y-715000D03*
G01*
X1237560Y-715000D03*
D23*
G01*
X1845000Y-1212559D03*
G01*
X1845000Y-1157440D03*
G01*
X1610000Y-1212440D03*
G01*
X1610000Y-1267559D03*
D17*
G01*
X1247439Y-230000D03*
G01*
X1302560Y-230000D03*
D23*
G01*
X1440000Y-447559D03*
G01*
X1440000Y-392440D03*
D24*
G01*
X916459Y-1120000D03*
G01*
X973540Y-1120000D03*
G01*
X1366459Y-780000D03*
G01*
X1423540Y-780000D03*
G01*
X916459Y-780000D03*
G01*
X973540Y-780000D03*
G01*
X1366459Y-1125000D03*
G01*
X1423540Y-1125000D03*
D25*
G01*
X1679880Y-530000D03*
G01*
X1840119Y-530000D03*
G01*
X1679880Y-580000D03*
G01*
X1840119Y-580000D03*
G01*
X1679880Y-380000D03*
G01*
X1840119Y-380000D03*
G01*
X1679880Y-430000D03*
G01*
X1840119Y-430000D03*
G01*
X1679880Y-480000D03*
G01*
X1840119Y-480000D03*
D26*
G01*
X1425000Y-855500D03*
G01*
X1375000Y-855500D03*
G01*
X1325000Y-855500D03*
G01*
X1275000Y-855500D03*
G01*
X1225000Y-855500D03*
G01*
X1175000Y-855500D03*
G01*
X1125000Y-855500D03*
G01*
X1075000Y-855500D03*
G01*
X1075000Y-1044499D03*
G01*
X1125000Y-1044499D03*
G01*
X1175000Y-1044499D03*
G01*
X1225000Y-1044499D03*
G01*
X1275000Y-1044499D03*
G01*
X1325000Y-1044499D03*
G01*
X1375000Y-1044499D03*
G01*
X1425000Y-1044499D03*
G01*
X975000Y-855500D03*
G01*
X925000Y-855500D03*
G01*
X875000Y-855500D03*
G01*
X825000Y-855500D03*
G01*
X775000Y-855500D03*
G01*
X725000Y-855500D03*
G01*
X675000Y-855500D03*
G01*
X625000Y-855500D03*
G01*
X625000Y-1044499D03*
G01*
X675000Y-1044499D03*
G01*
X725000Y-1044499D03*
G01*
X775000Y-1044499D03*
G01*
X825000Y-1044499D03*
G01*
X875000Y-1044499D03*
G01*
X925000Y-1044499D03*
G01*
X975000Y-1044499D03*
D27*
G01*
X696469Y-669859D03*
G01*
X633519Y-670140D03*
D28*
G01*
X1084759Y-637020D03*
G01*
X1116260Y-637020D03*
G01*
X1147759Y-637020D03*
G01*
X1179250Y-637020D03*
G01*
X1210749Y-637020D03*
G01*
X1242240Y-637020D03*
G01*
X1273739Y-637020D03*
G01*
X1305240Y-637020D03*
D29*
G01*
X1362010Y-580250D03*
G01*
X1362010Y-548750D03*
G01*
X1362010Y-517249D03*
G01*
X1362010Y-485760D03*
G01*
X1362010Y-454259D03*
G01*
X1362010Y-422770D03*
G01*
X1362010Y-391269D03*
G01*
X1362010Y-359769D03*
D28*
G01*
X1305240Y-303000D03*
G01*
X1273739Y-303000D03*
G01*
X1242240Y-303000D03*
G01*
X1210749Y-303000D03*
G01*
X1179250Y-303000D03*
G01*
X1147759Y-303000D03*
G01*
X1116260Y-303000D03*
G01*
X1084759Y-303000D03*
D29*
G01*
X1027989Y-359769D03*
G01*
X1027989Y-391269D03*
G01*
X1027989Y-422770D03*
G01*
X1027989Y-454259D03*
G01*
X1027989Y-485760D03*
G01*
X1027989Y-517249D03*
G01*
X1027989Y-548750D03*
G01*
X1027989Y-580250D03*
D16*
G01*
X1120000Y-1495000D03*
G01*
X830000Y-1495000D03*
G01*
X1545000Y-1495000D03*
G01*
X1250000Y-1495000D03*
G01*
X690000Y-1495000D03*
G01*
X400000Y-1500000D03*
D30*
G01*
X845000Y-1354655D03*
D31*
G01*
X845000Y-1295340D03*
D32*
G01*
X965344Y-1245000D03*
G01*
X1024655Y-1245000D03*
G01*
X1390344Y-1245000D03*
G01*
X1449655Y-1245000D03*
D30*
G01*
X1270000Y-1354655D03*
D31*
G01*
X1270000Y-1295340D03*
D32*
G01*
X535344Y-1245000D03*
G01*
X594655Y-1245000D03*
D30*
G01*
X415000Y-1354655D03*
D31*
G01*
X415000Y-1295340D03*
D33*
G01*
X549655Y-670000D03*
G01*
X490344Y-670000D03*
G36*
X293739Y-523029D02*
G01*
X293380Y-523009D01*
X293029Y-522950D01*
X292689Y-522840D01*
X292370Y-522689D01*
X292060Y-522510D01*
X291779Y-522289D01*
X291529Y-522040D01*
X291309Y-521759D01*
X291129Y-521449D01*
X290979Y-521129D01*
X290869Y-520790D01*
X290810Y-520430D01*
X290790Y-520079D01*
X290790Y-472440D01*
X290810Y-472080D01*
X290869Y-471729D01*
X290979Y-471390D01*
X291129Y-471069D01*
X291309Y-470760D01*
X291529Y-470479D01*
X291779Y-470230D01*
X292060Y-470010D01*
X292370Y-469830D01*
X292689Y-469679D01*
X293029Y-469569D01*
X293380Y-469510D01*
X293739Y-469490D01*
X311460Y-469490D01*
X311810Y-469510D01*
X312159Y-469569D01*
X312500Y-469679D01*
X312829Y-469830D01*
X313130Y-470010D01*
X313409Y-470230D01*
X313670Y-470479D01*
X313890Y-470760D01*
X314070Y-471069D01*
X314220Y-471390D01*
X314319Y-471729D01*
X314389Y-472080D01*
X314409Y-472440D01*
X314409Y-520079D01*
X314389Y-520430D01*
X314319Y-520790D01*
X314220Y-521129D01*
X314070Y-521449D01*
X313890Y-521759D01*
X313670Y-522040D01*
X313409Y-522289D01*
X313130Y-522510D01*
X312829Y-522689D01*
X312500Y-522840D01*
X312159Y-522950D01*
X311810Y-523009D01*
X311460Y-523029D01*
G37*
G36*
X331140Y-523029D02*
G01*
X330790Y-523009D01*
X330439Y-522950D01*
X330090Y-522840D01*
X329769Y-522689D01*
X329459Y-522510D01*
X329180Y-522289D01*
X328930Y-522040D01*
X328710Y-521759D01*
X328530Y-521449D01*
X328380Y-521129D01*
X328270Y-520790D01*
X328209Y-520430D01*
X328189Y-520079D01*
X328189Y-472440D01*
X328209Y-472080D01*
X328270Y-471729D01*
X328380Y-471390D01*
X328530Y-471069D01*
X328710Y-470760D01*
X328930Y-470479D01*
X329180Y-470230D01*
X329459Y-470010D01*
X329769Y-469830D01*
X330090Y-469679D01*
X330439Y-469569D01*
X330790Y-469510D01*
X331140Y-469490D01*
X348859Y-469490D01*
X349209Y-469510D01*
X349560Y-469569D01*
X349909Y-469679D01*
X350230Y-469830D01*
X350540Y-470010D01*
X350819Y-470230D01*
X351069Y-470479D01*
X351289Y-470760D01*
X351469Y-471069D01*
X351619Y-471390D01*
X351729Y-471729D01*
X351790Y-472080D01*
X351810Y-472440D01*
X351810Y-520079D01*
X351790Y-520430D01*
X351729Y-520790D01*
X351619Y-521129D01*
X351469Y-521449D01*
X351289Y-521759D01*
X351069Y-522040D01*
X350819Y-522289D01*
X350540Y-522510D01*
X350230Y-522689D01*
X349909Y-522840D01*
X349560Y-522950D01*
X349209Y-523009D01*
X348859Y-523029D01*
G37*
G36*
X368539Y-523029D02*
G01*
X368189Y-523009D01*
X367840Y-522950D01*
X367500Y-522840D01*
X367170Y-522689D01*
X366869Y-522510D01*
X366590Y-522289D01*
X366329Y-522040D01*
X366109Y-521759D01*
X365929Y-521449D01*
X365779Y-521129D01*
X365680Y-520790D01*
X365610Y-520430D01*
X365590Y-520079D01*
X365590Y-472440D01*
X365610Y-472080D01*
X365680Y-471729D01*
X365779Y-471390D01*
X365929Y-471069D01*
X366109Y-470760D01*
X366329Y-470479D01*
X366590Y-470230D01*
X366869Y-470010D01*
X367170Y-469830D01*
X367500Y-469679D01*
X367840Y-469569D01*
X368189Y-469510D01*
X368539Y-469490D01*
X386260Y-469490D01*
X386619Y-469510D01*
X386970Y-469569D01*
X387310Y-469679D01*
X387629Y-469830D01*
X387939Y-470010D01*
X388220Y-470230D01*
X388470Y-470479D01*
X388690Y-470760D01*
X388870Y-471069D01*
X389020Y-471390D01*
X389130Y-471729D01*
X389189Y-472080D01*
X389209Y-472440D01*
X389209Y-520079D01*
X389189Y-520430D01*
X389130Y-520790D01*
X389020Y-521129D01*
X388870Y-521449D01*
X388690Y-521759D01*
X388470Y-522040D01*
X388220Y-522289D01*
X387939Y-522510D01*
X387629Y-522689D01*
X387310Y-522840D01*
X386970Y-522950D01*
X386619Y-523009D01*
X386260Y-523029D01*
G37*
G36*
X368539Y-430509D02*
G01*
X368189Y-430489D01*
X367840Y-430430D01*
X367500Y-430320D01*
X367170Y-430169D01*
X366869Y-429989D01*
X366590Y-429769D01*
X366329Y-429520D01*
X366109Y-429239D01*
X365929Y-428930D01*
X365779Y-428609D01*
X365680Y-428270D01*
X365610Y-427919D01*
X365590Y-427559D01*
X365590Y-379920D01*
X365610Y-379569D01*
X365680Y-379209D01*
X365779Y-378870D01*
X365929Y-378550D01*
X366109Y-378240D01*
X366329Y-377959D01*
X366590Y-377710D01*
X366869Y-377489D01*
X367170Y-377310D01*
X367500Y-377159D01*
X367840Y-377049D01*
X368189Y-376990D01*
X368539Y-376970D01*
X386260Y-376970D01*
X386619Y-376990D01*
X386970Y-377049D01*
X387310Y-377159D01*
X387629Y-377310D01*
X387939Y-377489D01*
X388220Y-377710D01*
X388470Y-377959D01*
X388690Y-378240D01*
X388870Y-378550D01*
X389020Y-378870D01*
X389130Y-379209D01*
X389189Y-379569D01*
X389209Y-379920D01*
X389209Y-427559D01*
X389189Y-427919D01*
X389130Y-428270D01*
X389020Y-428609D01*
X388870Y-428930D01*
X388690Y-429239D01*
X388470Y-429520D01*
X388220Y-429769D01*
X387939Y-429989D01*
X387629Y-430169D01*
X387310Y-430320D01*
X386970Y-430430D01*
X386619Y-430489D01*
X386260Y-430509D01*
G37*
G36*
X293739Y-430509D02*
G01*
X293380Y-430489D01*
X293029Y-430430D01*
X292689Y-430320D01*
X292370Y-430169D01*
X292060Y-429989D01*
X291779Y-429769D01*
X291529Y-429520D01*
X291309Y-429239D01*
X291129Y-428930D01*
X290979Y-428609D01*
X290869Y-428270D01*
X290810Y-427919D01*
X290790Y-427559D01*
X290790Y-379920D01*
X290810Y-379569D01*
X290869Y-379209D01*
X290979Y-378870D01*
X291129Y-378550D01*
X291309Y-378240D01*
X291529Y-377959D01*
X291779Y-377710D01*
X292060Y-377489D01*
X292370Y-377310D01*
X292689Y-377159D01*
X293029Y-377049D01*
X293380Y-376990D01*
X293739Y-376970D01*
X311460Y-376970D01*
X311810Y-376990D01*
X312159Y-377049D01*
X312500Y-377159D01*
X312829Y-377310D01*
X313130Y-377489D01*
X313409Y-377710D01*
X313670Y-377959D01*
X313890Y-378240D01*
X314070Y-378550D01*
X314220Y-378870D01*
X314319Y-379209D01*
X314389Y-379569D01*
X314409Y-379920D01*
X314409Y-427559D01*
X314389Y-427919D01*
X314319Y-428270D01*
X314220Y-428609D01*
X314070Y-428930D01*
X313890Y-429239D01*
X313670Y-429520D01*
X313409Y-429769D01*
X313130Y-429989D01*
X312829Y-430169D01*
X312500Y-430320D01*
X312159Y-430430D01*
X311810Y-430489D01*
X311460Y-430509D01*
G37*
D34*
G01*
X562759Y-287600D03*
G01*
X562759Y-325000D03*
G01*
X562759Y-362399D03*
G01*
X657240Y-362399D03*
G01*
X657240Y-287600D03*
G01*
X1767240Y-1212399D03*
G01*
X1767240Y-1175000D03*
G01*
X1767240Y-1137600D03*
G01*
X1672759Y-1137600D03*
G01*
X1672759Y-1212399D03*
D35*
G01*
X165314Y-408814D03*
G01*
X165314Y-434410D03*
G01*
X165314Y-460000D03*
G01*
X165314Y-485589D03*
G01*
X165314Y-511185D03*
D36*
G01*
X156460Y-334020D03*
G01*
X156460Y-585979D03*
D37*
G01*
X60000Y-412759D03*
G01*
X60000Y-507240D03*
D38*
G01*
X1600000Y-100000D03*
D39*
G01*
X1550000Y-200000D03*
G01*
X1500000Y-100000D03*
G01*
X1450000Y-200000D03*
D38*
G01*
X290000Y-90000D03*
D39*
G01*
X240000Y-190000D03*
G01*
X190000Y-90000D03*
G01*
X140000Y-190000D03*
D38*
G01*
X1050000Y-100000D03*
D39*
G01*
X1000000Y-200000D03*
G01*
X950000Y-100000D03*
G01*
X900000Y-200000D03*
D38*
G01*
X110000Y-1105000D03*
D39*
G01*
X210000Y-1155000D03*
G01*
X110000Y-1205000D03*
G01*
X210000Y-1255000D03*
D40*
G01*
X60000Y-330079D03*
G01*
X60000Y-589920D03*
D41*
G01*
X990000Y-1395000D03*
G01*
X1015000Y-1395000D03*
G01*
X955000Y-1395000D03*
G01*
X930000Y-1395000D03*
G01*
X1360000Y-1395000D03*
G01*
X1385000Y-1395000D03*
G01*
X1415000Y-1395000D03*
G01*
X1440000Y-1395000D03*
G01*
X505000Y-1395000D03*
G01*
X530000Y-1395000D03*
G01*
X560000Y-1395000D03*
G01*
X585000Y-1395000D03*
G01*
X1720000Y-1130000D03*
G01*
X1720000Y-1170000D03*
G01*
X1720000Y-1205000D03*
G01*
X1815000Y-1130000D03*
G01*
X1805000Y-1170000D03*
G01*
X1700000Y-1240000D03*
G01*
X380000Y-1295000D03*
G01*
X810000Y-1295000D03*
G01*
X1235000Y-1295000D03*
G01*
X525000Y-1350000D03*
G01*
X565000Y-1350000D03*
G01*
X510000Y-1450000D03*
G01*
X545000Y-1450000D03*
G01*
X580000Y-1450000D03*
G01*
X975000Y-1450000D03*
G01*
X1010000Y-1450000D03*
G01*
X940000Y-1450000D03*
G01*
X1400000Y-1450000D03*
G01*
X1370000Y-1450000D03*
G01*
X1430000Y-1450000D03*
G01*
X955000Y-1345000D03*
G01*
X995000Y-1345000D03*
G01*
X1375000Y-1345000D03*
G01*
X1420000Y-1345000D03*
G01*
X595000Y-1215000D03*
G01*
X1025000Y-1215000D03*
G01*
X1450000Y-1215000D03*
G01*
X625000Y-1100000D03*
G01*
X1075000Y-1100000D03*
G01*
X1335000Y-1110000D03*
G01*
X1335000Y-1145000D03*
G01*
X885000Y-1110000D03*
G01*
X885000Y-1145000D03*
G01*
X1575000Y-1265000D03*
D42*
G01*
X1895000Y-1515000D03*
G01*
X1895000Y-1430000D03*
G01*
X1810000Y-1430000D03*
G01*
X1810000Y-1515000D03*
G01*
X1850730Y-1472719D03*
G01*
X1850000Y-1430000D03*
G01*
X1850000Y-1515000D03*
G01*
X1895000Y-1475000D03*
G01*
X1810000Y-1475000D03*
D41*
G01*
X1235000Y-1110000D03*
G01*
X870000Y-1170000D03*
G01*
X725000Y-1100000D03*
G01*
X710000Y-1185000D03*
D14*
G01*
X1600000Y-1055000D03*
G01*
X1020000Y-1120000D03*
G01*
X1915000Y-380000D03*
G01*
X1915000Y-475000D03*
G01*
X1920000Y-530000D03*
D41*
G01*
X1355000Y-745000D03*
G01*
X1385000Y-745000D03*
G01*
X1050000Y-855000D03*
G01*
X1050000Y-825000D03*
G01*
X905000Y-745000D03*
G01*
X935000Y-745000D03*
G01*
X600000Y-825000D03*
G01*
X600000Y-855000D03*
G01*
X340000Y-535000D03*
G01*
X205000Y-515000D03*
G01*
X515000Y-330000D03*
G01*
X515000Y-370000D03*
G01*
X1245000Y-130000D03*
G01*
X1305000Y-360000D03*
G01*
X1305000Y-425000D03*
G01*
X1305000Y-395000D03*
G01*
X435000Y-655000D03*
G01*
X435000Y-685000D03*
G01*
X1035000Y-685000D03*
G01*
X1010000Y-685000D03*
G01*
X985000Y-580000D03*
G01*
X1280000Y-700000D03*
G01*
X1280000Y-735000D03*
G01*
X780000Y-330000D03*
G01*
X780000Y-360000D03*
G01*
X1275000Y-375000D03*
G01*
X1240000Y-360000D03*
G01*
X980000Y-360000D03*
G01*
X770000Y-670000D03*
G01*
X1115000Y-685000D03*
G01*
X1335000Y-615000D03*
G01*
X1275000Y-585000D03*
G01*
X1325000Y-805000D03*
G01*
X1275000Y-820000D03*
G01*
X1210000Y-575000D03*
G01*
X1245000Y-680000D03*
G01*
X925000Y-490000D03*
G01*
X970000Y-485000D03*
G01*
X980000Y-520000D03*
G01*
X775000Y-800000D03*
G01*
X1500000Y-800000D03*
G01*
X1420000Y-495000D03*
G01*
X1485000Y-530000D03*
G01*
X1085000Y-385000D03*
G01*
X1115000Y-360000D03*
G01*
X1540000Y-500000D03*
G01*
X1180000Y-750000D03*
G01*
X920000Y-620000D03*
G01*
X980000Y-645000D03*
G01*
X1195000Y-535000D03*
G01*
X1175000Y-505000D03*
G01*
X1475000Y-395000D03*
G01*
X1925000Y-580000D03*
G01*
X1080000Y-785000D03*
G01*
X970000Y-740000D03*
G01*
X1500000Y-850000D03*
D14*
G01*
X740000Y-200000D03*
G01*
X500000Y-485000D03*
G01*
X450000Y-540000D03*
G01*
X850000Y-485000D03*
G01*
X850000Y-540000D03*
G01*
X1304669Y-50000D03*
G01*
X1895000Y-1365000D03*
G01*
X1895000Y-1320000D03*
G01*
X1850000Y-1280000D03*
G01*
X1850730Y-1322719D03*
G01*
X1895000Y-1280000D03*
G01*
X1805000Y-1280000D03*
G01*
X1810000Y-1320000D03*
G01*
X1850000Y-1365000D03*
G01*
X1810000Y-1360000D03*
M02*
