G04 Layer: BottomPasteMaskLayer*
G04 EasyEDA v6.5.22, 2022-12-05 22:01:04*
G04 d1a99e3ffb4d45b387634f4a3d5e2a22,8bbad783b4b447a482771b0ae512d992,10*
G04 Gerber Generator version 0.2*
G04 Scale: 100 percent, Rotated: No, Reflected: No *
G04 Dimensions in inches *
G04 leading zeros omitted , absolute positions ,3 integer and 6 decimal *
%FSLAX36Y36*%
%MOIN*%

%AMMACRO1*21,1,$1,$2,0,0,$3*%
%ADD10MACRO1,0.0234X0.0394X90.0000*%
%ADD11MACRO1,0.1772X0.1772X90.0000*%

%LPD*%
G36*
X1604019Y-1369060D02*
G01*
X1602040Y-1371020D01*
X1602040Y-1416300D01*
X1604019Y-1418260D01*
X1620160Y-1418460D01*
X1620160Y-1400740D01*
X1637880Y-1400740D01*
X1637880Y-1418060D01*
X1654400Y-1418260D01*
X1656380Y-1416300D01*
X1656380Y-1371020D01*
X1654400Y-1369060D01*
G37*
G36*
X1604019Y-1453700D02*
G01*
X1602040Y-1455660D01*
X1602040Y-1500940D01*
X1604019Y-1502920D01*
X1654400Y-1502920D01*
X1656380Y-1500940D01*
X1656380Y-1455660D01*
X1654400Y-1453700D01*
X1637880Y-1453700D01*
X1637880Y-1471220D01*
X1620160Y-1471220D01*
X1620160Y-1453899D01*
G37*
G36*
X1524019Y-1369060D02*
G01*
X1522040Y-1371020D01*
X1522040Y-1416300D01*
X1524019Y-1418260D01*
X1540160Y-1418460D01*
X1540160Y-1400740D01*
X1557880Y-1400740D01*
X1557880Y-1418060D01*
X1574400Y-1418260D01*
X1576380Y-1416300D01*
X1576380Y-1371020D01*
X1574400Y-1369060D01*
G37*
G36*
X1524019Y-1453700D02*
G01*
X1522040Y-1455660D01*
X1522040Y-1500940D01*
X1524019Y-1502920D01*
X1574400Y-1502920D01*
X1576380Y-1500940D01*
X1576380Y-1455660D01*
X1574400Y-1453700D01*
X1557880Y-1453700D01*
X1557880Y-1471220D01*
X1540160Y-1471220D01*
X1540160Y-1453899D01*
G37*
G36*
X1444019Y-1369060D02*
G01*
X1442040Y-1371020D01*
X1442040Y-1416300D01*
X1444019Y-1418260D01*
X1460160Y-1418460D01*
X1460160Y-1400740D01*
X1477880Y-1400740D01*
X1477880Y-1418060D01*
X1494400Y-1418260D01*
X1496380Y-1416300D01*
X1496380Y-1371020D01*
X1494400Y-1369060D01*
G37*
G36*
X1444019Y-1453700D02*
G01*
X1442040Y-1455660D01*
X1442040Y-1500940D01*
X1444019Y-1502920D01*
X1494400Y-1502920D01*
X1496380Y-1500940D01*
X1496380Y-1455660D01*
X1494400Y-1453700D01*
X1477880Y-1453700D01*
X1477880Y-1471220D01*
X1460160Y-1471220D01*
X1460160Y-1453899D01*
G37*
G36*
X1364019Y-1369060D02*
G01*
X1362040Y-1371020D01*
X1362040Y-1416300D01*
X1364019Y-1418260D01*
X1380160Y-1418460D01*
X1380160Y-1400740D01*
X1397880Y-1400740D01*
X1397880Y-1418060D01*
X1414400Y-1418260D01*
X1416380Y-1416300D01*
X1416380Y-1371020D01*
X1414400Y-1369060D01*
G37*
G36*
X1364019Y-1453700D02*
G01*
X1362040Y-1455660D01*
X1362040Y-1500940D01*
X1364019Y-1502920D01*
X1414400Y-1502920D01*
X1416380Y-1500940D01*
X1416380Y-1455660D01*
X1414400Y-1453700D01*
X1397880Y-1453700D01*
X1397880Y-1471220D01*
X1380160Y-1471220D01*
X1380160Y-1453899D01*
G37*
G36*
X1284019Y-1369060D02*
G01*
X1282040Y-1371020D01*
X1282040Y-1416300D01*
X1284019Y-1418260D01*
X1300160Y-1418460D01*
X1300160Y-1400740D01*
X1317880Y-1400740D01*
X1317880Y-1418060D01*
X1334400Y-1418260D01*
X1336380Y-1416300D01*
X1336380Y-1371020D01*
X1334400Y-1369060D01*
G37*
G36*
X1284019Y-1453700D02*
G01*
X1282040Y-1455660D01*
X1282040Y-1500940D01*
X1284019Y-1502920D01*
X1334400Y-1502920D01*
X1336380Y-1500940D01*
X1336380Y-1455660D01*
X1334400Y-1453700D01*
X1317880Y-1453700D01*
X1317880Y-1471220D01*
X1300160Y-1471220D01*
X1300160Y-1453899D01*
G37*
G36*
X1204020Y-1369060D02*
G01*
X1202040Y-1371020D01*
X1202040Y-1416300D01*
X1204020Y-1418260D01*
X1220160Y-1418460D01*
X1220160Y-1400740D01*
X1237880Y-1400740D01*
X1237880Y-1418060D01*
X1254400Y-1418260D01*
X1256380Y-1416300D01*
X1256380Y-1371020D01*
X1254400Y-1369060D01*
G37*
G36*
X1204020Y-1453700D02*
G01*
X1202040Y-1455660D01*
X1202040Y-1500940D01*
X1204020Y-1502920D01*
X1254400Y-1502920D01*
X1256380Y-1500940D01*
X1256380Y-1455660D01*
X1254400Y-1453700D01*
X1237880Y-1453700D01*
X1237880Y-1471220D01*
X1220160Y-1471220D01*
X1220160Y-1453899D01*
G37*
G36*
X1124020Y-1369060D02*
G01*
X1122040Y-1371020D01*
X1122040Y-1416300D01*
X1124020Y-1418260D01*
X1140160Y-1418460D01*
X1140160Y-1400740D01*
X1157880Y-1400740D01*
X1157880Y-1418080D01*
X1174400Y-1418260D01*
X1176380Y-1416300D01*
X1176380Y-1371020D01*
X1174400Y-1369060D01*
G37*
G36*
X1124020Y-1453700D02*
G01*
X1122040Y-1455660D01*
X1122040Y-1500940D01*
X1124020Y-1502920D01*
X1174400Y-1502920D01*
X1176380Y-1500940D01*
X1176380Y-1455660D01*
X1174400Y-1453700D01*
X1157880Y-1453700D01*
X1157880Y-1471220D01*
X1140160Y-1471220D01*
X1140160Y-1453899D01*
G37*
G36*
X1044020Y-1369060D02*
G01*
X1042039Y-1371020D01*
X1042039Y-1416300D01*
X1044020Y-1418260D01*
X1060160Y-1418460D01*
X1060160Y-1400740D01*
X1077880Y-1400740D01*
X1077880Y-1418080D01*
X1094400Y-1418260D01*
X1096380Y-1416300D01*
X1096380Y-1371020D01*
X1094400Y-1369060D01*
G37*
G36*
X1044020Y-1453700D02*
G01*
X1042039Y-1455660D01*
X1042039Y-1500940D01*
X1044020Y-1502920D01*
X1094400Y-1502920D01*
X1096380Y-1500940D01*
X1096380Y-1455660D01*
X1094400Y-1453700D01*
X1077880Y-1453700D01*
X1077880Y-1471220D01*
X1060160Y-1471220D01*
X1060160Y-1453899D01*
G37*
G36*
X964020Y-1369060D02*
G01*
X962039Y-1371020D01*
X962039Y-1416300D01*
X964020Y-1418260D01*
X980160Y-1418460D01*
X980160Y-1400740D01*
X997880Y-1400740D01*
X997880Y-1418080D01*
X1014400Y-1418260D01*
X1016380Y-1416300D01*
X1016380Y-1371020D01*
X1014400Y-1369060D01*
G37*
G36*
X964020Y-1453700D02*
G01*
X962039Y-1455660D01*
X962039Y-1500940D01*
X964020Y-1502920D01*
X1014400Y-1502920D01*
X1016380Y-1500940D01*
X1016380Y-1455660D01*
X1014400Y-1453700D01*
X997880Y-1453700D01*
X997880Y-1471220D01*
X980160Y-1471220D01*
X980160Y-1453899D01*
G37*
G36*
X884020Y-1369060D02*
G01*
X882039Y-1371020D01*
X882039Y-1416300D01*
X884020Y-1418260D01*
X900160Y-1418460D01*
X900160Y-1400740D01*
X917880Y-1400740D01*
X917880Y-1418080D01*
X934400Y-1418260D01*
X936380Y-1416300D01*
X936380Y-1371020D01*
X934400Y-1369060D01*
G37*
G36*
X884020Y-1453700D02*
G01*
X882039Y-1455660D01*
X882039Y-1500940D01*
X884020Y-1502920D01*
X934400Y-1502920D01*
X936380Y-1500940D01*
X936380Y-1455660D01*
X934400Y-1453700D01*
X917880Y-1453700D01*
X917880Y-1471220D01*
X900160Y-1471220D01*
X900160Y-1453899D01*
G37*
G36*
X804020Y-1369060D02*
G01*
X802039Y-1371020D01*
X802039Y-1416300D01*
X804020Y-1418260D01*
X820160Y-1418460D01*
X820160Y-1400740D01*
X837880Y-1400740D01*
X837880Y-1418080D01*
X854400Y-1418260D01*
X856380Y-1416300D01*
X856380Y-1371020D01*
X854400Y-1369060D01*
G37*
G36*
X804020Y-1453700D02*
G01*
X802039Y-1455660D01*
X802039Y-1500940D01*
X804020Y-1502920D01*
X854400Y-1502920D01*
X856380Y-1500940D01*
X856380Y-1455660D01*
X854400Y-1453700D01*
X837880Y-1453700D01*
X837880Y-1471220D01*
X820160Y-1471220D01*
X820160Y-1453899D01*
G37*
G36*
X724020Y-1369060D02*
G01*
X722039Y-1371020D01*
X722039Y-1416300D01*
X724020Y-1418260D01*
X740160Y-1418460D01*
X740160Y-1400740D01*
X757880Y-1400740D01*
X757880Y-1418080D01*
X774400Y-1418260D01*
X776380Y-1416300D01*
X776380Y-1371020D01*
X774400Y-1369060D01*
G37*
G36*
X724020Y-1453700D02*
G01*
X722039Y-1455660D01*
X722039Y-1500940D01*
X724020Y-1502920D01*
X774400Y-1502920D01*
X776380Y-1500940D01*
X776380Y-1455660D01*
X774400Y-1453700D01*
X757880Y-1453700D01*
X757880Y-1471220D01*
X740160Y-1471220D01*
X740160Y-1453899D01*
G37*
G36*
X244020Y-1369060D02*
G01*
X242040Y-1371020D01*
X242040Y-1416300D01*
X244020Y-1418260D01*
X260159Y-1418460D01*
X260159Y-1400740D01*
X277880Y-1400740D01*
X277880Y-1418080D01*
X294400Y-1418260D01*
X296380Y-1416300D01*
X296380Y-1371020D01*
X294400Y-1369060D01*
G37*
G36*
X244020Y-1453700D02*
G01*
X242040Y-1455660D01*
X242040Y-1500940D01*
X244020Y-1502920D01*
X294400Y-1502920D01*
X296380Y-1500940D01*
X296380Y-1455660D01*
X294400Y-1453700D01*
X277880Y-1453700D01*
X277880Y-1471220D01*
X260159Y-1471220D01*
X260159Y-1453899D01*
G37*
G36*
X324020Y-1369060D02*
G01*
X322040Y-1371020D01*
X322040Y-1416300D01*
X324020Y-1418260D01*
X340160Y-1418460D01*
X340160Y-1400740D01*
X357879Y-1400740D01*
X357879Y-1418080D01*
X374400Y-1418260D01*
X376380Y-1416300D01*
X376380Y-1371020D01*
X374400Y-1369060D01*
G37*
G36*
X324020Y-1453700D02*
G01*
X322040Y-1455660D01*
X322040Y-1500940D01*
X324020Y-1502920D01*
X374400Y-1502920D01*
X376380Y-1500940D01*
X376380Y-1455660D01*
X374400Y-1453700D01*
X357879Y-1453700D01*
X357879Y-1471220D01*
X340160Y-1471220D01*
X340160Y-1453899D01*
G37*
G36*
X404020Y-1369060D02*
G01*
X402040Y-1371020D01*
X402040Y-1416300D01*
X404020Y-1418260D01*
X420160Y-1418460D01*
X420160Y-1400740D01*
X437879Y-1400740D01*
X437879Y-1418080D01*
X454400Y-1418260D01*
X456380Y-1416300D01*
X456380Y-1371020D01*
X454400Y-1369060D01*
G37*
G36*
X404020Y-1453700D02*
G01*
X402040Y-1455660D01*
X402040Y-1500940D01*
X404020Y-1502920D01*
X454400Y-1502920D01*
X456380Y-1500940D01*
X456380Y-1455660D01*
X454400Y-1453700D01*
X437879Y-1453700D01*
X437879Y-1471220D01*
X420160Y-1471220D01*
X420160Y-1453899D01*
G37*
G36*
X484020Y-1369060D02*
G01*
X482040Y-1371020D01*
X482040Y-1416300D01*
X484020Y-1418260D01*
X500160Y-1418460D01*
X500160Y-1400740D01*
X517879Y-1400740D01*
X517879Y-1418080D01*
X534400Y-1418260D01*
X536380Y-1416300D01*
X536380Y-1371020D01*
X534400Y-1369060D01*
G37*
G36*
X484020Y-1453700D02*
G01*
X482040Y-1455660D01*
X482040Y-1500940D01*
X484020Y-1502920D01*
X534400Y-1502920D01*
X536380Y-1500940D01*
X536380Y-1455660D01*
X534400Y-1453700D01*
X517879Y-1453700D01*
X517879Y-1471220D01*
X500160Y-1471220D01*
X500160Y-1453899D01*
G37*
G36*
X564020Y-1369060D02*
G01*
X562040Y-1371020D01*
X562040Y-1416300D01*
X564020Y-1418260D01*
X580160Y-1418460D01*
X580160Y-1400740D01*
X597880Y-1400740D01*
X597880Y-1418080D01*
X614400Y-1418260D01*
X616380Y-1416300D01*
X616380Y-1371020D01*
X614400Y-1369060D01*
G37*
G36*
X564020Y-1453700D02*
G01*
X562040Y-1455660D01*
X562040Y-1500940D01*
X564020Y-1502920D01*
X614400Y-1502920D01*
X616380Y-1500940D01*
X616380Y-1455660D01*
X614400Y-1453700D01*
X597880Y-1453700D01*
X597880Y-1471220D01*
X580160Y-1471220D01*
X580160Y-1453899D01*
G37*
G36*
X644020Y-1369060D02*
G01*
X642039Y-1371020D01*
X642039Y-1416300D01*
X644020Y-1418260D01*
X660160Y-1418460D01*
X660160Y-1400740D01*
X677880Y-1400740D01*
X677880Y-1418080D01*
X694400Y-1418260D01*
X696380Y-1416300D01*
X696380Y-1371020D01*
X694400Y-1369060D01*
G37*
G36*
X644020Y-1453700D02*
G01*
X642039Y-1455660D01*
X642039Y-1500940D01*
X644020Y-1502920D01*
X694400Y-1502920D01*
X696380Y-1500940D01*
X696380Y-1455660D01*
X694400Y-1453700D01*
X677880Y-1453700D01*
X677880Y-1471220D01*
X660160Y-1471220D01*
X660160Y-1453899D01*
G37*
D10*
G01*
X1699849Y-1389999D03*
G01*
X1699849Y-1339999D03*
G01*
X1699849Y-1289999D03*
G01*
X1699849Y-1239999D03*
D11*
G01*
X1850150Y-1314999D03*
M02*
