G04 Layer: BottomSolderMaskLayer*
G04 EasyEDA v6.5.22, 2022-12-05 22:01:04*
G04 d1a99e3ffb4d45b387634f4a3d5e2a22,8bbad783b4b447a482771b0ae512d992,10*
G04 Gerber Generator version 0.2*
G04 Scale: 100 percent, Rotated: No, Reflected: No *
G04 Dimensions in inches *
G04 leading zeros omitted , absolute positions ,3 integer and 6 decimal *
%FSLAX36Y36*%
%MOIN*%

%AMMACRO1*1,1,$1,$2,$3*1,1,$1,$4,$5*1,1,$1,0-$2,0-$3*1,1,$1,0-$4,0-$5*20,1,$1,$2,$3,$4,$5,0*20,1,$1,$4,$5,0-$2,0-$3,0*20,1,$1,0-$2,0-$3,0-$4,0-$5,0*20,1,$1,0-$4,0-$5,$2,$3,0*4,1,4,$2,$3,$4,$5,0-$2,0-$3,0-$4,0-$5,$2,$3,0*%
%ADD10MACRO1,0.004X0.0197X-0.0117X0.0197X0.0117*%
%ADD11MACRO1,0.004X0.0886X-0.0886X0.0886X0.0886*%
%ADD12MACRO1,0.004X0.0266X0.0278X-0.0266X0.0278*%
%ADD13MACRO1,0.004X0.0266X-0.0278X-0.0266X-0.0278*%
%ADD14MACRO1,0.004X0.0267X-0.0267X-0.0267X-0.0267*%
%ADD15C,0.0575*%
%ADD16MACRO1,0.004X0.0267X0.0267X0.0267X-0.0267*%
%ADD17O,0.066992X0.039432999999999996*%

%LPD*%
D10*
G01*
X1699849Y-1389999D03*
G01*
X1699849Y-1339999D03*
G01*
X1699849Y-1289999D03*
G01*
X1699849Y-1239999D03*
D11*
G01*
X1850150Y-1314999D03*
D12*
G01*
X1630000Y-1474369D03*
D13*
G01*
X1630000Y-1395628D03*
D12*
G01*
X1550000Y-1474369D03*
D13*
G01*
X1550000Y-1395628D03*
D12*
G01*
X1470000Y-1474369D03*
D13*
G01*
X1470000Y-1395628D03*
D12*
G01*
X1390000Y-1474369D03*
D13*
G01*
X1390000Y-1395628D03*
D12*
G01*
X1310000Y-1474369D03*
D13*
G01*
X1310000Y-1395628D03*
D12*
G01*
X1230000Y-1474369D03*
D13*
G01*
X1230000Y-1395628D03*
D12*
G01*
X1150000Y-1474371D03*
D13*
G01*
X1150000Y-1395628D03*
D12*
G01*
X1070000Y-1474371D03*
D13*
G01*
X1070000Y-1395628D03*
D12*
G01*
X990000Y-1474371D03*
D13*
G01*
X990000Y-1395628D03*
D12*
G01*
X910000Y-1474371D03*
D13*
G01*
X910000Y-1395628D03*
D12*
G01*
X830000Y-1474371D03*
D13*
G01*
X830000Y-1395628D03*
D12*
G01*
X750000Y-1474371D03*
D13*
G01*
X750000Y-1395628D03*
D12*
G01*
X270000Y-1474371D03*
D13*
G01*
X270000Y-1395628D03*
D12*
G01*
X350000Y-1474371D03*
D13*
G01*
X350000Y-1395628D03*
D12*
G01*
X430000Y-1474371D03*
D13*
G01*
X430000Y-1395628D03*
D12*
G01*
X510000Y-1474371D03*
D13*
G01*
X510000Y-1395628D03*
D12*
G01*
X590000Y-1474371D03*
D13*
G01*
X590000Y-1395628D03*
D12*
G01*
X670000Y-1474371D03*
D13*
G01*
X670000Y-1395628D03*
D14*
G01*
X1600000Y-100000D03*
D15*
G01*
X1550000Y-200000D03*
G01*
X1500000Y-100000D03*
G01*
X1450000Y-200000D03*
D14*
G01*
X290000Y-90000D03*
D15*
G01*
X240000Y-190000D03*
G01*
X190000Y-90000D03*
G01*
X140000Y-190000D03*
D14*
G01*
X1050000Y-100000D03*
D15*
G01*
X1000000Y-200000D03*
G01*
X950000Y-100000D03*
G01*
X900000Y-200000D03*
D16*
G01*
X110000Y-1105000D03*
D15*
G01*
X210000Y-1155000D03*
G01*
X110000Y-1205000D03*
G01*
X210000Y-1255000D03*
D17*
G01*
X60000Y-330079D03*
G01*
X60000Y-589920D03*
M02*
